<svg width="32" height="23" viewBox="0 0 32 23" fill="none" xmlns="http://www.w3.org/2000/svg">
<path d="M1.99997 0H30C31.104 0 32 0.895957 32 2.00096V21.001C32 22.105 31.104 23.0009 30 23.0009H1.99997C0.89497 23.0011 0 22.105 0 21.0011V2.00096C0 0.895957 0.895957 0 1.99997 0Z" fill="#1172CC"/>
<path d="M5.15973 8L1.99969 14.993H5.7827L6.25168 13.8781H7.32367L7.79265 14.993H11.9567V14.1421L12.3277 14.993H14.4817L14.8527 14.1241V14.993H23.5127L24.5658 13.907L25.5518 14.993L29.9997 15.002L26.8297 11.516L29.9997 8H25.6208L24.5957 9.06596L23.6407 8H14.2198L13.4108 9.80497L12.5828 8H8.80772V8.82203L8.38776 8C8.38776 8 5.15973 8 5.15973 8ZM5.89172 8.99302H7.73573L9.83178 13.735V8.99302H11.8518L13.4708 12.393L14.9628 8.99302H16.9728V14.011H15.7498L15.7398 10.0789L13.9568 14.011H12.8627L11.0697 10.0789V14.011H8.5537L8.07671 12.886H5.49973L5.02373 14.01H3.67568L5.89172 8.99302ZM18.0917 8.99302H23.0647L24.5857 10.636L26.1558 8.99302H27.6768L25.3658 11.5151L27.6768 14.008H26.0868L24.5658 12.346L22.9877 14.008H18.0917V8.99302ZM6.78877 9.84204L5.93976 11.8461H7.6368L6.78877 9.84204ZM19.3198 10.032V10.948H22.0328V11.969H19.3198V12.9691H22.3628L23.7767 11.4961L22.4228 10.0311H19.3198V10.032Z" fill="white"/>
</svg>
