<svg width="32" height="23" viewBox="0 0 32 23" fill="none" xmlns="http://www.w3.org/2000/svg">
<rect x="0.5" y="0.5" width="31" height="22" rx="1.5" fill="#262626" stroke="#EDF7F7"/>
<path d="M9.69928 11.834C9.70252 13.6812 10.8532 15.2557 12.4823 15.8815V7.7832C10.8532 8.41307 9.70252 9.98761 9.69928 11.834Z" fill="#3688C6"/>
<path d="M23.3004 6.11752C21.7649 4.70389 19.6659 3.89307 17.5345 3.89307H15.9143H14.0117C9.44424 3.89307 6 7.34024 6 11.9115C6 16.2624 9.58033 19.8022 13.9811 19.8022H15.9143H17.5322L17.5714 19.8023C17.5716 19.8023 17.5716 19.8023 17.5718 19.8023C19.6545 19.8023 21.7481 18.9601 23.3155 17.4916C24.9361 15.9733 25.8286 13.9916 25.8286 11.9117C25.8286 9.67618 24.9307 7.6185 23.3004 6.11752ZM15.9143 17.9155C15.32 18.0997 14.6889 18.1993 14.0349 18.1993C10.5255 18.1993 7.67038 15.3439 7.67038 11.8342C7.67038 8.32455 10.5255 5.46923 14.0349 5.46923C14.6889 5.46923 15.32 5.56877 15.9143 5.75297C18.5076 6.55686 20.3967 8.97901 20.3967 11.8342C20.3967 14.6895 18.5076 17.1116 15.9143 17.9155Z" fill="#3688C6"/>
<path d="M15.9139 7.92639C15.8067 7.87457 15.6977 7.82615 15.586 7.7832V15.8815C15.6979 15.8386 15.8068 15.7902 15.9139 15.7386C17.3669 15.0375 18.3686 13.5545 18.3718 11.8342C18.3686 10.1145 17.3669 8.62865 15.9139 7.92639Z" fill="#3688C6"/>
</svg>
