<svg width="32" height="23" viewBox="0 0 32 23" fill="none" xmlns="http://www.w3.org/2000/svg">
<rect x="0.5" y="0.5" width="31" height="22" rx="1.5" fill="#262626" stroke="#EDF7F7"/>
<path d="M8.74194 3.92969C7.19355 3.92969 6 4.97969 6 6.80872V12.0248C6.12903 12.6684 6.77419 13.1426 7.48387 13.1426C8.29032 13.1426 8.87097 12.5329 8.87097 11.7878V9.14582H11.0645V11.7539C11.0645 13.2103 9.29032 13.9555 8 13.9555C7.25806 13.9555 6.54839 13.7184 6.03226 13.3119V19.07H9.51613C10.7419 19.07 12.1613 17.8507 12.1613 16.2926V3.92969H8.74194Z" fill="#1174CE"/>
<path d="M20.9354 13.0752H22.4515C22.8386 13.0752 23.1934 12.7026 23.1934 12.2961C23.1934 11.8897 22.8386 11.5171 22.4515 11.5171H20.9354V13.0752Z" fill="#1BCC38"/>
<path d="M22.6451 3.92969C21.0645 3.92969 19.9032 4.97969 19.9032 6.77485V9.14582H23.9677C24.5484 9.14582 25.0322 9.65388 25.0322 10.2636C25.0322 10.8732 24.5484 11.3813 23.9677 11.3813C24.6129 11.3813 25.129 11.8555 25.129 12.4652C25.129 13.0748 24.6451 13.549 23.9677 13.549H19.8709V19.07H23.3548C24.5806 19.07 26 17.8507 26 16.2926V3.92969H22.6451Z" fill="#1BCC38"/>
<path d="M23.1612 10.3991C23.1612 9.9927 22.8063 9.62012 22.4192 9.62012H20.9354V11.1443H22.4515C22.8386 11.1443 23.1612 10.8056 23.1612 10.3991Z" fill="#1BCC38"/>
<path d="M15.6451 3.92969C14.0645 3.92969 12.9032 4.97969 12.9032 6.77485V9.68775C13.2903 9.34904 13.7741 9.11195 14.2903 9.11195H17.9677V9.92485C17.0967 9.72162 16.258 9.62001 15.8387 9.62001C14.9354 9.62001 14.1935 10.399 14.1935 11.3474C14.1935 12.2958 14.9354 13.0748 15.8387 13.0748C16.258 13.0748 17.0967 13.0071 17.9677 12.8039V13.549H14.2903C13.7741 13.549 13.258 13.3458 12.9032 12.9732V19.07H16.387C17.6128 19.07 19.0322 17.8507 19.0322 16.2926V3.92969H15.6451Z" fill="#E20E37"/>
</svg>
