<svg width="32" height="23" viewBox="0 0 32 23" fill="none" xmlns="http://www.w3.org/2000/svg">
<rect x="0.5" y="0.5" width="31" height="22" rx="1.5" fill="#262626" stroke="#EDF7F7"/>
<path d="M20.2156 18.187C16.4683 18.187 13.4305 15.1492 13.4305 11.4018C13.4305 7.65451 16.4683 4.6167 20.2156 4.6167C23.963 4.6167 27.0008 7.65451 27.0008 11.4018C27.0008 15.1492 23.963 18.187 20.2156 18.187Z" fill="#EE0005"/>
<path d="M11.7851 18.187C8.03781 18.187 5 15.1492 5 11.4018C5 7.65451 8.03781 4.6167 11.7851 4.6167C15.5325 4.6167 18.5703 7.65451 18.5703 11.4018C18.5703 15.1492 15.5325 18.187 11.7851 18.187Z" fill="#F9A000"/>
<path d="M18.5703 11.4022C18.5703 13.5566 17.566 15.4763 16.0002 16.7192C14.4345 15.4763 13.4301 13.5566 13.4301 11.4022C13.4301 9.24778 14.4344 7.32809 16.0002 6.08521C17.5659 7.32819 18.5703 9.24783 18.5703 11.4022Z" fill="#FF6300"/>
</svg>
