<svg width="32" height="23" viewBox="0 0 32 23" fill="none" xmlns="http://www.w3.org/2000/svg">
<rect x="0.5" y="0.5" width="31" height="22" rx="1.5" fill="#262626" stroke="#EDF7F7"/>
<path d="M13.0108 8.12793L11.7402 15.5839H13.7723L15.0438 8.12793H13.0108Z" fill="#162A85"/>
<path d="M10.0359 8.13633L8.04569 13.2211L7.8335 12.4533C7.44099 11.5283 6.32672 10.1997 5.01855 9.36245L6.83839 15.5803L8.98853 15.5766L12.1887 8.13477L10.0359 8.13633Z" fill="#162A85"/>
<path d="M7.06196 8.67019C6.94385 8.21602 6.60152 8.08065 6.17661 8.06445H3.02613L3 8.21288C5.45171 8.80765 7.07399 10.2407 7.74715 11.9639L7.06196 8.67019Z" fill="#162A85"/>
<path d="M19.1614 9.55747C19.8262 9.54702 20.3081 9.69231 20.6823 9.84283L20.8657 9.92907L21.1406 8.31306C20.7382 8.16202 20.1074 8 19.3203 8C17.3123 8 15.897 9.01131 15.886 10.4606C15.8729 11.5315 16.8942 12.1294 17.6656 12.4863C18.4574 12.8522 18.7229 13.0848 18.7192 13.4114C18.713 13.9105 18.0879 14.1395 17.5041 14.1395C16.6903 14.1395 16.2581 14.0271 15.5907 13.749L15.3289 13.6299L15.043 15.2987C15.5186 15.5072 16.3961 15.6865 17.307 15.6959C19.4431 15.6959 20.8312 14.6966 20.8458 13.148C20.8547 12.3008 20.3128 11.6543 19.1384 11.1238C18.4276 10.7778 17.9928 10.5479 17.9969 10.1987C17.9969 9.88882 18.3659 9.55747 19.1614 9.55747Z" fill="#162A85"/>
<path d="M26.3559 8.13623H24.7859C24.2983 8.13623 23.9356 8.26898 23.7213 8.75504L20.7041 15.588H22.838C22.838 15.588 23.1861 14.6692 23.265 14.468C23.4987 14.468 25.572 14.4712 25.8673 14.4712C25.9279 14.7314 26.115 15.588 26.115 15.588H28.0002L26.3559 8.13623ZM23.8499 12.9419C24.0171 12.5139 24.6594 10.8581 24.6594 10.8581C24.6485 10.8785 24.8251 10.427 24.9302 10.1463L25.0671 10.7892C25.0671 10.7892 25.4565 12.5693 25.538 12.9419H23.8499Z" fill="#162A85"/>
</svg>
