<svg width="40" height="40" viewBox="0 0 40 40" fill="none" xmlns="http://www.w3.org/2000/svg">
    <g clip-path="url(#clip0_383_1519)">
        <path d="M18.34 14.068C18.34 12.8944 17.3855 11.9405 16.2124 11.9405C15.0392 11.9405 14.0849 12.8944 14.0849 14.068C14.0849 15.241 15.0392 16.1955 16.2124 16.1955C17.3856 16.1955 18.34 15.241 18.34 14.068ZM15.4835 14.068C15.4835 13.6661 15.8106 13.3391 16.2124 13.3391C16.6144 13.3391 16.9413 13.6661 16.9413 14.068C16.9413 14.4695 16.6144 14.7969 16.2124 14.7969C15.8106 14.7969 15.4835 14.4695 15.4835 14.068Z" fill="#067D7B" stroke="#067D7B" stroke-width="0.3"/>
        <path d="M23.346 18.789C23.346 19.9624 24.3003 20.9165 25.4735 20.9165C26.6464 20.9165 27.6011 19.9624 27.6011 18.789C27.6011 17.6157 26.6464 16.6614 25.4735 16.6614C24.3003 16.6614 23.346 17.6157 23.346 18.789ZM25.4735 18.0601C25.8752 18.0601 26.2025 18.387 26.2025 18.789C26.2025 19.1906 25.8751 19.5179 25.4735 19.5179C25.0716 19.5179 24.7446 19.1906 24.7446 18.789C24.7446 18.3869 25.0715 18.0601 25.4735 18.0601Z" fill="#067D7B" stroke="#067D7B" stroke-width="0.3"/>
        <path d="M13.2609 24.2173C13.2609 25.8454 14.585 27.1695 16.2128 27.1695C17.8406 27.1695 19.1648 25.8454 19.1648 24.2173C19.1648 22.5894 17.8406 21.2656 16.2128 21.2656C14.585 21.2656 13.2609 22.5894 13.2609 24.2173ZM16.2128 22.6643C17.0693 22.6643 17.7661 23.3612 17.7661 24.2173C17.7661 25.0739 17.0692 25.7709 16.2128 25.7709C15.3563 25.7709 14.6595 25.0739 14.6595 24.2173C14.6595 23.361 15.3562 22.6643 16.2128 22.6643Z" fill="#067D7B" stroke="#067D7B" stroke-width="0.3"/>
        <mask id="path-4-outside-1_383_1519" maskUnits="userSpaceOnUse" x="0.162313" y="0.161743" width="39" height="39" fill="black">
            <rect fill="white" x="0.162313" y="0.161743" width="39" height="39"/>
            <path d="M36.6848 17.9342C35.789 17.9342 35.0607 18.544 34.8186 19.3624H32.4118C32.1014 18.3367 31.5003 17.8472 31.3749 17.2952C31.2099 16.57 31.7625 15.3934 31.2968 14.4285C30.8288 13.4578 29.5506 13.1431 29.103 12.5827C28.9592 12.4025 28.8581 12.1312 28.76 11.8409L32.9929 7.60808C33.3474 7.82122 33.7341 7.97195 34.1584 7.97195C34.7746 7.97195 35.3535 7.73201 35.7893 7.29622C36.6884 6.39724 36.6884 4.93386 35.7893 4.0346C34.8882 3.13357 33.4292 3.13342 32.5278 4.0346C31.7661 4.79617 31.6897 5.94402 32.2179 6.82937L28.322 10.7253C27.9838 10.0746 27.5556 9.71614 26.5828 9.57551C26.2823 9.53216 26.004 9.74031 25.9604 10.0405C25.917 10.3407 26.1252 10.6192 26.4259 10.6629C27.2055 10.7757 27.3216 10.9913 27.6408 11.9691C28.0423 13.1988 28.2707 13.4812 29.373 14.1398C30.4359 14.7753 30.4826 14.8955 30.323 16.0945C30.1494 17.3976 30.2414 17.7489 30.9331 18.7967C31.6179 19.8357 31.6179 19.9882 30.9331 21.0266C30.239 22.079 30.1503 22.4308 30.323 23.7293C30.4829 24.9303 30.4337 25.0497 29.3724 25.684C28.2709 26.3421 28.0423 26.6245 27.6408 27.8549C27.2592 29.0235 27.156 29.1009 25.9419 29.2135C24.6498 29.333 24.324 29.4945 23.4435 30.4151C22.5857 31.3119 22.4563 31.3309 21.331 30.9108C20.8787 30.7422 20.4114 30.568 19.9125 30.568C18.9318 30.568 17.9402 31.2951 17.3447 31.1598C17.0244 31.0872 16.7124 30.7607 16.3818 30.4151C15.5036 29.497 15.1798 29.3336 13.8832 29.2132C12.6687 29.1009 12.5654 29.0231 12.1841 27.8544C11.7821 26.6244 11.5541 26.3421 10.4521 25.6837C9.38932 25.0484 9.3423 24.9285 9.50182 23.7291C9.67467 22.4322 9.58619 22.0793 8.89186 21.0266C8.20704 19.9882 8.20704 19.8353 8.89186 18.7966C9.58605 17.7445 9.67482 17.3922 9.50182 16.0941C9.3423 14.8948 9.38932 14.7747 10.4524 14.1395C10.8586 13.8968 11.2787 13.6459 11.5806 13.2677C11.8839 12.8875 12.0366 12.4205 12.1841 11.9686C12.3313 11.5182 12.4702 11.0927 12.7207 10.8927C12.9682 10.6947 13.4125 10.6536 13.8832 10.61C15.1768 10.49 15.5018 10.3284 16.3818 9.40838C17.2378 8.51321 17.366 8.49153 18.4941 8.91253C19.7223 9.37088 20.1023 9.37088 21.331 8.91253C22.7157 8.39588 22.6195 8.62439 23.7644 9.73518C23.9818 9.94612 24.3297 9.94129 24.5408 9.72332C24.7523 9.50564 24.7472 9.15774 24.5291 8.94636C24.4331 8.85364 24.3385 8.75403 24.2373 8.64871C23.0458 7.40359 22.462 7.31819 20.9468 7.88347C20.7792 7.94573 20.6181 8.0033 20.4618 8.05164V5.00564C21.2799 4.76321 21.8899 4.03518 21.8899 3.13928C21.8899 2.04885 21.0026 1.16174 19.9123 1.16174C18.8219 1.16174 17.9348 2.04885 17.9348 3.13928C17.9348 4.03518 18.5446 4.76321 19.363 5.00564V8.05164C19.207 8.0033 19.0459 7.94573 18.8778 7.88347C17.3631 7.31819 16.779 7.40344 15.5875 8.64885C15.3181 8.93054 15.0637 9.19656 14.811 9.31873C14.5491 9.445 14.1763 9.47942 13.7815 9.51604C12.6764 9.61858 12.0032 9.76199 11.5028 10.7253L8.43028 7.65276C9.00626 6.71526 8.93155 5.4886 8.12032 4.67708C7.1714 3.72786 5.62687 3.72786 4.67765 4.67708C2.71212 6.6429 5.10963 9.99212 7.65333 8.42971L11.0647 11.8409C10.8051 12.6083 10.7072 12.7074 9.88839 13.1965C8.43248 14.0666 8.19503 14.6043 8.41285 16.2394C8.46544 16.6343 8.5151 17.0077 8.44962 17.2952C8.32423 17.8472 7.72306 18.3366 7.4128 19.3624H5.00621C4.76378 18.544 4.03575 17.9342 3.13985 17.9342C2.04942 17.9342 1.16231 18.8213 1.16231 19.9117C1.16231 21.002 2.04942 21.8893 3.13985 21.8893C4.03575 21.8893 4.76378 21.2793 5.00621 20.4611H7.4128C7.72306 21.4869 8.32423 21.976 8.44991 22.5281C8.61471 23.2532 8.06217 24.4304 8.5277 25.3948C8.99601 26.3659 10.2741 26.6802 10.7219 27.2407C10.8656 27.421 10.9665 27.6924 11.0647 27.9826L8.98356 30.0636C8.23385 29.6563 7.28727 29.7398 6.65416 30.3734C5.40758 31.6202 6.3026 33.7481 8.0525 33.7481C9.51998 33.7481 10.5007 32.2035 9.76051 30.8405L11.5029 29.0981C12.3181 30.6671 13.9536 30.0912 14.811 30.5049C15.4592 30.8177 16.0385 31.9898 17.1014 32.2312C17.8935 32.4114 18.6549 31.9917 19.363 31.772V34.818C18.5446 35.0601 17.9348 35.7885 17.9348 36.6842C17.9348 37.7745 18.8219 38.6618 19.9123 38.6618C21.0026 38.6618 21.8899 37.7745 21.8899 36.6842C21.8899 35.7885 21.2799 35.0601 20.4616 34.818V31.772C21.1801 31.9945 21.9325 32.4113 22.7235 32.2312C23.7836 31.9903 24.3706 30.8153 25.0136 30.5049C25.8816 30.086 27.502 30.6757 28.322 29.0981L28.8987 29.6754C29.1134 29.8897 29.4612 29.8897 29.6759 29.6754C29.8904 29.4606 29.8904 29.1127 29.6759 28.8981L28.76 27.9823C29.0197 27.2141 29.1181 27.1159 29.9362 26.6269C31.3919 25.7569 31.6298 25.219 31.4118 23.5841C31.2751 22.5577 31.3032 22.4603 31.8498 21.6316C32.0793 21.2839 32.2829 20.8867 32.4115 20.4611H34.8181C35.0607 21.2793 35.789 21.8893 36.6848 21.8893C37.7751 21.8893 38.6623 21.002 38.6623 19.9117C38.6623 18.8213 37.7751 17.9342 36.6848 17.9342ZM34.1584 4.45779C35.2318 4.45779 35.7681 5.76399 35.0127 6.51956C34.5404 6.99138 33.7766 6.99153 33.3044 6.51956C32.5485 5.7637 33.0854 4.45779 34.1584 4.45779ZM19.0334 3.13928C19.0334 2.65457 19.4276 2.26038 19.9123 2.26038C20.3972 2.26038 20.7912 2.65457 20.7912 3.13928C20.7912 3.62415 20.3972 4.01819 19.9123 4.01819C19.4276 4.01819 19.0334 3.62415 19.0334 3.13928ZM5.45475 7.34295C4.93385 6.82219 4.93385 5.97478 5.45475 5.45374C5.97535 4.93328 6.82276 4.93328 7.34352 5.45374C7.86441 5.97478 7.86441 6.82219 7.34352 7.34295C6.82276 7.86384 5.97535 7.86355 5.45475 7.34295ZM3.13985 20.7907C2.65514 20.7907 2.26095 20.3966 2.26095 19.9117C2.26095 19.427 2.65514 19.0328 3.13985 19.0328C3.62472 19.0328 4.01876 19.427 4.01876 19.9117C4.01876 20.3966 3.62472 20.7907 3.13985 20.7907ZM8.67403 32.3931C8.33097 32.736 7.77345 32.736 7.43082 32.3931C6.87667 31.8389 7.27452 30.8932 8.05221 30.8932C8.8296 30.8932 9.22862 31.8385 8.67403 32.3931ZM20.7912 36.6842C20.7912 37.1691 20.3972 37.5631 19.9123 37.5631C19.4276 37.5631 19.0334 37.1691 19.0334 36.6842C19.0334 36.1995 19.4276 35.8053 19.9123 35.8053C20.3972 35.8053 20.7912 36.1995 20.7912 36.6842ZM36.6848 20.7907C36.2001 20.7907 35.8059 20.3966 35.8059 19.9117C35.8059 19.427 36.2001 19.0328 36.6848 19.0328C37.1696 19.0328 37.5637 19.427 37.5637 19.9117C37.5637 20.3966 37.1696 20.7907 36.6848 20.7907Z"/>
        </mask>
        <path d="M36.6848 17.9342C35.789 17.9342 35.0607 18.544 34.8186 19.3624H32.4118C32.1014 18.3367 31.5003 17.8472 31.3749 17.2952C31.2099 16.57 31.7625 15.3934 31.2968 14.4285C30.8288 13.4578 29.5506 13.1431 29.103 12.5827C28.9592 12.4025 28.8581 12.1312 28.76 11.8409L32.9929 7.60808C33.3474 7.82122 33.7341 7.97195 34.1584 7.97195C34.7746 7.97195 35.3535 7.73201 35.7893 7.29622C36.6884 6.39724 36.6884 4.93386 35.7893 4.0346C34.8882 3.13357 33.4292 3.13342 32.5278 4.0346C31.7661 4.79617 31.6897 5.94402 32.2179 6.82937L28.322 10.7253C27.9838 10.0746 27.5556 9.71614 26.5828 9.57551C26.2823 9.53216 26.004 9.74031 25.9604 10.0405C25.917 10.3407 26.1252 10.6192 26.4259 10.6629C27.2055 10.7757 27.3216 10.9913 27.6408 11.9691C28.0423 13.1988 28.2707 13.4812 29.373 14.1398C30.4359 14.7753 30.4826 14.8955 30.323 16.0945C30.1494 17.3976 30.2414 17.7489 30.9331 18.7967C31.6179 19.8357 31.6179 19.9882 30.9331 21.0266C30.239 22.079 30.1503 22.4308 30.323 23.7293C30.4829 24.9303 30.4337 25.0497 29.3724 25.684C28.2709 26.3421 28.0423 26.6245 27.6408 27.8549C27.2592 29.0235 27.156 29.1009 25.9419 29.2135C24.6498 29.333 24.324 29.4945 23.4435 30.4151C22.5857 31.3119 22.4563 31.3309 21.331 30.9108C20.8787 30.7422 20.4114 30.568 19.9125 30.568C18.9318 30.568 17.9402 31.2951 17.3447 31.1598C17.0244 31.0872 16.7124 30.7607 16.3818 30.4151C15.5036 29.497 15.1798 29.3336 13.8832 29.2132C12.6687 29.1009 12.5654 29.0231 12.1841 27.8544C11.7821 26.6244 11.5541 26.3421 10.4521 25.6837C9.38932 25.0484 9.3423 24.9285 9.50182 23.7291C9.67467 22.4322 9.58619 22.0793 8.89186 21.0266C8.20704 19.9882 8.20704 19.8353 8.89186 18.7966C9.58605 17.7445 9.67482 17.3922 9.50182 16.0941C9.3423 14.8948 9.38932 14.7747 10.4524 14.1395C10.8586 13.8968 11.2787 13.6459 11.5806 13.2677C11.8839 12.8875 12.0366 12.4205 12.1841 11.9686C12.3313 11.5182 12.4702 11.0927 12.7207 10.8927C12.9682 10.6947 13.4125 10.6536 13.8832 10.61C15.1768 10.49 15.5018 10.3284 16.3818 9.40838C17.2378 8.51321 17.366 8.49153 18.4941 8.91253C19.7223 9.37088 20.1023 9.37088 21.331 8.91253C22.7157 8.39588 22.6195 8.62439 23.7644 9.73518C23.9818 9.94612 24.3297 9.94129 24.5408 9.72332C24.7523 9.50564 24.7472 9.15774 24.5291 8.94636C24.4331 8.85364 24.3385 8.75403 24.2373 8.64871C23.0458 7.40359 22.462 7.31819 20.9468 7.88347C20.7792 7.94573 20.6181 8.0033 20.4618 8.05164V5.00564C21.2799 4.76321 21.8899 4.03518 21.8899 3.13928C21.8899 2.04885 21.0026 1.16174 19.9123 1.16174C18.8219 1.16174 17.9348 2.04885 17.9348 3.13928C17.9348 4.03518 18.5446 4.76321 19.363 5.00564V8.05164C19.207 8.0033 19.0459 7.94573 18.8778 7.88347C17.3631 7.31819 16.779 7.40344 15.5875 8.64885C15.3181 8.93054 15.0637 9.19656 14.811 9.31873C14.5491 9.445 14.1763 9.47942 13.7815 9.51604C12.6764 9.61858 12.0032 9.76199 11.5028 10.7253L8.43028 7.65276C9.00626 6.71526 8.93155 5.4886 8.12032 4.67708C7.1714 3.72786 5.62687 3.72786 4.67765 4.67708C2.71212 6.6429 5.10963 9.99212 7.65333 8.42971L11.0647 11.8409C10.8051 12.6083 10.7072 12.7074 9.88839 13.1965C8.43248 14.0666 8.19503 14.6043 8.41285 16.2394C8.46544 16.6343 8.5151 17.0077 8.44962 17.2952C8.32423 17.8472 7.72306 18.3366 7.4128 19.3624H5.00621C4.76378 18.544 4.03575 17.9342 3.13985 17.9342C2.04942 17.9342 1.16231 18.8213 1.16231 19.9117C1.16231 21.002 2.04942 21.8893 3.13985 21.8893C4.03575 21.8893 4.76378 21.2793 5.00621 20.4611H7.4128C7.72306 21.4869 8.32423 21.976 8.44991 22.5281C8.61471 23.2532 8.06217 24.4304 8.5277 25.3948C8.99601 26.3659 10.2741 26.6802 10.7219 27.2407C10.8656 27.421 10.9665 27.6924 11.0647 27.9826L8.98356 30.0636C8.23385 29.6563 7.28727 29.7398 6.65416 30.3734C5.40758 31.6202 6.3026 33.7481 8.0525 33.7481C9.51998 33.7481 10.5007 32.2035 9.76051 30.8405L11.5029 29.0981C12.3181 30.6671 13.9536 30.0912 14.811 30.5049C15.4592 30.8177 16.0385 31.9898 17.1014 32.2312C17.8935 32.4114 18.6549 31.9917 19.363 31.772V34.818C18.5446 35.0601 17.9348 35.7885 17.9348 36.6842C17.9348 37.7745 18.8219 38.6618 19.9123 38.6618C21.0026 38.6618 21.8899 37.7745 21.8899 36.6842C21.8899 35.7885 21.2799 35.0601 20.4616 34.818V31.772C21.1801 31.9945 21.9325 32.4113 22.7235 32.2312C23.7836 31.9903 24.3706 30.8153 25.0136 30.5049C25.8816 30.086 27.502 30.6757 28.322 29.0981L28.8987 29.6754C29.1134 29.8897 29.4612 29.8897 29.6759 29.6754C29.8904 29.4606 29.8904 29.1127 29.6759 28.8981L28.76 27.9823C29.0197 27.2141 29.1181 27.1159 29.9362 26.6269C31.3919 25.7569 31.6298 25.219 31.4118 23.5841C31.2751 22.5577 31.3032 22.4603 31.8498 21.6316C32.0793 21.2839 32.2829 20.8867 32.4115 20.4611H34.8181C35.0607 21.2793 35.789 21.8893 36.6848 21.8893C37.7751 21.8893 38.6623 21.002 38.6623 19.9117C38.6623 18.8213 37.7751 17.9342 36.6848 17.9342ZM34.1584 4.45779C35.2318 4.45779 35.7681 5.76399 35.0127 6.51956C34.5404 6.99138 33.7766 6.99153 33.3044 6.51956C32.5485 5.7637 33.0854 4.45779 34.1584 4.45779ZM19.0334 3.13928C19.0334 2.65457 19.4276 2.26038 19.9123 2.26038C20.3972 2.26038 20.7912 2.65457 20.7912 3.13928C20.7912 3.62415 20.3972 4.01819 19.9123 4.01819C19.4276 4.01819 19.0334 3.62415 19.0334 3.13928ZM5.45475 7.34295C4.93385 6.82219 4.93385 5.97478 5.45475 5.45374C5.97535 4.93328 6.82276 4.93328 7.34352 5.45374C7.86441 5.97478 7.86441 6.82219 7.34352 7.34295C6.82276 7.86384 5.97535 7.86355 5.45475 7.34295ZM3.13985 20.7907C2.65514 20.7907 2.26095 20.3966 2.26095 19.9117C2.26095 19.427 2.65514 19.0328 3.13985 19.0328C3.62472 19.0328 4.01876 19.427 4.01876 19.9117C4.01876 20.3966 3.62472 20.7907 3.13985 20.7907ZM8.67403 32.3931C8.33097 32.736 7.77345 32.736 7.43082 32.3931C6.87667 31.8389 7.27452 30.8932 8.05221 30.8932C8.8296 30.8932 9.22862 31.8385 8.67403 32.3931ZM20.7912 36.6842C20.7912 37.1691 20.3972 37.5631 19.9123 37.5631C19.4276 37.5631 19.0334 37.1691 19.0334 36.6842C19.0334 36.1995 19.4276 35.8053 19.9123 35.8053C20.3972 35.8053 20.7912 36.1995 20.7912 36.6842ZM36.6848 20.7907C36.2001 20.7907 35.8059 20.3966 35.8059 19.9117C35.8059 19.427 36.2001 19.0328 36.6848 19.0328C37.1696 19.0328 37.5637 19.427 37.5637 19.9117C37.5637 20.3966 37.1696 20.7907 36.6848 20.7907Z" fill="#067D7B"/>
        <path d="M36.6848 17.9342C35.789 17.9342 35.0607 18.544 34.8186 19.3624H32.4118C32.1014 18.3367 31.5003 17.8472 31.3749 17.2952C31.2099 16.57 31.7625 15.3934 31.2968 14.4285C30.8288 13.4578 29.5506 13.1431 29.103 12.5827C28.9592 12.4025 28.8581 12.1312 28.76 11.8409L32.9929 7.60808C33.3474 7.82122 33.7341 7.97195 34.1584 7.97195C34.7746 7.97195 35.3535 7.73201 35.7893 7.29622C36.6884 6.39724 36.6884 4.93386 35.7893 4.0346C34.8882 3.13357 33.4292 3.13342 32.5278 4.0346C31.7661 4.79617 31.6897 5.94402 32.2179 6.82937L28.322 10.7253C27.9838 10.0746 27.5556 9.71614 26.5828 9.57551C26.2823 9.53216 26.004 9.74031 25.9604 10.0405C25.917 10.3407 26.1252 10.6192 26.4259 10.6629C27.2055 10.7757 27.3216 10.9913 27.6408 11.9691C28.0423 13.1988 28.2707 13.4812 29.373 14.1398C30.4359 14.7753 30.4826 14.8955 30.323 16.0945C30.1494 17.3976 30.2414 17.7489 30.9331 18.7967C31.6179 19.8357 31.6179 19.9882 30.9331 21.0266C30.239 22.079 30.1503 22.4308 30.323 23.7293C30.4829 24.9303 30.4337 25.0497 29.3724 25.684C28.2709 26.3421 28.0423 26.6245 27.6408 27.8549C27.2592 29.0235 27.156 29.1009 25.9419 29.2135C24.6498 29.333 24.324 29.4945 23.4435 30.4151C22.5857 31.3119 22.4563 31.3309 21.331 30.9108C20.8787 30.7422 20.4114 30.568 19.9125 30.568C18.9318 30.568 17.9402 31.2951 17.3447 31.1598C17.0244 31.0872 16.7124 30.7607 16.3818 30.4151C15.5036 29.497 15.1798 29.3336 13.8832 29.2132C12.6687 29.1009 12.5654 29.0231 12.1841 27.8544C11.7821 26.6244 11.5541 26.3421 10.4521 25.6837C9.38932 25.0484 9.3423 24.9285 9.50182 23.7291C9.67467 22.4322 9.58619 22.0793 8.89186 21.0266C8.20704 19.9882 8.20704 19.8353 8.89186 18.7966C9.58605 17.7445 9.67482 17.3922 9.50182 16.0941C9.3423 14.8948 9.38932 14.7747 10.4524 14.1395C10.8586 13.8968 11.2787 13.6459 11.5806 13.2677C11.8839 12.8875 12.0366 12.4205 12.1841 11.9686C12.3313 11.5182 12.4702 11.0927 12.7207 10.8927C12.9682 10.6947 13.4125 10.6536 13.8832 10.61C15.1768 10.49 15.5018 10.3284 16.3818 9.40838C17.2378 8.51321 17.366 8.49153 18.4941 8.91253C19.7223 9.37088 20.1023 9.37088 21.331 8.91253C22.7157 8.39588 22.6195 8.62439 23.7644 9.73518C23.9818 9.94612 24.3297 9.94129 24.5408 9.72332C24.7523 9.50564 24.7472 9.15774 24.5291 8.94636C24.4331 8.85364 24.3385 8.75403 24.2373 8.64871C23.0458 7.40359 22.462 7.31819 20.9468 7.88347C20.7792 7.94573 20.6181 8.0033 20.4618 8.05164V5.00564C21.2799 4.76321 21.8899 4.03518 21.8899 3.13928C21.8899 2.04885 21.0026 1.16174 19.9123 1.16174C18.8219 1.16174 17.9348 2.04885 17.9348 3.13928C17.9348 4.03518 18.5446 4.76321 19.363 5.00564V8.05164C19.207 8.0033 19.0459 7.94573 18.8778 7.88347C17.3631 7.31819 16.779 7.40344 15.5875 8.64885C15.3181 8.93054 15.0637 9.19656 14.811 9.31873C14.5491 9.445 14.1763 9.47942 13.7815 9.51604C12.6764 9.61858 12.0032 9.76199 11.5028 10.7253L8.43028 7.65276C9.00626 6.71526 8.93155 5.4886 8.12032 4.67708C7.1714 3.72786 5.62687 3.72786 4.67765 4.67708C2.71212 6.6429 5.10963 9.99212 7.65333 8.42971L11.0647 11.8409C10.8051 12.6083 10.7072 12.7074 9.88839 13.1965C8.43248 14.0666 8.19503 14.6043 8.41285 16.2394C8.46544 16.6343 8.5151 17.0077 8.44962 17.2952C8.32423 17.8472 7.72306 18.3366 7.4128 19.3624H5.00621C4.76378 18.544 4.03575 17.9342 3.13985 17.9342C2.04942 17.9342 1.16231 18.8213 1.16231 19.9117C1.16231 21.002 2.04942 21.8893 3.13985 21.8893C4.03575 21.8893 4.76378 21.2793 5.00621 20.4611H7.4128C7.72306 21.4869 8.32423 21.976 8.44991 22.5281C8.61471 23.2532 8.06217 24.4304 8.5277 25.3948C8.99601 26.3659 10.2741 26.6802 10.7219 27.2407C10.8656 27.421 10.9665 27.6924 11.0647 27.9826L8.98356 30.0636C8.23385 29.6563 7.28727 29.7398 6.65416 30.3734C5.40758 31.6202 6.3026 33.7481 8.0525 33.7481C9.51998 33.7481 10.5007 32.2035 9.76051 30.8405L11.5029 29.0981C12.3181 30.6671 13.9536 30.0912 14.811 30.5049C15.4592 30.8177 16.0385 31.9898 17.1014 32.2312C17.8935 32.4114 18.6549 31.9917 19.363 31.772V34.818C18.5446 35.0601 17.9348 35.7885 17.9348 36.6842C17.9348 37.7745 18.8219 38.6618 19.9123 38.6618C21.0026 38.6618 21.8899 37.7745 21.8899 36.6842C21.8899 35.7885 21.2799 35.0601 20.4616 34.818V31.772C21.1801 31.9945 21.9325 32.4113 22.7235 32.2312C23.7836 31.9903 24.3706 30.8153 25.0136 30.5049C25.8816 30.086 27.502 30.6757 28.322 29.0981L28.8987 29.6754C29.1134 29.8897 29.4612 29.8897 29.6759 29.6754C29.8904 29.4606 29.8904 29.1127 29.6759 28.8981L28.76 27.9823C29.0197 27.2141 29.1181 27.1159 29.9362 26.6269C31.3919 25.7569 31.6298 25.219 31.4118 23.5841C31.2751 22.5577 31.3032 22.4603 31.8498 21.6316C32.0793 21.2839 32.2829 20.8867 32.4115 20.4611H34.8181C35.0607 21.2793 35.789 21.8893 36.6848 21.8893C37.7751 21.8893 38.6623 21.002 38.6623 19.9117C38.6623 18.8213 37.7751 17.9342 36.6848 17.9342ZM34.1584 4.45779C35.2318 4.45779 35.7681 5.76399 35.0127 6.51956C34.5404 6.99138 33.7766 6.99153 33.3044 6.51956C32.5485 5.7637 33.0854 4.45779 34.1584 4.45779ZM19.0334 3.13928C19.0334 2.65457 19.4276 2.26038 19.9123 2.26038C20.3972 2.26038 20.7912 2.65457 20.7912 3.13928C20.7912 3.62415 20.3972 4.01819 19.9123 4.01819C19.4276 4.01819 19.0334 3.62415 19.0334 3.13928ZM5.45475 7.34295C4.93385 6.82219 4.93385 5.97478 5.45475 5.45374C5.97535 4.93328 6.82276 4.93328 7.34352 5.45374C7.86441 5.97478 7.86441 6.82219 7.34352 7.34295C6.82276 7.86384 5.97535 7.86355 5.45475 7.34295ZM3.13985 20.7907C2.65514 20.7907 2.26095 20.3966 2.26095 19.9117C2.26095 19.427 2.65514 19.0328 3.13985 19.0328C3.62472 19.0328 4.01876 19.427 4.01876 19.9117C4.01876 20.3966 3.62472 20.7907 3.13985 20.7907ZM8.67403 32.3931C8.33097 32.736 7.77345 32.736 7.43082 32.3931C6.87667 31.8389 7.27452 30.8932 8.05221 30.8932C8.8296 30.8932 9.22862 31.8385 8.67403 32.3931ZM20.7912 36.6842C20.7912 37.1691 20.3972 37.5631 19.9123 37.5631C19.4276 37.5631 19.0334 37.1691 19.0334 36.6842C19.0334 36.1995 19.4276 35.8053 19.9123 35.8053C20.3972 35.8053 20.7912 36.1995 20.7912 36.6842ZM36.6848 20.7907C36.2001 20.7907 35.8059 20.3966 35.8059 19.9117C35.8059 19.427 36.2001 19.0328 36.6848 19.0328C37.1696 19.0328 37.5637 19.427 37.5637 19.9117C37.5637 20.3966 37.1696 20.7907 36.6848 20.7907Z" stroke="#067D7B" stroke-width="0.6" mask="url(#path-4-outside-1_383_1519)"/>
        <path d="M31.3647 30.3758L31.3649 30.376L32.2212 31.2325C33.1787 30.7073 34.3945 30.8065 35.2116 31.6238C36.2031 32.6154 36.2031 34.2205 35.2116 35.212L31.3647 30.3758ZM31.3647 30.3758C31.0912 30.1032 30.6488 30.1031 30.3756 30.3759L30.3755 30.376M31.3647 30.3758L30.3755 30.376M30.3755 30.376C30.1023 30.6492 30.1024 31.0921 30.3755 31.3654L30.3756 31.3654M30.3755 30.376L30.3756 31.3654M30.3756 31.3654L31.2321 32.2216M30.3756 31.3654L31.2321 32.2216M31.2321 32.2216C30.7068 33.1791 30.806 34.3949 31.6233 35.2121C32.6148 36.2036 34.22 36.2039 35.2116 35.2121L31.2321 32.2216ZM34.2227 34.2231L34.2227 34.2231C33.7777 34.6681 33.0578 34.6682 32.6124 34.2231C32.1687 33.7793 32.1687 33.0567 32.6124 32.6128C33.0562 32.1691 33.7786 32.1691 34.2227 32.6128C34.6677 33.0579 34.6678 33.7781 34.2227 34.2231Z" fill="#067D7B" stroke="#067D7B" stroke-width="0.3"/>
    </g>
    <defs>
        <clipPath id="clip0_383_1519">
            <rect width="40" height="40" fill="white"/>
        </clipPath>
    </defs>
</svg>