<svg width="40" height="40" viewBox="0 0 40 40" fill="none" xmlns="http://www.w3.org/2000/svg">
    <g clip-path="url(#clip0_383_1482)">
        <mask id="path-1-outside-1_383_1482" maskUnits="userSpaceOnUse" x="1.03125" y="-1" width="38" height="42" fill="black">
            <rect fill="white" x="1.03125" y="-1" width="38" height="42"/>
            <path d="M36.9627 23.3502C37.6333 22.3438 37.9688 21.088 37.9688 20C37.9688 18.3597 37.2401 16.8357 35.9897 15.8023C36.2664 15.141 36.4062 14.4533 36.4062 13.75C36.4062 11.5738 35.1362 9.54664 33.248 8.6C33.5345 6.22391 31.9862 4.04594 29.6918 3.49039C28.7937 1.41437 26.7949 0 24.6875 0C22.7258 0 20.9663 1.14422 20 2.81375C19.0336 1.14422 17.2741 0 15.3125 0C13.2049 0 11.2061 1.41438 10.3082 3.49047C8 4.04953 6.46625 6.23836 6.75195 8.6C4.86383 9.54656 3.59375 11.5738 3.59375 13.75C3.59375 14.4533 3.73359 15.141 4.01031 15.8023C2.75992 16.8358 2.03125 18.3597 2.03125 20C2.03125 21.0938 2.36953 22.3478 3.03727 23.3501C2.38477 24.2712 2.03125 25.3628 2.03125 26.4844C2.03125 27.9387 2.62094 29.3242 3.66398 30.353C3.12773 33.5945 5.71289 36.875 9.0625 36.875C9.08672 36.875 9.11055 36.8746 9.13391 36.8739C10.2445 38.7897 12.3059 40 14.5312 40C16.8506 40 18.9231 38.6078 20 36.602C21.0769 38.6078 23.1494 40 25.4688 40C27.6941 40 29.7555 38.7897 30.8661 36.8739C30.8895 36.8746 30.9133 36.875 30.9375 36.875C33.9019 36.875 36.4062 34.2633 36.4062 31.1719C36.4062 30.9087 36.3831 30.638 36.336 30.353C37.3791 29.3242 37.9688 27.9388 37.9688 26.4844C37.9688 25.3628 37.6152 24.2712 36.9627 23.3502ZM19.2188 11.8266C18.7588 11.5598 18.2252 11.4062 17.6562 11.4062C17.2248 11.4062 16.875 11.756 16.875 12.1875C16.875 12.619 17.2248 12.9688 17.6562 12.9688C18.5178 12.9688 19.2188 13.6697 19.2188 14.5312V29.3882C18.0726 28.0881 16.3966 27.2656 14.5312 27.2656C14.0998 27.2656 13.75 27.6154 13.75 28.0469C13.75 28.4784 14.0998 28.8281 14.5312 28.8281C17.1159 28.8281 19.2188 30.9309 19.2188 33.5156C19.2188 36.1835 17.0721 38.4375 14.5312 38.4375C12.7225 38.4375 11.0574 37.3679 10.2891 35.7125C10.1475 35.4074 9.82672 35.2275 9.49227 35.2652C9.43703 35.2715 9.38211 35.2788 9.32719 35.2863C7.10375 35.5904 4.59984 33.0727 5.27766 30.2561C5.34727 29.9668 5.24648 29.6632 5.01781 29.4729C4.11281 28.7198 3.59375 27.6305 3.59375 26.4844C3.59375 25.7757 3.79414 25.0822 4.16703 24.4741C5.10406 25.242 6.26961 25.7031 7.5 25.7031C7.93148 25.7031 8.28125 25.3534 8.28125 24.9219C8.28125 24.4904 7.93148 24.1406 7.5 24.1406C5.37977 24.1406 3.59375 22.2055 3.59375 20C3.59375 18.6621 4.2757 17.4313 5.41812 16.7077C5.77008 16.4847 5.88516 16.0248 5.67961 15.6623C5.33234 15.0499 5.15625 14.4065 5.15625 13.75C5.15625 11.6414 6.87516 9.60938 9.0625 9.60938C11.1434 9.60938 12.9688 11.5443 12.9688 13.75C12.9688 14.1815 13.3185 14.5312 13.75 14.5312C14.1815 14.5312 14.5312 14.1815 14.5312 13.75C14.5312 10.6586 12.0269 8.04688 9.0625 8.04688C8.80094 8.04688 8.54078 8.06805 8.2832 8.10812C8.28281 8.08758 8.28125 8.06758 8.28125 8.04688C8.28125 6.30336 9.69664 4.92188 11.4062 4.92188C12.2408 4.92188 13.0258 5.24695 13.6166 5.83711C13.9218 6.14203 14.4164 6.14172 14.7214 5.83656C15.0263 5.53125 15.0261 5.03664 14.7209 4.73172C14.0081 4.01977 13.1066 3.5657 12.1297 3.41523C12.8187 2.3925 13.9644 1.5625 15.3125 1.5625C17.3934 1.5625 19.2188 3.49734 19.2188 5.70312V11.8266ZM32.5 25.7031C33.7305 25.7031 34.896 25.242 35.833 24.4743C36.2059 25.0823 36.4062 25.7758 36.4062 26.4844C36.4062 27.6305 35.8872 28.7198 34.9823 29.4729C34.7535 29.6632 34.6528 29.9669 34.7224 30.2561C34.8052 30.6001 34.8438 30.8911 34.8438 31.1718C34.8438 33.5968 32.6504 35.5566 30.6729 35.2863C30.618 35.2788 30.563 35.2714 30.5077 35.2652C30.1728 35.2273 29.8524 35.4074 29.7109 35.7125C28.9427 37.3679 27.2774 38.4375 25.4688 38.4375C22.9279 38.4375 20.7812 36.1835 20.7812 33.5156C20.7812 30.9309 22.8841 28.8281 25.4688 28.8281C25.9002 28.8281 26.25 28.4784 26.25 28.0469C26.25 27.6154 25.9002 27.2656 25.4688 27.2656C23.6034 27.2656 21.9274 28.0881 20.7812 29.3882V14.5312C20.7812 13.6697 21.4822 12.9688 22.3438 12.9688C22.7752 12.9688 23.125 12.619 23.125 12.1875C23.125 11.756 22.7752 11.4062 22.3438 11.4062C21.7748 11.4062 21.2412 11.5598 20.7812 11.8266V5.70312C20.7812 3.49734 22.6066 1.5625 24.6875 1.5625C26.0356 1.5625 27.1813 2.3925 27.8702 3.41516C26.8934 3.56562 25.992 4.01969 25.2791 4.73164C24.9738 5.03656 24.9735 5.53117 25.2784 5.83648C25.5834 6.1418 26.0781 6.14203 26.3833 5.83711C26.9743 5.24695 27.7592 4.92188 28.5938 4.92188C30.312 4.92188 31.7188 6.31148 31.7188 8.04688C31.7188 8.0675 31.7172 8.08758 31.7168 8.10812C31.4592 8.06805 31.1991 8.04688 30.9375 8.04688C27.9731 8.04688 25.4688 10.6586 25.4688 13.75C25.4688 14.1815 25.8186 14.5312 26.25 14.5312C26.6814 14.5312 27.0312 14.1815 27.0312 13.75C27.0312 11.5443 28.8566 9.60938 30.9375 9.60938C33.1236 9.60938 34.8438 11.6404 34.8438 13.75C34.8438 14.4065 34.6677 15.0499 34.3204 15.6623C34.1149 16.0248 34.23 16.4847 34.582 16.7077C35.7243 17.4313 36.4062 18.6621 36.4062 20C36.4062 22.2134 34.614 24.1406 32.5 24.1406C32.0686 24.1406 31.7188 24.4904 31.7188 24.9219C31.7188 25.3534 32.0686 25.7031 32.5 25.7031Z"/>
        </mask>
        <path d="M36.9627 23.3502C37.6333 22.3438 37.9688 21.088 37.9688 20C37.9688 18.3597 37.2401 16.8357 35.9897 15.8023C36.2664 15.141 36.4062 14.4533 36.4062 13.75C36.4062 11.5738 35.1362 9.54664 33.248 8.6C33.5345 6.22391 31.9862 4.04594 29.6918 3.49039C28.7937 1.41437 26.7949 0 24.6875 0C22.7258 0 20.9663 1.14422 20 2.81375C19.0336 1.14422 17.2741 0 15.3125 0C13.2049 0 11.2061 1.41438 10.3082 3.49047C8 4.04953 6.46625 6.23836 6.75195 8.6C4.86383 9.54656 3.59375 11.5738 3.59375 13.75C3.59375 14.4533 3.73359 15.141 4.01031 15.8023C2.75992 16.8358 2.03125 18.3597 2.03125 20C2.03125 21.0938 2.36953 22.3478 3.03727 23.3501C2.38477 24.2712 2.03125 25.3628 2.03125 26.4844C2.03125 27.9387 2.62094 29.3242 3.66398 30.353C3.12773 33.5945 5.71289 36.875 9.0625 36.875C9.08672 36.875 9.11055 36.8746 9.13391 36.8739C10.2445 38.7897 12.3059 40 14.5312 40C16.8506 40 18.9231 38.6078 20 36.602C21.0769 38.6078 23.1494 40 25.4688 40C27.6941 40 29.7555 38.7897 30.8661 36.8739C30.8895 36.8746 30.9133 36.875 30.9375 36.875C33.9019 36.875 36.4062 34.2633 36.4062 31.1719C36.4062 30.9087 36.3831 30.638 36.336 30.353C37.3791 29.3242 37.9688 27.9388 37.9688 26.4844C37.9688 25.3628 37.6152 24.2712 36.9627 23.3502ZM19.2188 11.8266C18.7588 11.5598 18.2252 11.4062 17.6562 11.4062C17.2248 11.4062 16.875 11.756 16.875 12.1875C16.875 12.619 17.2248 12.9688 17.6562 12.9688C18.5178 12.9688 19.2188 13.6697 19.2188 14.5312V29.3882C18.0726 28.0881 16.3966 27.2656 14.5312 27.2656C14.0998 27.2656 13.75 27.6154 13.75 28.0469C13.75 28.4784 14.0998 28.8281 14.5312 28.8281C17.1159 28.8281 19.2188 30.9309 19.2188 33.5156C19.2188 36.1835 17.0721 38.4375 14.5312 38.4375C12.7225 38.4375 11.0574 37.3679 10.2891 35.7125C10.1475 35.4074 9.82672 35.2275 9.49227 35.2652C9.43703 35.2715 9.38211 35.2788 9.32719 35.2863C7.10375 35.5904 4.59984 33.0727 5.27766 30.2561C5.34727 29.9668 5.24648 29.6632 5.01781 29.4729C4.11281 28.7198 3.59375 27.6305 3.59375 26.4844C3.59375 25.7757 3.79414 25.0822 4.16703 24.4741C5.10406 25.242 6.26961 25.7031 7.5 25.7031C7.93148 25.7031 8.28125 25.3534 8.28125 24.9219C8.28125 24.4904 7.93148 24.1406 7.5 24.1406C5.37977 24.1406 3.59375 22.2055 3.59375 20C3.59375 18.6621 4.2757 17.4313 5.41812 16.7077C5.77008 16.4847 5.88516 16.0248 5.67961 15.6623C5.33234 15.0499 5.15625 14.4065 5.15625 13.75C5.15625 11.6414 6.87516 9.60938 9.0625 9.60938C11.1434 9.60938 12.9688 11.5443 12.9688 13.75C12.9688 14.1815 13.3185 14.5312 13.75 14.5312C14.1815 14.5312 14.5312 14.1815 14.5312 13.75C14.5312 10.6586 12.0269 8.04688 9.0625 8.04688C8.80094 8.04688 8.54078 8.06805 8.2832 8.10812C8.28281 8.08758 8.28125 8.06758 8.28125 8.04688C8.28125 6.30336 9.69664 4.92188 11.4062 4.92188C12.2408 4.92188 13.0258 5.24695 13.6166 5.83711C13.9218 6.14203 14.4164 6.14172 14.7214 5.83656C15.0263 5.53125 15.0261 5.03664 14.7209 4.73172C14.0081 4.01977 13.1066 3.5657 12.1297 3.41523C12.8187 2.3925 13.9644 1.5625 15.3125 1.5625C17.3934 1.5625 19.2188 3.49734 19.2188 5.70312V11.8266ZM32.5 25.7031C33.7305 25.7031 34.896 25.242 35.833 24.4743C36.2059 25.0823 36.4062 25.7758 36.4062 26.4844C36.4062 27.6305 35.8872 28.7198 34.9823 29.4729C34.7535 29.6632 34.6528 29.9669 34.7224 30.2561C34.8052 30.6001 34.8438 30.8911 34.8438 31.1718C34.8438 33.5968 32.6504 35.5566 30.6729 35.2863C30.618 35.2788 30.563 35.2714 30.5077 35.2652C30.1728 35.2273 29.8524 35.4074 29.7109 35.7125C28.9427 37.3679 27.2774 38.4375 25.4688 38.4375C22.9279 38.4375 20.7812 36.1835 20.7812 33.5156C20.7812 30.9309 22.8841 28.8281 25.4688 28.8281C25.9002 28.8281 26.25 28.4784 26.25 28.0469C26.25 27.6154 25.9002 27.2656 25.4688 27.2656C23.6034 27.2656 21.9274 28.0881 20.7812 29.3882V14.5312C20.7812 13.6697 21.4822 12.9688 22.3438 12.9688C22.7752 12.9688 23.125 12.619 23.125 12.1875C23.125 11.756 22.7752 11.4062 22.3438 11.4062C21.7748 11.4062 21.2412 11.5598 20.7812 11.8266V5.70312C20.7812 3.49734 22.6066 1.5625 24.6875 1.5625C26.0356 1.5625 27.1813 2.3925 27.8702 3.41516C26.8934 3.56562 25.992 4.01969 25.2791 4.73164C24.9738 5.03656 24.9735 5.53117 25.2784 5.83648C25.5834 6.1418 26.0781 6.14203 26.3833 5.83711C26.9743 5.24695 27.7592 4.92188 28.5938 4.92188C30.312 4.92188 31.7188 6.31148 31.7188 8.04688C31.7188 8.0675 31.7172 8.08758 31.7168 8.10812C31.4592 8.06805 31.1991 8.04688 30.9375 8.04688C27.9731 8.04688 25.4688 10.6586 25.4688 13.75C25.4688 14.1815 25.8186 14.5312 26.25 14.5312C26.6814 14.5312 27.0312 14.1815 27.0312 13.75C27.0312 11.5443 28.8566 9.60938 30.9375 9.60938C33.1236 9.60938 34.8438 11.6404 34.8438 13.75C34.8438 14.4065 34.6677 15.0499 34.3204 15.6623C34.1149 16.0248 34.23 16.4847 34.582 16.7077C35.7243 17.4313 36.4062 18.6621 36.4062 20C36.4062 22.2134 34.614 24.1406 32.5 24.1406C32.0686 24.1406 31.7188 24.4904 31.7188 24.9219C31.7188 25.3534 32.0686 25.7031 32.5 25.7031Z" fill="#067D7B"/>
        <path d="M36.9627 23.3502C37.6333 22.3438 37.9688 21.088 37.9688 20C37.9688 18.3597 37.2401 16.8357 35.9897 15.8023C36.2664 15.141 36.4062 14.4533 36.4062 13.75C36.4062 11.5738 35.1362 9.54664 33.248 8.6C33.5345 6.22391 31.9862 4.04594 29.6918 3.49039C28.7937 1.41437 26.7949 0 24.6875 0C22.7258 0 20.9663 1.14422 20 2.81375C19.0336 1.14422 17.2741 0 15.3125 0C13.2049 0 11.2061 1.41438 10.3082 3.49047C8 4.04953 6.46625 6.23836 6.75195 8.6C4.86383 9.54656 3.59375 11.5738 3.59375 13.75C3.59375 14.4533 3.73359 15.141 4.01031 15.8023C2.75992 16.8358 2.03125 18.3597 2.03125 20C2.03125 21.0938 2.36953 22.3478 3.03727 23.3501C2.38477 24.2712 2.03125 25.3628 2.03125 26.4844C2.03125 27.9387 2.62094 29.3242 3.66398 30.353C3.12773 33.5945 5.71289 36.875 9.0625 36.875C9.08672 36.875 9.11055 36.8746 9.13391 36.8739C10.2445 38.7897 12.3059 40 14.5312 40C16.8506 40 18.9231 38.6078 20 36.602C21.0769 38.6078 23.1494 40 25.4688 40C27.6941 40 29.7555 38.7897 30.8661 36.8739C30.8895 36.8746 30.9133 36.875 30.9375 36.875C33.9019 36.875 36.4062 34.2633 36.4062 31.1719C36.4062 30.9087 36.3831 30.638 36.336 30.353C37.3791 29.3242 37.9688 27.9388 37.9688 26.4844C37.9688 25.3628 37.6152 24.2712 36.9627 23.3502ZM19.2188 11.8266C18.7588 11.5598 18.2252 11.4062 17.6562 11.4062C17.2248 11.4062 16.875 11.756 16.875 12.1875C16.875 12.619 17.2248 12.9688 17.6562 12.9688C18.5178 12.9688 19.2188 13.6697 19.2188 14.5312V29.3882C18.0726 28.0881 16.3966 27.2656 14.5312 27.2656C14.0998 27.2656 13.75 27.6154 13.75 28.0469C13.75 28.4784 14.0998 28.8281 14.5312 28.8281C17.1159 28.8281 19.2188 30.9309 19.2188 33.5156C19.2188 36.1835 17.0721 38.4375 14.5312 38.4375C12.7225 38.4375 11.0574 37.3679 10.2891 35.7125C10.1475 35.4074 9.82672 35.2275 9.49227 35.2652C9.43703 35.2715 9.38211 35.2788 9.32719 35.2863C7.10375 35.5904 4.59984 33.0727 5.27766 30.2561C5.34727 29.9668 5.24648 29.6632 5.01781 29.4729C4.11281 28.7198 3.59375 27.6305 3.59375 26.4844C3.59375 25.7757 3.79414 25.0822 4.16703 24.4741C5.10406 25.242 6.26961 25.7031 7.5 25.7031C7.93148 25.7031 8.28125 25.3534 8.28125 24.9219C8.28125 24.4904 7.93148 24.1406 7.5 24.1406C5.37977 24.1406 3.59375 22.2055 3.59375 20C3.59375 18.6621 4.2757 17.4313 5.41812 16.7077C5.77008 16.4847 5.88516 16.0248 5.67961 15.6623C5.33234 15.0499 5.15625 14.4065 5.15625 13.75C5.15625 11.6414 6.87516 9.60938 9.0625 9.60938C11.1434 9.60938 12.9688 11.5443 12.9688 13.75C12.9688 14.1815 13.3185 14.5312 13.75 14.5312C14.1815 14.5312 14.5312 14.1815 14.5312 13.75C14.5312 10.6586 12.0269 8.04688 9.0625 8.04688C8.80094 8.04688 8.54078 8.06805 8.2832 8.10812C8.28281 8.08758 8.28125 8.06758 8.28125 8.04688C8.28125 6.30336 9.69664 4.92188 11.4062 4.92188C12.2408 4.92188 13.0258 5.24695 13.6166 5.83711C13.9218 6.14203 14.4164 6.14172 14.7214 5.83656C15.0263 5.53125 15.0261 5.03664 14.7209 4.73172C14.0081 4.01977 13.1066 3.5657 12.1297 3.41523C12.8187 2.3925 13.9644 1.5625 15.3125 1.5625C17.3934 1.5625 19.2188 3.49734 19.2188 5.70312V11.8266ZM32.5 25.7031C33.7305 25.7031 34.896 25.242 35.833 24.4743C36.2059 25.0823 36.4062 25.7758 36.4062 26.4844C36.4062 27.6305 35.8872 28.7198 34.9823 29.4729C34.7535 29.6632 34.6528 29.9669 34.7224 30.2561C34.8052 30.6001 34.8438 30.8911 34.8438 31.1718C34.8438 33.5968 32.6504 35.5566 30.6729 35.2863C30.618 35.2788 30.563 35.2714 30.5077 35.2652C30.1728 35.2273 29.8524 35.4074 29.7109 35.7125C28.9427 37.3679 27.2774 38.4375 25.4688 38.4375C22.9279 38.4375 20.7812 36.1835 20.7812 33.5156C20.7812 30.9309 22.8841 28.8281 25.4688 28.8281C25.9002 28.8281 26.25 28.4784 26.25 28.0469C26.25 27.6154 25.9002 27.2656 25.4688 27.2656C23.6034 27.2656 21.9274 28.0881 20.7812 29.3882V14.5312C20.7812 13.6697 21.4822 12.9688 22.3438 12.9688C22.7752 12.9688 23.125 12.619 23.125 12.1875C23.125 11.756 22.7752 11.4062 22.3438 11.4062C21.7748 11.4062 21.2412 11.5598 20.7812 11.8266V5.70312C20.7812 3.49734 22.6066 1.5625 24.6875 1.5625C26.0356 1.5625 27.1813 2.3925 27.8702 3.41516C26.8934 3.56562 25.992 4.01969 25.2791 4.73164C24.9738 5.03656 24.9735 5.53117 25.2784 5.83648C25.5834 6.1418 26.0781 6.14203 26.3833 5.83711C26.9743 5.24695 27.7592 4.92188 28.5938 4.92188C30.312 4.92188 31.7188 6.31148 31.7188 8.04688C31.7188 8.0675 31.7172 8.08758 31.7168 8.10812C31.4592 8.06805 31.1991 8.04688 30.9375 8.04688C27.9731 8.04688 25.4688 10.6586 25.4688 13.75C25.4688 14.1815 25.8186 14.5312 26.25 14.5312C26.6814 14.5312 27.0312 14.1815 27.0312 13.75C27.0312 11.5443 28.8566 9.60938 30.9375 9.60938C33.1236 9.60938 34.8438 11.6404 34.8438 13.75C34.8438 14.4065 34.6677 15.0499 34.3204 15.6623C34.1149 16.0248 34.23 16.4847 34.582 16.7077C35.7243 17.4313 36.4062 18.6621 36.4062 20C36.4062 22.2134 34.614 24.1406 32.5 24.1406C32.0686 24.1406 31.7188 24.4904 31.7188 24.9219C31.7188 25.3534 32.0686 25.7031 32.5 25.7031Z" stroke="#067D7B" stroke-width="0.4" mask="url(#path-1-outside-1_383_1482)"/>
        <path d="M16.2875 16.5869L16.2875 16.587C13.8466 18.7703 9.94375 17.0251 9.94375 13.75C9.94375 13.2633 9.54921 12.8687 9.0625 12.8687C8.57579 12.8687 8.18125 13.2633 8.18125 13.75C8.18125 16.4712 10.1432 18.7413 12.7265 19.2233C12.4073 20.0742 11.5855 20.6813 10.625 20.6813C10.1383 20.6813 9.74375 21.0758 9.74375 21.5625C9.74375 22.0492 10.1383 22.4438 10.625 22.4438C12.552 22.4438 14.1642 21.0763 14.5452 19.2611C15.625 19.1057 16.6398 18.6366 17.4625 17.9005C17.8253 17.5761 17.8563 17.0189 17.5318 16.6562C17.2073 16.2935 16.6503 16.2625 16.2875 16.5869Z" fill="#067D7B" stroke="#067D7B" stroke-width="0.2"/>
        <path d="M9.10813 27.6544L9.10812 27.6544C8.86816 28.0779 9.01681 28.6157 9.44018 28.8557L9.44019 28.8557C9.86361 29.0956 10.4014 28.9471 10.6414 28.5236L10.6414 28.5236C11.5569 26.9085 13.2937 25.8031 15.3123 25.8031C15.799 25.8031 16.1936 25.4086 16.1936 24.9219C16.1936 24.4352 15.799 24.0406 15.3123 24.0406C12.6272 24.0406 10.3219 25.5135 9.10813 27.6544Z" fill="#067D7B" stroke="#067D7B" stroke-width="0.2"/>
        <path d="M27.2731 19.2233C27.5924 20.0742 28.4142 20.6813 29.3747 20.6813C29.8613 20.6813 30.2559 21.0758 30.2559 21.5625C30.2559 22.0492 29.8613 22.4438 29.3747 22.4438C27.4477 22.4438 25.8355 21.0763 25.4545 19.2611C24.3748 19.1057 23.3599 18.6366 22.5371 17.9005C22.1744 17.5761 22.1433 17.019 22.4679 16.6562L27.2731 19.2233ZM27.2731 19.2233C29.8564 18.7413 31.8184 16.4712 31.8184 13.75C31.8184 13.2633 31.4238 12.8687 30.9372 12.8687C30.4505 12.8687 30.0559 13.2633 30.0559 13.75C30.0559 15.8487 28.3483 17.5563 26.2497 17.5563C25.3121 17.5563 24.4111 17.212 23.7122 16.587C23.3496 16.2625 22.7924 16.2934 22.4679 16.6562L27.2731 19.2233Z" fill="#067D7B" stroke="#067D7B" stroke-width="0.2"/>
        <path d="M30.5595 28.8558C30.9829 28.6158 31.1316 28.078 30.8917 27.6545L30.8917 27.6545C29.6809 25.5186 27.3788 24.0406 24.6875 24.0406C24.2009 24.0406 23.8062 24.4352 23.8062 24.9219C23.8062 25.4086 24.2009 25.8031 24.6875 25.8031C26.7046 25.8031 28.4428 26.9082 29.3582 28.5236L29.3582 28.5236C29.5986 28.9476 30.1367 29.0954 30.5595 28.8558ZM30.5595 28.8558L30.5102 28.7688M30.5595 28.8558C30.5595 28.8557 30.5595 28.8557 30.5595 28.8557L30.5102 28.7688M30.5102 28.7688C30.1354 28.9813 29.6583 28.8502 29.4452 28.4743C28.5128 26.829 26.7423 25.7031 24.6875 25.7031C24.2561 25.7031 23.9062 25.3534 23.9062 24.9219C23.9062 24.4904 24.2561 24.1406 24.6875 24.1406C27.3409 24.1406 29.6108 25.5977 30.8047 27.7038C31.0173 28.0792 30.8855 28.556 30.5102 28.7688Z" fill="#067D7B" stroke="#067D7B" stroke-width="0.2"/>
    </g>
    <defs>
        <clipPath id="clip0_383_1482">
            <rect width="40" height="40" fill="white"/>
        </clipPath>
    </defs>
</svg>