<svg width="60" height="60" viewBox="0 0 60 60" fill="none" xmlns="http://www.w3.org/2000/svg">
    <path d="M49.0942 36.8521C51.8971 31.1987 51.5954 24.8696 51.5794 24.5693L51.4929 22.9681L49.9232 22.8799C49.6293 22.8635 43.432 22.5563 37.8921 25.4094C35.959 19.409 31.3818 15.1658 31.1373 14.9426L29.9664 13.8728L28.7954 14.9426C28.5509 15.1658 23.9737 19.409 22.0406 25.4094C16.5007 22.5563 10.3034 22.8635 10.0095 22.8799L8.44031 22.9681L8.35334 24.5693C8.33731 24.8696 8.03564 31.1996 10.8395 36.8539C5.05512 38.8418 1.149 43.5267 0.943458 43.7775L0 44.9266L0.943458 46.0763C1.20484 46.3947 7.44467 53.88 15.923 53.88C19.0756 53.88 21.9751 52.8424 24.3857 51.5256C26.4155 54.8111 28.7954 57.0044 28.7954 57.0044L29.9664 58.0742L31.1373 57.0044C31.2472 56.904 33.5168 54.8111 35.5465 51.5256C37.9571 52.842 40.8566 53.88 44.0093 53.88C52.4825 53.88 58.7782 46.4013 59.0419 46.0828L60 44.9266L59.0419 43.7705C58.8345 43.5202 54.8927 38.838 49.0942 36.8521ZM48.0523 26.4778C47.941 28.7005 47.4563 32.6906 45.5245 36.0531C45.0278 36.0017 44.5229 35.9733 44.0097 35.9733C41.5735 35.9733 39.2888 36.5938 37.2636 37.4829C38.1352 35.4171 38.7431 33.0866 38.7431 30.6014C38.7431 30.0794 38.7161 29.5639 38.6653 29.0563C41.9621 27.0857 45.8742 26.5912 48.0523 26.4778ZM29.9691 18.8337C31.8258 20.9247 35.2325 25.4617 35.2325 30.6019C35.2325 35.7197 31.8194 40.2725 29.9636 42.3696C28.1069 40.2786 24.7002 35.7417 24.7002 30.6019C24.7002 25.4841 28.1124 20.9317 29.9691 18.8337ZM11.8804 26.4778C14.0594 26.5912 17.9706 27.0857 21.2669 29.0563C21.2166 29.5639 21.1891 30.0794 21.1891 30.6014C21.1891 33.0866 21.797 35.4171 22.6686 37.4829C20.6435 36.5938 18.3592 35.9733 15.923 35.9733C15.4094 35.9733 14.9044 36.0013 14.4082 36.0531C12.476 32.6901 11.9912 28.6995 11.8804 26.4778ZM4.72095 44.9238C6.63259 43.0509 10.877 39.5548 15.923 39.5548C20.9401 39.5548 25.4024 43.0355 27.4596 44.9294C25.4093 46.8239 20.9621 50.2985 15.923 50.2985C10.9004 50.2985 6.639 46.7949 4.72095 44.9238ZM29.9645 53.1151C29.2362 52.2938 28.2685 51.0928 27.3585 49.62C28.4273 48.8308 29.3104 48.0632 29.9664 47.4477C30.6223 48.0632 31.5049 48.8308 32.5733 49.62C31.6656 51.0872 30.6947 52.2914 29.9645 53.1151ZM44.0097 50.2985C38.9921 50.2985 34.5289 46.8173 32.4731 44.9238C34.523 43.0299 38.9706 39.5548 44.0097 39.5548C49.0278 39.5548 53.3161 43.0504 55.2562 44.9266C53.3161 46.8033 49.0278 50.2985 44.0097 50.2985Z" fill="#067D7B"/>
    <path d="M32.4481 5.53229L29.9656 8.06458L27.4832 5.53229L29.9656 3L32.4481 5.53229Z" fill="#067D7B"/>
    <path d="M42.9811 12.6951L40.4986 15.2274L38.0162 12.6951L40.4986 10.1628L42.9811 12.6951Z" fill="#067D7B"/>
    <path d="M21.9165 12.6951L19.4341 15.2274L16.9516 12.6951L19.4341 10.1628L21.9165 12.6951Z" fill="#067D7B"/>
</svg>