<svg width="54" height="54" viewBox="0 0 54 54" fill="none" xmlns="http://www.w3.org/2000/svg">
    <path d="M-0.000488281 0H51.9995C53.1041 0 53.9995 0.895431 53.9995 2V52C53.9995 53.1046 53.1041 54 51.9995 54H-0.000488281V0Z" fill="#262626"/>
    <path fill-rule="evenodd" clip-rule="evenodd" d="M33.2079 17H37.9995V19H34.7811L32.0123 31.6776H31.9995V32H18.9995V31.7519L16.8063 22.091L16.4688 21H32.3443L32.9147 18.3885L33.2079 17ZM19.0127 23H31.9075L30.3787 30H20.6017L19.0127 23Z" fill="white"/>
    <path d="M28.9995 37C27.8949 37 26.9995 36.1046 26.9995 35C26.9995 33.8954 27.8949 33 28.9995 33C30.1041 33 30.9995 33.8954 30.9995 35C30.9995 36.1046 30.1041 37 28.9995 37Z" fill="white"/>
    <path d="M19.9995 35C19.9995 36.1046 20.8949 37 21.9995 37C23.1041 37 23.9995 36.1046 23.9995 35C23.9995 33.8954 23.1041 33 21.9995 33C20.8949 33 19.9995 33.8954 19.9995 35Z" fill="white"/>
</svg>
