<svg width="40" height="40" viewBox="0 0 40 40" fill="none" xmlns="http://www.w3.org/2000/svg">
    <path d="M31.6669 28.1668C33.6921 27.7555 35.4923 26.6064 36.718 24.9426C37.9437 23.2787 38.5074 21.2187 38.2997 19.1626C38.092 17.1065 37.1278 15.2009 35.5941 13.8157C34.0604 12.4306 32.0668 11.6647 30.0002 11.6668H27.9002C27.348 9.52898 26.2736 7.56176 24.7734 5.94176C23.2732 4.32175 21.3941 3.09966 19.3049 2.38522C17.2157 1.67077 14.9818 1.48633 12.8038 1.84846C10.6257 2.21059 8.57167 3.10794 6.82606 4.45996C5.08045 5.81198 3.69793 7.57634 2.80261 9.59463C1.90729 11.6129 1.5272 13.822 1.69647 16.0234C1.86574 18.2249 2.57907 20.3499 3.77242 22.2076C4.96576 24.0653 6.60177 25.5975 8.53355 26.6668" stroke="#067D7B" stroke-width="2" stroke-linecap="round" stroke-linejoin="round"/>
    <path d="M21.6667 18.3333L15 28.3333H25L18.3333 38.3333" stroke="#067D7B" stroke-width="2" stroke-linecap="round" stroke-linejoin="round"/>
</svg>