<svg width="24" height="24" viewBox="0 0 24 24" fill="none" xmlns="http://www.w3.org/2000/svg">
    <path d="M20.3848 2.73854C19.2132 1.56697 17.3137 1.56697 16.1422 2.73854L14.0203 4.86039L13.3131 4.15319C12.9226 3.76266 12.2894 3.76266 11.8989 4.15319C11.5084 4.54371 11.5084 5.17688 11.8989 5.5674L17.5557 11.2243C17.9463 11.6148 18.5794 11.6148 18.97 11.2243C19.3605 10.8337 19.3605 10.2006 18.97 9.81004L18.2629 9.10303L20.3848 6.98118C21.5564 5.80961 21.5564 3.91012 20.3848 2.73854Z" fill="#262626"/>
    <path fill-rule="evenodd" clip-rule="evenodd" d="M11.9297 6.95102L4.15156 14.7292C3.22792 15.6528 3.03245 17.0289 3.56516 18.144L2 19.7092L3.41421 21.1234L4.97937 19.5582C6.0945 20.0909 7.47056 19.8955 8.3942 18.9718L16.1724 11.1937L11.9297 6.95102ZM13.3439 11.1937L11.9297 9.77945L5.56577 16.1434C5.17525 16.5339 5.17525 17.1671 5.56577 17.5576C5.95629 17.9482 6.58946 17.9482 6.97998 17.5576L13.3439 11.1937Z" fill="#262626"/>
</svg>
