<svg width="40" height="40" viewBox="0 0 40 40" fill="none" xmlns="http://www.w3.org/2000/svg">
    <path d="M38.1754 1.82454C35.7427 -0.608182 31.7985 -0.608182 29.3657 1.82454L24.9598 6.23047L23.4913 4.762C22.6804 3.95109 21.3657 3.95109 20.5547 4.762C19.7438 5.57291 19.7438 6.88765 20.5547 7.69856L32.301 19.4448C33.1119 20.2557 34.4267 20.2557 35.2376 19.4448C36.0485 18.6339 36.0485 17.3192 35.2376 16.5082L33.7695 15.0402L38.1754 10.6342C40.6082 8.2015 40.6082 4.25727 38.1754 1.82454Z" fill="#067D7B"/>
    <path fill-rule="evenodd" clip-rule="evenodd" d="M20.6188 10.5716L4.46764 26.7227C2.54974 28.6406 2.14386 31.4979 3.25 33.8134L0 37.0634L2.93657 40L6.18657 36.75C8.5021 37.8561 11.3595 37.4503 13.2774 35.5324L29.4285 19.3813L20.6188 10.5716ZM23.5553 19.3813L20.6188 16.4447L7.40421 29.6592C6.5933 30.4702 6.5933 31.7849 7.40421 32.5958C8.21512 33.4067 9.52987 33.4067 10.3408 32.5958L23.5553 19.3813Z" fill="#067D7B"/>
</svg>