<svg width="162" height="40" viewBox="0 0 162 40" fill="none" xmlns="http://www.w3.org/2000/svg">
    <path d="M10.2338 34.867H4.14322V19.6614H0V14.6895H4.14322V11.1677C4.14322 6.98309 5.96624 4 12.0568 4C13.3412 4 15.3714 4.24858 15.3714 4.24858V8.84755H13.2583C11.1038 8.84755 10.2338 9.51047 10.2338 11.3335V14.6895H15.2885L14.8327 19.6614H10.2338V34.867ZM24.2379 14.2752C24.155 14.2752 24.0721 14.2752 23.9478 14.2752C18.2716 14.2752 15.7028 18.5427 15.7028 24.5918C15.7028 32.2153 19.0588 35.2399 23.9893 35.2399C26.8067 35.2399 28.6711 34.0383 29.7898 31.8424V34.867H35.5903V14.6895H29.7898V17.7969C28.9197 15.8082 27.0138 14.3166 24.2379 14.2752ZM25.7294 19.0399C28.0911 19.0399 29.5412 20.6972 29.5412 23.5146V26.4148C29.5412 28.3207 28.3811 30.558 25.7294 30.558C21.6691 30.558 21.7934 26.2077 21.7934 24.7161C21.7934 19.8271 23.9478 19.0399 25.7294 19.0399ZM37.9934 24.7575C37.9934 22.313 37.8691 14.2752 48.31 14.2752C52.4946 14.2752 54.2762 15.601 54.2762 15.601L52.8675 19.9514C52.8675 19.9514 51.1274 18.9984 48.8486 18.9984C45.9483 18.9984 44.0839 20.6972 44.0839 23.6803V25.8348C44.0839 28.6936 45.8655 30.5995 48.8486 30.5995C50.9202 30.5995 52.8261 29.6466 52.8261 29.6466L54.2348 33.914C54.2348 33.914 52.6189 35.2399 48.3514 35.2399C38.4077 35.2813 37.9934 28.0721 37.9934 24.7575ZM88.2921 14.3166C93.9683 14.3166 96.5785 18.5841 96.5785 24.6332C96.5785 32.2568 93.2225 35.2813 88.2921 35.2813C85.4747 35.2813 83.3616 34.0798 82.243 31.8839V34.9084H76.5253V4.66291L82.6159 4.12427V17.5897C83.4859 15.1452 86.3862 14.3166 88.2921 14.3166ZM86.5934 19.0399C84.2317 19.0399 82.6159 20.6972 82.6159 23.5146V26.4148C82.6159 28.3207 83.7345 30.558 86.5934 30.558C90.6537 30.558 90.5294 26.2077 90.5294 24.7161C90.5294 19.8271 88.3749 19.0399 86.5934 19.0399ZM64.8414 14.3166C58.4194 14.3166 55.022 17.7969 55.022 24.0532V25.2133C55.022 33.2926 59.7867 35.3642 65.4629 35.3642C70.9734 35.3642 73.4593 33.8312 73.4593 33.8312L72.3407 29.7294C72.3407 29.7294 69.399 30.9724 66.2087 30.9724C62.8941 30.9724 61.444 30.1437 61.0711 26.912H73.9565V23.5974C73.9565 16.844 70.1448 14.3166 64.8414 14.3166ZM64.9657 18.4184C67.2031 18.4184 68.6118 19.7857 68.5289 22.9345H61.0297C61.1954 19.6199 62.7698 18.4184 64.9657 18.4184ZM108.718 14.2752C102.13 14.2752 98.6501 18.0041 98.6501 24.6332C98.6501 33.7483 104.616 35.2399 108.718 35.2399C114.726 35.2399 118.703 32.0082 118.703 24.7161C118.703 17.134 114.229 14.2752 108.718 14.2752ZM108.635 19.0813C111.536 19.0813 112.696 21.2358 112.696 23.7217V25.8348C112.696 28.8179 111.08 30.558 108.635 30.558C106.357 30.558 104.741 28.9422 104.741 25.8348V23.7217C104.741 20.4072 106.647 19.0813 108.635 19.0813ZM130.843 14.2752C124.255 14.2752 120.775 18.0041 120.775 24.6332C120.775 33.7483 126.741 35.2399 130.843 35.2399C136.851 35.2399 140.828 32.0082 140.828 24.7161C140.828 17.134 136.353 14.2752 130.843 14.2752ZM130.76 19.0813C133.66 19.0813 134.82 21.2358 134.82 23.7217V25.8348C134.82 28.8179 133.205 30.558 130.76 30.558C128.481 30.558 126.865 28.9422 126.865 25.8348V23.7217C126.865 20.4072 128.771 19.0813 130.76 19.0813ZM143.148 34.867V4.62148L149.239 4.08284V24.3432L155.288 14.6895H161.751L155.454 24.7161L162 34.867H155.537L149.239 25.0061V34.867H143.148Z" fill="#1877F2"/>
</svg>