<svg width="162" height="40" viewBox="0 0 162 40" fill="none" xmlns="http://www.w3.org/2000/svg">
    <path d="M15.8619 14.2499V18.53H26.0775C25.7647 20.9311 24.9655 22.6884 23.7495 23.9237C22.2555 25.4201 19.9274 27.0556 15.8619 27.0556C9.57268 27.0556 4.6559 21.9752 4.6559 15.6767C4.6559 9.3783 9.57268 4.29767 15.8619 4.29767C19.2498 4.29767 21.7342 5.63742 23.5583 7.3598L26.564 4.34968C24.0275 1.87901 20.6222 0 15.8621 0C7.24472 0 0 7.02919 0 15.659C0 24.2892 7.24493 31.3184 15.8621 31.3184C20.5182 31.3184 24.0277 29.7869 26.7725 26.934C29.5872 24.1154 30.4731 20.1306 30.4731 16.9294C30.4731 15.9378 30.4035 15.0155 30.247 14.2499H15.8619Z" fill="#4285F4"/>
    <path d="M43.2423 10.77C37.6653 10.77 33.1134 15.0153 33.1134 20.8789C33.1134 26.6899 37.6653 30.9877 43.2423 30.9877C48.8193 30.9877 53.3709 26.7076 53.3709 20.8789C53.3709 15.0153 48.8191 10.77 43.2423 10.77ZM43.2423 27.0031C40.1845 27.0031 37.5439 24.4799 37.5439 20.8785C37.5439 17.2418 40.1845 14.7542 43.2423 14.7542C46.2999 14.7542 48.9407 17.2422 48.9407 20.8785C48.9407 24.4805 46.2999 27.0031 43.2423 27.0031Z" fill="#EA4335"/>
    <path d="M92.8958 13.0318H92.7396C91.7493 11.8489 89.8382 10.77 87.4235 10.77C82.3853 10.77 77.9899 15.1721 77.9899 20.8789C77.9899 26.551 82.3853 30.9877 87.4235 30.9877C89.8382 30.9877 91.7493 29.9088 92.7396 28.6906H92.8958V30.0999C92.8958 33.9626 90.8283 36.0331 87.51 36.0331C84.8 36.0331 83.1146 34.0845 82.4195 32.4317L78.5628 34.0323C79.6743 36.7116 82.6108 40 87.51 40C92.7048 40 97.1002 36.9382 97.1002 29.4738V11.2917H92.8958V13.0318ZM87.8053 27.0031C84.7481 27.0031 82.4195 24.3934 82.4195 20.8785C82.4195 17.3118 84.7475 14.7542 87.8053 14.7542C90.8287 14.7542 93.1915 17.364 93.1915 20.9136C93.2088 24.4456 90.8285 27.0031 87.8053 27.0031Z" fill="#4285F4"/>
    <path d="M65.8282 10.77C60.251 10.77 55.6994 15.0153 55.6994 20.8789C55.6994 26.6899 60.2512 30.9877 65.8282 30.9877C71.4049 30.9877 75.9567 26.7076 75.9567 20.8789C75.9571 15.0153 71.4053 10.77 65.8282 10.77ZM65.8282 27.0031C62.7704 27.0031 60.1295 24.4799 60.1295 20.8785C60.1295 17.2418 62.77 14.7542 65.8282 14.7542C68.8857 14.7542 71.5268 17.2422 71.5268 20.8785C71.5268 24.4805 68.8861 27.0031 65.8282 27.0031Z" fill="#FBBC05"/>
    <path d="M100.575 0.41748H104.935V30.9876H100.575V0.41748Z" fill="#34A853"/>
    <path d="M118.401 27.0031C116.142 27.0031 114.544 25.9766 113.501 23.941L127 18.356L126.549 17.2077C125.715 14.9459 123.143 10.77 117.914 10.77C112.719 10.77 108.393 14.8588 108.393 20.8789C108.393 26.551 112.667 30.9877 118.401 30.9877C123.022 30.9877 125.698 28.152 126.809 26.5161L123.369 24.219C122.223 25.8896 120.659 27.0031 118.401 27.0031ZM118.088 14.5629C119.878 14.5629 121.406 15.485 121.91 16.7901L112.789 20.5656C112.789 16.3202 115.794 14.5629 118.088 14.5629Z" fill="#EA4335"/>
</svg>
