<svg width="16" height="16" viewBox="0 0 16 16" fill="none" xmlns="http://www.w3.org/2000/svg">
    <path d="M8 0.904377L10.3577 4.45787L10.4607 4.61312L10.6402 4.66311L14.7483 5.80733L12.0973 9.14774L11.9815 9.29367L11.9894 9.47981L12.1707 13.7405L8.17458 12.2515L8 12.1864L7.82542 12.2515L3.8293 13.7405L4.01056 9.47981L4.01848 9.29367L3.90266 9.14774L1.25166 5.80733L5.35981 4.66311L5.53929 4.61312L5.64229 4.45787L8 0.904377Z" fill="#E3F2F2" stroke="#067D7B"/>
    <mask id="mask0_320_923" style="mask-type:alpha" maskUnits="userSpaceOnUse" x="0" y="0" width="16" height="15">
        <path d="M8 0L10.7743 4.18144L15.6085 5.52786L12.489 9.45856L12.7023 14.4721L8 12.72L3.29772 14.4721L3.51101 9.45856L0.391548 5.52786L5.22565 4.18144L8 0Z" fill="#E3F2F2"/>
    </mask>
    <g mask="url(#mask0_320_923)">
        <rect width="8" height="15" fill="#067D7B"/>
    </g>
</svg>
