<svg width="40" height="40" viewBox="0 0 40 40" fill="none" xmlns="http://www.w3.org/2000/svg">
    <g clip-path="url(#clip0_383_1541)">
        <path d="M19.2397 34.3727C19.5505 34.5448 19.819 34.6749 20.0281 34.7487V34.8387H20.2281V34.6387C20.2281 34.8387 20.2282 34.8387 20.2283 34.8387L20.2285 34.8387H20.2289L20.2297 34.8387L20.2314 34.8387L20.235 34.8386L20.2432 34.8382C20.249 34.8378 20.2556 34.8372 20.263 34.8361C20.2776 34.834 20.2954 34.8303 20.3151 34.8237C20.3318 34.8181 20.3496 34.8107 20.3678 34.8007H20.3679H20.3681H20.3683H20.3686H20.3688H20.369H20.3692H20.3695H20.3697H20.3699H20.3701H20.3704H20.3706H20.3708H20.371H20.3712H20.3715H20.3717H20.3719H20.3721H20.3724H20.3726H20.3728H20.373H20.3732H20.3735H20.3737H20.3739H20.3741H20.3744H20.3746H20.3748H20.375H20.3753H20.3755H20.3757H20.3759H20.3761H20.3764H20.3766H20.3768H20.377H20.3773H20.3775H20.3777H20.3779H20.3781H20.3784H20.3786H20.3788H20.379H20.3793H20.3795H20.3797H20.3799H20.3802H20.3804H20.3806H20.3808H20.381H20.3813H20.3815H20.3817H20.3819H20.3822H20.3824H20.3826H20.3828H20.3831H20.3833H20.3835H20.3837H20.3839H20.3842H20.3844H20.3846H20.3848H20.3851H20.3853H20.3855H20.3857H20.3859H20.3862H20.3864H20.3866H20.3868H20.3871H20.3873H20.3875H20.3877H20.388H20.3882H20.3884H20.3886H20.3888H20.3891H20.3893H20.3895H20.3897H20.39H20.3902H20.3904H20.3906H20.3908H20.3911H20.3913H20.3915H20.3917H20.392H20.3922H20.3924H20.3926H20.3929H20.3931H20.3933H20.3935H20.3937H20.394H20.3942H20.3944H20.3946H20.3949H20.3951H20.3953H20.3955H20.3958H20.396H20.3962H20.3964H20.3966H20.3969H20.3971H20.3973H20.3975H20.3978H20.398H20.3982H20.3984H20.3986H20.3989H20.3991H20.3993H20.3995H20.3998H20.4H20.4002H20.4004H20.4007H20.4009H20.4011H20.4013H20.4015H20.4018H20.402H20.4022H20.4024H20.4027H20.4029H20.4031H20.4033H20.4035H20.4038H20.404H20.4042H20.4044H20.4047H20.4049H20.4051H20.4053H20.4056H20.4058H20.406H20.4062H20.4064H20.4067H20.4069H20.4071H20.4073H20.4076H20.4078H20.408H20.4082H20.4084H20.4087H20.4089H20.4091H20.4093H20.4096H20.4098H20.41H20.4102H20.4105H20.4107H20.4109H20.4111H20.4113H20.4116H20.4118H20.412H20.4122H20.4125H20.4127H20.4129H20.4131H20.4133H20.4136H20.4138H20.414H20.4142H20.4145H20.4147H20.4149H20.4151H20.4154H20.4156H20.4158H20.416H20.4162H20.4165H20.4167H20.4169H20.4171H20.4174H20.4176H20.4178H20.418H20.4183H20.6183V34.6855C21.4266 34.2615 23.7345 32.7997 26.3744 30.7031C29.1513 28.4978 32.3143 25.5756 34.4977 22.397C34.8961 21.8536 35.2259 21.311 35.5188 20.7703H39.3916C39.8443 20.7703 40.2 20.4146 40.2 19.9619C40.2 19.718 40.0764 19.5208 39.9089 19.3905C39.7435 19.2619 39.5287 19.1916 39.3156 19.1916H36.2349C37.5318 16.082 37.3755 13.5478 36.8457 11.806C35.9138 8.62349 32.7696 5.16115 28.0989 5.16115C26.8563 5.16115 25.6165 5.39427 24.3423 5.8576L24.3415 5.85789C22.277 6.6185 20.8591 7.44894 20.1523 7.93131C19.4498 7.44945 18.0637 6.6186 15.9618 5.85755C14.6873 5.39411 13.4095 5.16115 12.2053 5.16115C7.5342 5.16115 4.38977 8.62414 3.45824 11.8069L3.45824 11.8069L3.45789 11.8081C2.92778 13.6635 2.73506 16.4264 4.39324 19.876H0.608365C0.155701 19.876 -0.2 20.2317 -0.2 20.6843C-0.2 21.137 0.155703 21.4927 0.608365 21.4927H5.3207C5.50314 21.8088 5.71651 22.1238 5.96042 22.4378C7.95346 25.3107 11.1052 28.298 13.9469 30.6113C15.3699 31.7697 16.7189 32.7622 17.8116 33.4898C18.3577 33.8535 18.8416 34.1522 19.2397 34.3727ZM20.9528 26.1385L24.2637 14.8022L25.9305 20.2109L25.9305 20.2109L25.9319 20.2153C26.0326 20.5173 26.2857 20.718 26.5831 20.7676C26.9004 20.8204 27.1956 20.6602 27.3805 20.4291L27.3852 20.4232L27.3894 20.4171L28.6946 18.5094L29.7897 20.3676L29.7905 20.369C29.9392 20.6168 30.193 20.7703 30.4943 20.7703H33.5584C33.3952 21.0294 33.2315 21.2751 33.0662 21.5229C29.145 27.2562 21.9878 31.9135 20.189 33.0708C18.362 31.916 11.2358 27.2211 7.27561 21.5224L7.25583 21.4927H12.4715C12.7641 21.4927 13.0677 21.3454 13.2204 21.0406C13.2205 21.0404 13.2206 21.0401 13.2207 21.0399L15.5655 16.4204L19.3938 26.2281C19.4504 26.3932 19.5705 26.52 19.7025 26.604C19.8359 26.6889 19.9963 26.7399 20.1521 26.7399H20.1521H20.1521H20.1521H20.1522H20.1522H20.1522H20.1522H20.1522H20.1522H20.1523H20.1523H20.1523H20.1523H20.1523H20.1524H20.1524H20.1524H20.1524H20.1524H20.1524H20.1525H20.1525H20.1525H20.1525H20.1525H20.1526H20.1526H20.1526H20.1526H20.1527H20.1527H20.1527H20.1527H20.1528H20.1528H20.1528H20.1528H20.1528H20.1529H20.1529H20.1529H20.1529H20.1529H20.1529H20.153H20.153H20.153H20.153H20.153H20.153H20.1531H20.1531H20.1531H20.1531H20.1531H20.1532H20.1532H20.1532H20.1532H20.1533H20.1533H20.1533H20.1533H20.1533H20.1534H20.1534H20.1534H20.1534H20.1535H20.1535H20.1535H20.1535H20.1536H20.1536H20.1536H20.1536H20.1537H20.1537H20.1537H20.1537H20.1538H20.1538H20.1538H20.1539H20.1539H20.1539H20.1539H20.154H20.154H20.154H20.1541H20.1541H20.1541H20.1542H20.1542H20.1542H20.1543H20.1543H20.1543H20.1544H20.1544H20.1544H20.1545H20.1545H20.1545H20.1546H20.1546H20.1546H20.1547H20.1547H20.1548H20.1548H20.1548H20.1549H20.1549H20.1549H20.155H20.155H20.1551H20.1551H20.1551H20.1552H20.1552H20.1553H20.1553H20.1554H20.1554H20.1554H20.1555H20.1555H20.1556H20.1556H20.1557H20.1557H20.1558H20.1558H20.1559H20.1559H20.156H20.156H20.1561H20.1561H20.1562H20.1562H20.1563H20.1563H20.1564H20.1564H20.1565H20.1565H20.1566H20.1566H20.1567H20.1567H20.1568H20.1568H20.1569H20.157H20.157H20.1571H20.1571H20.1572H20.1572H20.1573H20.1574H20.1574H20.1575H20.1575H20.1576H20.1577H20.1577H20.1578H20.1579H20.1579H20.158H20.158H20.1581H20.1582H20.1582H20.1583H20.1584H20.1584H20.1585H20.1586H20.1586H20.1587H20.1588H20.1589H20.1589H20.159H20.1591H20.1591H20.1592H20.1593H20.1594H20.1594H20.1595H20.1596H20.1597H20.1597H20.1598H20.1599H20.16H20.1601H20.1601H20.1602H20.1603H20.1604H20.1604H20.1605H20.1606H20.1607H20.1608H20.1609H20.1609H20.161H20.1611H20.1612H20.1613H20.1614H20.1615H20.1616H20.1616H20.1617H20.1618H20.1619H20.162H20.1621H20.1622H20.1623H20.1624H20.1625H20.1626H20.1626H20.1627H20.1628H20.1629H20.163H20.1631H20.1632H20.1633H20.1634H20.1635H20.1636H20.1637H20.1638H20.1639H20.164H20.1641H20.1642H20.1643H20.1644H20.1646H20.1647H20.1648H20.1649H20.165H20.1651H20.1652H20.1653H20.1654H20.1655H20.1656H20.1658H20.1659H20.166H20.1661H20.1662H20.1663H20.1664H20.1666H20.1667H20.1668H20.1669H20.167H20.1672H20.1673H20.1674H20.1675H20.1676H20.1678H20.1679H20.168H20.1681H20.1683H20.1684H20.1685H20.1686H20.1688H20.1689H20.169H20.1692H20.1693H20.1694H20.1696H20.1697H20.1698H20.17H20.1701H20.1702H20.1704H20.1705H20.1706H20.1708H20.1709H20.1711H20.1712H20.1713H20.1715H20.1716H20.1718H20.1719H20.172H20.1722H20.1723H20.1725H20.1726H20.1728H20.1729H20.1731H20.1732H20.1734H20.1735H20.1737H20.1738H20.174H20.1741H20.1743H20.1745H20.1746H20.1748H20.1749H20.1751H20.1753H20.1754H20.1756H20.1757H20.1759H20.1761H20.1762H20.1764H20.1766H20.1767H20.1769H20.1771H20.1772H20.1774H20.1776H20.1777H20.1779H20.1781H20.1783H20.1784H20.1786H20.1788H20.179H20.1791H20.1793H20.1795H20.1797H20.1798H20.18H20.1802H20.1804H20.1806H20.1808H20.1809H20.1811H20.1813H20.1815H20.1817H20.1819H20.1821H20.1823H20.1825H20.1826H20.1828H20.183H20.1832H20.1834H20.1836H20.1838H20.184H20.1842H20.1844H20.1846H20.1848H20.185H20.1852H20.1854H20.1856H20.1858H20.186H20.1862H20.1865H20.1867H20.1869H20.1871H20.1873H20.1875H20.1877H20.1879H20.1881H20.1884H20.1886H20.1888H20.189H20.1892H20.1895H20.1897H20.1899H20.1901C20.5565 26.7399 20.855 26.4797 20.9525 26.1393C20.9526 26.139 20.9527 26.1388 20.9528 26.1385ZM29.4882 16.6289L29.4871 16.6271C29.3384 16.3793 29.0846 16.2258 28.7833 16.2258C28.5104 16.2258 28.2439 16.3196 28.0826 16.5838L27.027 18.1362L25.0586 11.73C24.9514 11.3588 24.5933 11.1765 24.2868 11.1327L24.2728 11.1307H24.2586C23.9065 11.1307 23.5597 11.3767 23.458 11.7316C23.458 11.7317 23.4579 11.7319 23.4579 11.7321L20.0858 23.3714L16.4617 14.114C16.3554 13.8029 16.0494 13.6022 15.7414 13.6022C15.5794 13.6022 15.4282 13.6372 15.2963 13.7163C15.1642 13.7955 15.064 13.9117 14.9926 14.0542C14.9925 14.0545 14.9923 14.0547 14.9922 14.055L12.0448 19.838H6.24063C4.78483 17.1344 4.40128 14.564 5.05897 12.2611C5.83868 9.62622 8.39768 6.8159 12.2433 6.8159C13.2793 6.8159 14.3588 7.03789 15.446 7.41261C16.8203 7.92108 17.8737 8.46673 18.5872 8.8845C18.944 9.09345 19.2161 9.27053 19.401 9.39522C19.4777 9.44691 19.5393 9.48951 19.5868 9.5223C19.5967 9.52915 19.6059 9.53556 19.6146 9.54154C19.639 9.5584 19.6604 9.57308 19.6766 9.58364C19.6837 9.58823 19.6923 9.59373 19.7011 9.5988C20.0007 9.83444 20.4004 9.82988 20.6961 9.5851L20.6979 9.58371L20.7096 9.57462C20.7203 9.56639 20.7368 9.55389 20.7589 9.53743C20.8032 9.50452 20.8702 9.4558 20.9598 9.39387C21.1389 9.27 21.4079 9.09331 21.7646 8.8845C22.4778 8.46686 23.5411 7.92089 24.9355 7.41215L24.9355 7.41216L24.9379 7.41126C26.0177 7.00167 27.0963 6.8159 28.1369 6.8159C31.9455 6.8159 34.5423 9.62749 35.3215 12.262C35.9407 14.3749 35.6319 16.7171 34.4741 19.1916H30.9892L29.4882 16.6289Z" fill="#067D7B" stroke="#067D7B" stroke-width="0.4"/>
    </g>
    <defs>
        <clipPath id="clip0_383_1541">
            <rect width="40" height="40" fill="white"/>
        </clipPath>
    </defs>
</svg>