<svg width="126" height="131" viewBox="0 0 126 131" fill="none" xmlns="http://www.w3.org/2000/svg">
    <path fill-rule="evenodd" clip-rule="evenodd" d="M125.707 4.50618C125.693 4.50597 125.679 4.50586 125.665 4.50586C122.648 4.50586 119.704 4.54493 116.832 4.62135C119.718 4.54957 122.676 4.51069 125.707 4.50618ZM3.12394 73.8769C4.78836 97.7028 23.9081 113.467 51.7516 113.467C88.5747 113.467 96.2882 78.4272 100.429 59.5999C103.6 44.4982 110.312 30.4302 119.938 18.5199C110.165 32.3562 103.661 51.2079 100.427 66.6086C96.2863 85.4359 88.5728 120.476 51.7497 120.476C22.5941 120.476 3.00389 103.191 3.00389 77.4646C3.00389 76.366 3.0389 75.1652 3.12394 73.8769Z" fill="white"/>
    <path fill-rule="evenodd" clip-rule="evenodd" d="M122.661 0C123.821 0.000268819 124.867 0.699736 125.311 1.77206C125.687 2.68609 125.562 3.71668 125.008 4.50779C14.9555 4.86494 3.00615 50.7024 3.00615 70.4559C3.00615 96.1821 22.5963 113.467 51.7519 113.467C62.7275 113.467 71.1169 110.354 77.5964 105.485C70.7652 111.765 61.5022 115.97 48.7458 115.97C19.5902 115.97 0 98.685 0 72.9587C0 53.128 11.4057 0 122.661 0Z" fill="white"/>
    <path d="M5.87364 130.671C4.29003 130.671 3.00615 129.388 3.00615 127.804C3.00615 110.754 32.569 56.0499 79.1757 33.4665C80.601 32.7761 82.3161 33.3716 83.0067 34.7968C83.697 36.2221 83.1016 37.9372 81.6763 38.6278C34.6107 61.4352 8.74087 114.402 8.74087 127.804C8.74087 129.388 7.45725 130.671 5.87364 130.671Z" fill="white"/>
</svg>

