<svg width="149" height="42" viewBox="0 0 149 42" fill="none" xmlns="http://www.w3.org/2000/svg">
    <path d="M55.4388 34.7048L56.3852 35.0141C56.1971 35.3632 55.957 35.6824 55.6732 35.961C54.9124 36.7146 53.9922 37.0914 52.9126 37.0914C51.833 37.0914 50.9129 36.7146 50.152 35.961C49.3912 35.2075 49.0107 34.2961 49.0107 33.2268C49.0107 32.1576 49.3912 31.2464 50.152 30.4931C50.9129 29.7392 51.833 29.3623 52.9126 29.3623C53.9922 29.3623 54.9124 29.7392 55.6732 30.4931C55.9573 30.7714 56.1973 31.0905 56.3852 31.4396L55.4388 31.7489C55.3092 31.5417 55.1553 31.3503 54.9805 31.1787C54.7093 30.9092 54.387 30.6953 54.0321 30.5494C53.6773 30.4035 53.2968 30.3284 52.9126 30.3284C52.5284 30.3284 52.1479 30.4035 51.7931 30.5494C51.4382 30.6953 51.1159 30.9092 50.8447 31.1787C50.436 31.5841 50.1577 32.1003 50.045 32.6621C49.9323 33.224 49.9903 33.8064 50.2115 34.3356C50.4328 34.8649 50.8075 35.3174 51.2882 35.6359C51.769 35.9544 52.3342 36.1247 52.9126 36.1253C53.2977 36.131 53.6798 36.0585 54.0355 35.9122C54.3911 35.766 54.7128 35.5491 54.9805 35.275C55.1556 35.1036 55.3094 34.9122 55.4388 34.7048V34.7048Z" fill="#067D7B"/>
    <path d="M64.0568 37.0889C62.9772 37.0889 62.0572 36.7122 61.2967 35.9586C60.5361 35.205 60.1557 34.2936 60.1554 33.2244C60.1554 32.1555 60.5358 31.2443 61.2967 30.4907C62.0575 29.7371 62.9775 29.3602 64.0568 29.3599C65.1366 29.3599 66.0568 29.7368 66.8174 30.4907C67.5779 31.2446 67.9583 32.1558 67.9586 33.2244C67.9586 34.2933 67.5782 35.2047 66.8174 35.9586C66.0565 36.7125 65.1363 37.0893 64.0568 37.0889ZM64.0568 36.1228C64.8329 36.1228 65.5772 35.8174 66.126 35.2739C66.6749 34.7303 66.9832 33.9931 66.9832 33.2244C66.9832 32.4557 66.6749 31.7185 66.126 31.1749C65.5772 30.6314 64.8329 30.326 64.0568 30.326C63.2511 30.326 62.562 30.6094 61.9893 31.1763C61.7171 31.4448 61.5011 31.764 61.3537 32.1155C61.2063 32.467 61.1304 32.8438 61.1304 33.2244C61.1304 33.605 61.2063 33.9818 61.3537 34.3333C61.5011 34.6848 61.7171 35.004 61.9893 35.2725C62.5617 35.8394 63.2508 36.1228 64.0568 36.1228Z" fill="#067D7B"/>
    <path d="M71.7292 29.3599H72.7047V30.102C73.2509 29.606 73.9011 29.358 74.6552 29.358C75.0403 29.3522 75.4225 29.4247 75.7783 29.571C76.134 29.7172 76.4557 29.9341 76.7236 30.2083C76.8617 30.344 76.9859 30.493 77.0943 30.653C77.2027 30.4931 77.3267 30.3441 77.4646 30.2083C78.0372 29.6414 78.7267 29.358 79.533 29.358C80.3088 29.3591 81.0525 29.6649 81.601 30.2084C82.1495 30.7518 82.458 31.4885 82.4589 32.2569V37.0871H81.4849V32.2588C81.4811 31.7474 81.2743 31.2581 80.9093 30.8964C80.5442 30.5348 80.0502 30.3299 79.5339 30.326C79.2776 30.3258 79.0238 30.3756 78.7869 30.4727C78.5501 30.5697 78.3349 30.7121 78.1537 30.8916C77.9725 31.0711 77.8288 31.2843 77.7309 31.5189C77.6329 31.7535 77.5827 32.0049 77.583 32.2588V37.089H76.6066V32.2588C76.6028 31.7474 76.396 31.2579 76.0308 30.8963C75.6657 30.5346 75.1715 30.3298 74.6552 30.326C74.3989 30.3258 74.1451 30.3757 73.9083 30.4728C73.6715 30.5699 73.4564 30.7122 73.2752 30.8918C73.0941 31.0713 72.9504 31.2844 72.8525 31.519C72.7546 31.7536 72.7044 32.005 72.7047 32.2588V37.089H71.7292V29.3599Z" fill="#067D7B"/>
    <path d="M86.2295 29.3599H87.205V30.6645C87.2572 30.6061 87.3124 30.5481 87.3708 30.4907C88.1316 29.7368 89.052 29.3599 90.1318 29.3599C91.2117 29.3599 92.1318 29.7368 92.892 30.4907C93.6528 31.2443 94.0332 32.1555 94.0332 33.2244C94.0332 34.2933 93.6528 35.2047 92.892 35.9586C92.1311 36.7122 91.2111 37.0889 90.1318 37.0889C89.0526 37.0889 88.1322 36.7122 87.3708 35.9586C87.3121 35.9005 87.2568 35.8426 87.205 35.7848V39.9873H86.2295V29.3599ZM87.205 33.1952V33.2531C87.2117 34.0392 87.4979 34.7124 88.0634 35.2725C88.4726 35.6783 88.994 35.9547 89.5618 36.0668C90.1295 36.179 90.7181 36.1218 91.2531 35.9025C91.788 35.6833 92.2453 35.3118 92.567 34.8351C92.8888 34.3583 93.0605 33.7978 93.0605 33.2244C93.0605 32.651 92.8888 32.0905 92.567 31.6137C92.2453 31.137 91.788 30.7655 91.2531 30.5463C90.7181 30.327 90.1295 30.2698 89.5618 30.382C88.994 30.4941 88.4726 30.7705 88.0634 31.1763C87.4979 31.7367 87.2117 32.4097 87.205 33.1952Z" fill="#067D7B"/>
    <path d="M105.608 37.0889H104.632V35.7848C104.581 35.8429 104.525 35.9008 104.467 35.9586C103.706 36.7122 102.786 37.0889 101.706 37.0889C100.626 37.0889 99.706 36.7122 98.9455 35.9586C98.1846 35.205 97.8042 34.2936 97.8042 33.2244C97.8042 32.1552 98.1846 31.2439 98.9455 30.4907C99.7063 29.7368 100.627 29.3599 101.706 29.3599C102.786 29.3599 103.706 29.7368 104.467 30.4907C104.526 30.5481 104.581 30.6061 104.632 30.6645V29.3599H105.608V37.0889ZM104.632 33.2531V33.1952C104.626 32.4097 104.34 31.7367 103.774 31.1763C103.365 30.7705 102.843 30.4941 102.276 30.382C101.708 30.2698 101.119 30.327 100.584 30.5463C100.049 30.7655 99.5921 31.137 99.2704 31.6137C98.9487 32.0905 98.7769 32.651 98.7769 33.2244C98.7769 33.7978 98.9487 34.3583 99.2704 34.8351C99.5921 35.3118 100.049 35.6833 100.584 35.9025C101.119 36.1218 101.708 36.179 102.276 36.0668C102.843 35.9547 103.365 35.6783 103.774 35.2725C104.34 34.7124 104.626 34.0392 104.632 33.2531V33.2531Z" fill="#067D7B"/>
    <path d="M115.2 30.3552C115.87 31.012 116.205 31.8074 116.205 32.7413V37.0889H115.229V32.7413C115.234 32.4213 115.174 32.1036 115.054 31.8066C114.933 31.5097 114.754 31.2394 114.527 31.0115C114.301 30.7836 114.03 30.6026 113.732 30.4791C113.434 30.3556 113.114 30.292 112.791 30.292C112.468 30.292 112.148 30.3556 111.85 30.4791C111.552 30.6026 111.281 30.7836 111.054 31.0115C110.828 31.2394 110.649 31.5097 110.528 31.8066C110.408 32.1036 110.348 32.4213 110.353 32.7413V37.0889H109.378V29.3598H110.354V30.3743L110.383 30.3451C111.047 29.6876 111.85 29.3589 112.793 29.3589C113.735 29.3589 114.538 29.6907 115.202 30.3542L115.2 30.3552Z" fill="#067D7B"/>
    <path d="M123.369 36.0749L119.974 29.3599H120.999L123.876 35.0604L126.754 29.3599H127.778L122.414 39.9873H121.389L123.369 36.0749Z" fill="#067D7B"/>
    <path d="M50.8147 14.6792C50.8147 12.2615 52.4916 10.559 54.7625 10.559C57.0122 10.559 58.7103 12.2615 58.7103 14.6792C58.7103 17.073 57.0547 18.7966 54.7625 18.7966C52.4703 18.7966 50.8147 17.0754 50.8147 14.6792ZM49.0107 9.29752V25.5274H50.8785V17.9372C51.7486 19.43 53.3191 20.3966 55.229 20.3966C58.3487 20.3966 60.6622 17.9583 60.6622 14.6792C60.6622 11.4002 58.3487 8.96143 55.229 8.96143C53.3186 8.96143 51.7486 9.88639 50.8785 11.3576V9.29895L49.0107 9.29752Z" fill="#262626"/>
    <path d="M64.83 13.7327C65.0234 11.778 66.5915 10.4772 68.6714 10.4772C70.6668 10.4772 72.2794 11.7172 72.4902 13.7327H64.83ZM62.8965 14.6792C62.8965 17.9348 65.486 20.3966 68.7546 20.3966C71.0043 20.3966 72.872 19.5138 73.9751 17.727L72.5994 17.0122C71.7081 18.2527 70.5209 18.8832 68.8638 18.8832C66.678 18.8832 64.7889 17.3512 64.7889 14.8894H74.3173V14.6792C74.3173 11.2734 71.8125 8.96143 68.6289 8.96143C65.4666 8.96143 62.8984 11.5065 62.8984 14.6792H62.8965Z" fill="#262626"/>
    <path d="M76.3066 9.29758V10.7061H77.4735V17.1387C77.4735 18.7152 77.9192 20.3943 80.1906 20.3943C81.3991 20.3943 82.1643 19.8901 82.1643 19.8901L81.6973 18.4007C81.383 18.6287 81.0046 18.7535 80.615 18.7579C79.6811 18.7579 79.3413 18.1063 79.3413 16.8663V10.7061H81.9946V9.29758H79.3413V5.28271H77.4735V9.29758H76.3066Z" fill="#262626"/>
    <path d="M89.8428 1.98218V20.0606H91.7106V13.1866C91.7106 11.8412 92.919 10.4327 94.7032 10.4327C96.656 10.4327 97.6112 11.7359 97.6112 13.6912V20.0587H99.4766V13.1866C99.4766 10.4749 97.7151 8.96152 95.0618 8.96152C93.8737 8.96152 92.409 9.54991 91.7086 10.7061V1.98218H89.8428Z" fill="#262626"/>
    <path d="M104.252 13.7327C104.445 11.778 106.013 10.4772 108.093 10.4772C110.088 10.4772 111.701 11.7172 111.912 13.7327H104.252ZM102.318 14.6792C102.318 17.9348 104.908 20.3966 108.176 20.3966C110.426 20.3966 112.293 19.5138 113.397 17.727L112.02 17.0122C111.128 18.2527 109.941 18.8832 108.284 18.8832C106.098 18.8832 104.209 17.3512 104.209 14.8894H113.739V14.6792C113.739 11.2734 111.234 8.96143 108.051 8.96143C104.889 8.96143 102.32 11.5065 102.32 14.6792H102.318Z" fill="#262626"/>
    <path d="M116.704 9.29752V20.0605H118.572V12.9131C118.572 11.9676 119.654 10.4748 121.376 10.4748C123.35 10.4748 124.284 11.778 124.284 13.6911V20.0586H126.13V12.8499C126.13 11.946 127.255 10.4748 128.934 10.4748C130.907 10.4748 131.841 11.778 131.841 13.6911V20.0586H133.709V13.1865C133.709 10.4748 132.159 8.96143 129.506 8.96143C127.979 8.96143 126.62 9.88639 125.792 11.1896C125.177 9.73893 123.84 8.96143 121.951 8.96143C120.742 8.96143 119.361 9.59195 118.576 10.706V9.29752H116.704Z" fill="#262626"/>
    <path d="M139.152 14.6792C139.152 12.2615 140.828 10.559 143.099 10.559C145.349 10.559 147.047 12.2615 147.047 14.6792C147.047 17.073 145.392 18.7966 143.099 18.7966C140.807 18.7966 139.152 17.0754 139.152 14.6792ZM137.348 9.29752V25.5274H139.215V17.9372C140.086 19.43 141.656 20.3966 143.566 20.3966C146.686 20.3966 149 17.9583 149 14.6792C149 11.4002 146.686 8.96143 143.566 8.96143C141.656 8.96143 140.086 9.88639 139.215 11.3576V9.29895L137.348 9.29752Z" fill="#262626"/>
    <path d="M41.3959 20.998C41.3963 25.7407 39.7365 30.3369 36.699 34.0034C33.6616 37.6699 29.4346 40.1798 24.7382 41.1056C20.0418 42.0314 15.1665 41.3157 10.9432 39.0805C6.71979 36.8453 3.40958 33.2288 1.57653 28.8474C-0.256512 24.4659 -0.498972 19.5905 0.89046 15.0518C2.27989 10.5131 5.21525 6.59194 9.1964 3.95648C13.1775 1.32101 17.9582 0.134271 22.7237 0.598453C27.4892 1.06264 31.9448 3.14902 35.3314 6.50213C37.2539 8.40551 38.7789 10.6653 39.8195 13.1526C40.8601 15.6398 41.3957 18.3057 41.3959 20.998V20.998Z" fill="#067D7B"/>
    <path fill-rule="evenodd" clip-rule="evenodd" d="M21.9147 29.846C22.3802 31.2373 22.5528 32.7138 22.5098 34.1754C22.4967 34.5637 22.4706 34.9558 22.3575 35.3297C22.3286 35.4395 22.2732 35.5408 22.196 35.6246C22.1789 35.6333 22.1593 35.6363 22.1403 35.633C22.1213 35.6297 22.1039 35.6204 22.0907 35.6064C22.0326 35.5505 21.994 35.4777 21.9804 35.3987C21.9253 35.1942 21.9268 34.9807 21.9268 34.7701C21.936 34.2999 22.0066 33.8331 22.0206 33.3625C22.0763 32.2007 21.9982 31.0363 21.7881 29.892C21.8296 29.8747 21.8712 29.857 21.9123 29.8388C21.9123 29.8436 21.9123 29.8441 21.9166 29.8465L21.9147 29.846ZM21.3569 27.1923C21.8671 27.425 22.4218 27.5466 22.9835 27.5489C23.3094 27.5533 23.6351 27.5298 23.957 27.4786C23.4767 28.0352 22.9094 28.512 22.2768 28.8909C22.269 28.8909 22.2666 28.8717 22.2618 28.8631C22.0141 28.2761 21.7084 27.7149 21.3491 27.1875C21.3535 27.1875 21.354 27.1918 21.3569 27.1918V27.1923ZM14.4735 21.519C15.8346 22.0967 17.065 22.9387 18.0921 23.9951C19.0583 24.9983 19.8278 26.1706 20.3616 27.4522C20.6324 28.0984 20.8479 28.7659 21.0059 29.4477C20.29 29.6641 19.5393 29.7453 18.793 29.6871C17.8626 29.5972 16.9867 29.2108 16.2968 28.5859C15.6245 27.9813 15.1367 27.187 14.8588 26.3358C14.7203 25.8926 14.612 25.4408 14.5344 24.9833C14.3459 23.9537 14.3078 22.9026 14.4213 21.8622C14.4339 21.7454 14.4503 21.6291 14.4668 21.5127C14.4716 21.5127 14.4716 21.5127 14.474 21.5175L14.4735 21.519ZM9.33517 20.4533C9.99148 20.4669 10.6461 20.5238 11.2948 20.6237C12.1559 20.7539 13.002 20.9675 13.821 21.2614C13.6132 22.5472 13.6284 23.8586 13.8659 25.1393C13.9531 25.6483 14.0773 26.1504 14.2376 26.6417C14.5644 27.5839 15.1159 28.4576 15.869 29.1221C16.0382 29.2716 16.2173 29.4096 16.4051 29.5353C15.3021 29.3529 14.2421 28.9719 13.2776 28.4112C12.4187 27.9041 11.6386 27.2763 10.9618 26.5474C9.91088 25.4319 9.07656 24.1316 8.38629 22.7728C8.2524 22.5095 8.12237 22.2462 8.01409 21.97C7.91681 21.7339 7.86106 21.4831 7.84926 21.2284C7.84481 21.1056 7.87855 20.9844 7.94593 20.8813C8.03194 20.7806 8.1392 20.6999 8.26013 20.6448C8.49506 20.5289 8.75705 20.4834 9.01662 20.4638C9.12297 20.4561 9.22979 20.4533 9.33662 20.4528L9.33517 20.4533ZM26.7819 17.9402C26.8524 19.6371 26.6674 21.3349 26.2328 22.9777C25.8944 24.2225 25.4009 25.4304 24.6903 26.5119C24.6598 26.556 24.6323 26.6005 24.6013 26.6436C24.586 26.6511 24.5698 26.6566 24.553 26.6599C24.0136 26.8011 23.4557 26.8902 22.8965 26.8681C22.5234 26.8565 22.155 26.7817 21.8074 26.647C21.9108 25.2586 22.1767 23.8778 22.692 22.5813C23.1193 21.5065 23.7284 20.4968 24.5259 19.6509C25.1781 18.9604 25.941 18.3814 26.7838 17.9374V17.9402H26.7819ZM32.0174 16.627C32.3229 16.6328 32.6313 16.6385 32.9291 16.7113C33.0798 16.7463 33.2173 16.8232 33.3254 16.9329C33.4307 17.0566 33.4978 17.2077 33.5188 17.3681C33.5565 17.6361 33.5565 17.9079 33.5188 18.1758C33.467 18.571 33.3569 18.9565 33.192 19.32C32.8513 20.1115 32.4228 20.863 31.9144 21.5606C31.3959 22.2758 30.8083 22.9391 30.1598 23.5412C29.0539 24.5743 27.7775 25.4122 26.386 26.0183C26.1317 26.1281 25.8739 26.2288 25.6126 26.3204C26.2893 25.1432 26.7514 23.8539 27.0531 22.5354C27.4151 20.9208 27.5495 19.2644 27.4523 17.6133C28.5912 17.1177 29.8137 16.8305 31.0468 16.6869C31.3689 16.6484 31.693 16.6284 32.0174 16.627V16.627ZM18.2816 9.23067C18.9153 9.67037 19.4369 10.2501 19.8052 10.924C20.1675 11.6053 20.3741 12.3572 20.4104 13.1263C20.4588 14.0183 20.3166 14.9126 20.0576 15.7652C19.929 16.188 19.7675 16.6007 19.6467 17.0249C19.2413 18.3526 18.9965 19.7233 18.9173 21.1082C18.8663 21.9705 18.915 22.8358 19.0623 23.6873C19.0945 23.8567 19.1311 24.0254 19.172 24.1933C18.1029 22.9085 16.7661 21.8675 15.2532 21.1417C15.0347 21.0364 14.8135 20.9373 14.5895 20.8444C14.8312 19.7294 15.2542 18.6608 15.7564 17.6367C16.3403 16.4398 17.0243 15.2908 17.5773 14.08C17.8674 13.4428 18.1144 12.7845 18.2661 12.1013C18.4549 11.2375 18.472 10.3456 18.3164 9.47531C18.3014 9.39057 18.2845 9.30535 18.2681 9.22109C18.2723 9.22479 18.2768 9.22815 18.2816 9.23115V9.23067ZM19.7013 8.41151C20.6096 8.40152 21.5076 8.60272 22.3232 8.99895C23.054 9.36663 23.7043 9.87359 24.2369 10.4908C24.9503 11.3023 25.4772 12.2622 25.8644 13.2618C26.2451 14.2659 26.5079 15.3101 26.6475 16.3737C26.6857 16.6519 26.7152 16.931 26.7379 17.2106C25.6233 17.7537 24.6285 18.5102 23.811 19.4364C23.083 20.2765 22.5019 21.2312 22.0916 22.261C21.5802 23.5202 21.295 24.8607 21.1664 26.2094C21.1631 26.2327 21.161 26.2562 21.1601 26.2797C20.8031 26.0001 20.5095 25.6492 20.2983 25.2499C19.9884 24.6783 19.812 24.0449 19.7095 23.4067C19.5785 22.5847 19.5679 21.7478 19.623 20.9172C19.6997 19.8332 19.8815 18.759 20.1658 17.7095C20.2698 17.3203 20.3887 16.9353 20.5182 16.5542C20.5666 16.4015 20.6226 16.2502 20.6729 16.097C20.9827 15.1232 21.1524 14.0968 21.0939 13.0741C21.0497 12.1926 20.8069 11.332 20.3834 10.5554C19.9412 9.7673 19.3154 9.09516 18.5581 8.59488L18.4832 8.547C18.8841 8.46453 19.2919 8.41917 19.7013 8.41151V8.41151ZM19.6733 7.74125C19.0044 7.74382 18.3382 7.8258 17.689 7.98542C17.6291 8.00439 17.5746 8.0369 17.5296 8.08035C17.4847 8.12381 17.4505 8.17703 17.4299 8.23581C17.3975 8.35856 17.4 8.48781 17.4371 8.60924C17.4898 8.82085 17.5652 9.02624 17.6083 9.24024C17.7924 10.0376 17.8089 10.8641 17.6566 11.668C17.5116 12.4417 17.2351 13.1843 16.9054 13.8981C16.4897 14.7996 15.9976 15.6637 15.5413 16.5456C15.0981 17.3964 14.6823 18.2639 14.3643 19.1687C14.1968 19.6379 14.0576 20.1166 13.9476 20.6021C12.5144 20.0961 10.999 19.839 9.4797 19.7883C9.08091 19.7777 8.67584 19.8012 8.29203 19.917C7.98629 20.0051 7.70817 20.1687 7.48382 20.3924C7.31503 20.5818 7.21128 20.8193 7.18751 21.0708C7.16119 21.3583 7.19408 21.6481 7.28418 21.9226C7.41131 22.3534 7.62255 22.7556 7.8246 23.1563C8.49216 24.46 9.28732 25.7067 10.2671 26.8035C11.145 27.784 12.1828 28.6372 13.3671 29.2303C14.1256 29.606 14.923 29.8991 15.7453 30.1045C16.8219 30.38 17.9332 30.4987 19.0444 30.4569C19.7552 30.4289 20.4598 30.3151 21.1427 30.118C21.2143 30.523 21.2699 30.9318 21.3056 31.3402C21.3885 32.3099 21.3794 33.285 21.2786 34.253C21.2447 34.6298 21.2259 35.0123 21.2868 35.3881C21.3146 35.5957 21.3911 35.7939 21.5101 35.9669C21.5916 36.0762 21.6994 36.1636 21.8237 36.221C21.9479 36.2785 22.0848 36.3042 22.2217 36.2959C22.3473 36.288 22.4685 36.2468 22.5726 36.1766C22.712 36.0793 22.8229 35.9472 22.894 35.7936C22.9997 35.5674 23.0715 35.3271 23.1072 35.0803C23.1812 34.6394 23.187 34.1917 23.1899 33.746C23.1899 32.325 22.9897 30.8974 22.5262 29.5497C22.517 29.5372 22.5213 29.5291 22.5373 29.5248C23.4374 29.0139 24.2103 28.3001 24.8372 27.4853C24.9117 27.3895 24.9823 27.2938 25.0548 27.1956C25.5207 27.0641 25.9789 26.9068 26.4271 26.7245C28.6023 25.8402 30.5233 24.3786 31.9937 22.567C32.7479 21.6451 33.3671 20.6224 33.833 19.5292C33.949 19.2621 34.0409 18.9852 34.1075 18.702C34.21 18.2602 34.2405 17.8051 34.1979 17.3538C34.1753 17.0898 34.0896 16.835 33.948 16.6103C33.8181 16.421 33.637 16.2717 33.4255 16.1794C33.1688 16.0626 32.887 16.0132 32.6076 15.9855C32.2228 15.9528 31.836 15.9506 31.4509 15.9788C30.8731 16.0231 30.2987 16.103 29.731 16.2182C28.9328 16.3741 28.152 16.6071 27.3996 16.9138C27.3249 16.1243 27.191 15.3415 26.9989 14.5717C26.7569 13.585 26.3941 12.6313 25.9186 11.7317C25.4352 10.8326 24.8097 9.99812 24.0334 9.3269C23.3765 8.75822 22.6103 8.32699 21.7808 8.05915C21.1002 7.84335 20.3894 7.73526 19.6747 7.73886L19.6733 7.74125Z" fill="white"/>
</svg>
