<svg width="60" height="60" viewBox="0 0 60 60" fill="none" xmlns="http://www.w3.org/2000/svg">
    <path d="M30.5112 52.8144C30.4779 51.3148 30.4778 51.3148 30.4777 51.3148L30.4773 51.3148L30.4761 51.3148L30.472 51.3149L30.4573 51.3153L30.4024 51.3167C30.3547 51.3179 30.2852 51.3198 30.1961 51.3226C30.0181 51.328 29.7618 51.3367 29.4454 51.3497C28.8131 51.3756 27.9379 51.4188 26.9658 51.4881C25.0621 51.6239 22.6477 51.8681 20.9927 52.3186L20.9901 52.3193C19.8494 52.6319 17.7952 52.5306 16.2392 51.6968C15.4945 51.2978 14.9356 50.7697 14.6102 50.1135C14.2912 49.4701 14.1277 48.5657 14.4075 47.276C14.9298 44.8692 16.2063 43.6716 17.9352 42.0494C18.0749 41.9183 18.2176 41.7845 18.363 41.647C20.3442 39.7744 22.5021 37.4665 23.4085 32.8068L23.4086 32.8059C24.1365 29.051 25.974 27.4735 27.4827 26.7584C28.2732 26.3838 29.0277 26.2222 29.5846 26.1556C29.8613 26.1225 30.0831 26.1135 30.228 26.1123C30.3002 26.1117 30.3527 26.113 30.3824 26.1141C30.3954 26.1146 30.4039 26.115 30.408 26.1153L30.5171 26.1238L30.6262 26.1152C30.6302 26.115 30.6387 26.1146 30.6514 26.1141C30.681 26.113 30.7332 26.1117 30.8051 26.1123C30.9494 26.1135 31.1705 26.1224 31.4462 26.1555C32.0012 26.2221 32.7533 26.3835 33.5415 26.7579C35.0455 27.4722 36.8799 29.0493 37.6081 32.8049C38.5081 37.4643 40.6597 39.7725 42.6371 41.6458C42.7831 41.7842 42.9264 41.9189 43.0667 42.0508C44.7906 43.6718 46.0645 44.8696 46.5867 47.276L46.5869 47.2772C46.8681 48.5675 46.7054 49.4714 46.3876 50.1139C46.0634 50.7691 45.506 51.2963 44.7625 51.6949C43.2091 52.5276 41.1555 52.6296 40.0129 52.3186C38.358 51.8681 35.9481 51.6238 34.0484 51.4881C33.0784 51.4188 32.2052 51.3756 31.5746 51.3497C31.2589 51.3367 31.0033 51.328 30.8257 51.3226C30.7369 51.3198 30.6675 51.3179 30.6199 51.3167L30.5651 51.3153L30.5504 51.3149L30.5464 51.3148L30.5452 51.3148L30.5448 51.3148C30.5447 51.3148 30.5446 51.3148 30.5112 52.8144ZM30.5112 52.8144L30.4779 51.3148L30.5113 51.314L30.5446 51.3148L30.5112 52.8144ZM44.4592 17.1516L44.4591 17.152C43.2503 21.3443 39.8094 23.3781 37.2145 22.6287C34.6178 21.8789 32.789 18.3229 33.9971 14.1378L33.9973 14.1374C35.206 9.9451 38.6469 7.91128 41.2418 8.66068L41.6577 7.22057L41.2419 8.66069C43.8385 9.41053 45.6673 12.9665 44.4592 17.1516ZM51.5126 23.7651L51.5126 23.7651C54.0127 24.7858 55.4529 28.5102 53.8059 32.5487C52.16 36.5841 48.5203 38.2374 46.0179 37.2197L46.0179 37.2197C43.5213 36.2044 42.0788 32.4771 43.7265 28.4368C45.3733 24.3991 49.0128 22.7444 51.5126 23.7651ZM19.753 8.66626L19.753 8.66625C22.3428 7.91722 25.7888 9.95169 26.9972 14.1378C28.2052 18.3229 26.3765 21.8788 23.7798 22.6287C21.1844 23.3782 17.7436 21.3436 16.5351 17.1573C15.3274 12.9735 17.1604 9.4161 19.753 8.66626ZM14.9801 37.2205L14.9801 37.2205C12.4803 38.2411 8.84075 36.5864 7.1941 32.5487L7.19383 32.5481C5.54718 28.5157 6.9873 24.7858 9.48724 23.7651L9.48727 23.7651C11.9861 22.7448 15.6263 24.4035 17.2736 28.4374C18.9202 32.4698 17.4801 36.1998 14.9801 37.2205Z" stroke="#067D7B" stroke-width="3"/>
</svg>