<svg width="54" height="54" viewBox="0 0 54 54" fill="none" xmlns="http://www.w3.org/2000/svg">
    <path d="M0 2C0 0.895429 0.895431 0 2 0H52C53.1046 0 54 0.895431 54 2V52C54 53.1046 53.1046 54 52 54H2C0.895429 54 0 53.1046 0 52V2Z" fill="white"/>
    <path fill-rule="evenodd" clip-rule="evenodd" d="M23 22C23 24.2091 24.7909 26 27 26C29.2091 26 31 24.2091 31 22C31 19.7909 29.2091 18 27 18C24.7909 18 23 19.7909 23 22ZM25 22C25 23.1046 25.8954 24 27 24C28.1046 24 29 23.1046 29 22C29 20.8954 28.1046 20 27 20C25.8954 20 25 20.8954 25 22Z" fill="#141414"/>
    <path d="M23 30C23 29.4477 23.4477 29 24 29H30C30.5523 29 31 29.4477 31 30V36H33V30C33 28.3431 31.6569 27 30 27H24C22.3431 27 21 28.3431 21 30V36H23V30Z" fill="#141414"/>
    <path d="M2 1H52V-1H2V1ZM53 2V52H55V2H53ZM52 53H2V55H52V53ZM1 52V2H-1V52H1ZM2 53C1.44771 53 1 52.5523 1 52H-1C-1 53.6569 0.343144 55 2 55V53ZM53 52C53 52.5523 52.5523 53 52 53V55C53.6569 55 55 53.6569 55 52H53ZM52 1C52.5523 1 53 1.44771 53 2H55C55 0.343147 53.6569 -1 52 -1V1ZM2 -1C0.343147 -1 -1 0.343144 -1 2H1C1 1.44771 1.44771 1 2 1V-1Z" fill="#C5C7D3"/>
</svg>
