<svg width="60" height="60" viewBox="0 0 60 60" fill="none" xmlns="http://www.w3.org/2000/svg">
    <path d="M50 15.8066C49.9999 7.0909 43.2709 0 34.9999 0C26.7289 0 20 7.0909 20 15.8067C20 23.4561 25.2168 33.0516 32.3544 35.0002C30.8882 38.4394 31.3335 41.1961 32.2462 43.629L26.3332 46.7445L19.9976 44.2407C19.9981 44.2076 19.9999 44.1748 19.9999 44.1416C19.9999 41.2363 17.7569 38.8727 15 38.8727C12.2429 38.8727 10 41.2364 10 44.1416C10 47.0469 12.243 49.4105 15 49.4105C16.5337 49.4105 17.9076 48.6783 18.8256 47.5291L22.2646 48.888L18.4674 50.8887C17.5677 49.9745 16.3454 49.4105 15 49.4105C12.2429 49.4105 10 51.7741 10 54.6793C10 57.5845 12.243 59.9482 15 59.9482C17.757 59.9482 19.9999 57.5845 19.9999 54.6793C19.9999 54.4591 19.9855 54.2425 19.9604 54.0293L26.5237 50.5711L35.1316 53.9727C34.9194 55.2376 34.4295 56.6404 33.5528 58.2572L36.447 60C37.39 58.2613 37.9701 56.6757 38.2845 55.2185L41.0815 56.3238L42.2519 53.0348L38.5548 51.5739C38.3788 49.1074 37.4939 47.0593 36.6408 45.2407L42.412 42.1998L40.9214 39.058L35.239 42.052C34.5242 40.0137 34.4287 38.0393 35.9503 35.3123C43.9103 34.5401 50 24.1018 50 15.8066ZM15 45.8979C14.0809 45.8979 13.3333 45.11 13.3333 44.1416C13.3333 43.1732 14.0809 42.3853 15 42.3853C15.919 42.3853 16.6666 43.1732 16.6666 44.1416C16.6666 45.11 15.919 45.8979 15 45.8979ZM15 56.4356C14.0809 56.4356 13.3333 55.6478 13.3333 54.6793C13.3333 53.7109 14.0809 52.923 15 52.923C15.919 52.923 16.6666 53.7109 16.6666 54.6793C16.6666 55.6478 15.919 56.4356 15 56.4356ZM34.9571 50.1523L30.5923 48.4275L33.6592 46.8116C34.183 47.9277 34.6623 49.0088 34.9571 50.1523ZM23.3333 15.8067C23.3333 9.02777 28.5669 3.5127 34.9999 3.5127C41.4329 3.5127 46.6665 9.02777 46.6665 15.8067C46.6665 22.8775 41.1735 31.8476 34.9999 31.8476C28.6939 31.8475 23.3333 22.6854 23.3333 15.8067Z" fill="#067D7B"/>
</svg>