<svg width="40" height="40" viewBox="0 0 40 40" fill="none" xmlns="http://www.w3.org/2000/svg">
    <mask id="path-1-outside-1_383_1469" maskUnits="userSpaceOnUse" x="7.74988" y="0.495117" width="24" height="39" fill="black">
        <rect fill="white" x="7.74988" y="0.495117" width="24" height="39"/>
        <path d="M8.79457 31.6429C8.75122 31.7513 8.73909 31.8696 8.75956 31.9846C8.78002 32.0995 8.83226 32.2064 8.91035 32.2931L14.5354 38.5431C14.6085 38.6244 14.7017 38.685 14.8056 38.719C14.9095 38.753 15.0205 38.7592 15.1275 38.7369C15.2345 38.7146 15.3338 38.6646 15.4155 38.5919C15.4971 38.5192 15.5583 38.4264 15.5929 38.3227L18.2039 30.4892C18.6557 29.1338 19.1502 27.7952 19.6874 26.4736C20.2244 27.7962 20.7216 29.1416 21.1707 30.4892L23.7819 38.3227C23.8165 38.4264 23.8777 38.5192 23.9593 38.5919C24.041 38.6646 24.1403 38.7146 24.2473 38.7369C24.3543 38.7592 24.4653 38.753 24.5692 38.719C24.6731 38.685 24.7663 38.6244 24.8394 38.5431L30.4644 32.2931C30.5425 32.2064 30.5947 32.0995 30.6152 31.9846C30.6357 31.8696 30.6235 31.7513 30.5802 31.6429L28.8958 27.432C27.6336 24.2765 25.9136 20.8152 24.0443 17.6641C24.8297 16.3325 25.6614 15.0279 26.5393 13.7504L26.8194 13.3431C27.6715 12.1072 28.1268 10.6411 28.1249 9.13993C28.1216 7.53517 27.6012 5.97419 26.6411 4.68837C26.1393 4.01259 25.5188 3.43367 24.8099 2.97986C23.1291 1.91367 21.1571 1.39965 19.1697 1.50973C17.1824 1.61981 15.2792 2.34848 13.7264 3.59376C13.44 3.82374 13.1836 4.08884 12.9633 4.38282L12.7339 4.68868C11.7738 5.97434 11.2534 7.53515 11.2499 9.13978C11.2479 10.6409 11.7033 12.107 12.5554 13.3429L12.8354 13.7502C13.7073 15.0184 14.5451 16.3324 15.3288 17.6608C13.4544 20.7833 11.8327 24.0507 10.479 27.4317L8.79457 31.6429ZM27.7353 27.8962L29.2752 31.746L24.6284 36.9091L22.3567 30.0938C21.7688 28.3299 21.0996 26.5703 20.3679 24.8584C21.2551 22.8282 22.2414 20.8459 23.3268 18.9114C25.025 21.8414 26.5771 25.0009 27.7353 27.8962V27.8962ZM24.1398 4.03493C24.3559 4.17229 24.5619 4.32478 24.7564 4.49126L22.4522 7.56361C20.6513 7.0282 18.7327 7.03393 16.935 7.58009L14.6146 4.48634C15.9629 3.44009 17.6012 2.83532 19.3059 2.75453C21.0105 2.67375 22.6986 3.12088 24.1398 4.03493ZM19.6874 11.25L17.7414 8.6554C19.0227 8.34219 20.3601 8.33753 21.6436 8.64181L19.6874 11.25ZM13.8655 13.0422L13.5855 12.6349C12.8769 11.6072 12.4983 10.388 12.4999 9.13978C12.5027 7.80535 12.9353 6.50733 13.7338 5.43814L13.7499 5.41673L16.2098 8.69657L16.2108 8.69798L18.9082 12.2944C17.9132 13.6437 16.9611 15.0395 16.0672 16.4602C15.3671 15.3 14.6296 14.1537 13.8655 13.0422ZM16.5945 17.9834C16.5961 17.9806 16.5971 17.9778 16.5986 17.9751C17.7175 16.136 18.9396 14.3303 20.2314 12.6079L25.6249 5.4172C25.6302 5.42431 25.636 5.43103 25.6413 5.43814C26.4396 6.50737 26.8722 7.80539 26.8749 9.13978C26.8765 10.388 26.4978 11.6072 25.7893 12.6349L25.5093 13.0422C21.894 18.3002 19.0357 24.0402 17.018 30.0938L14.7464 36.9088L10.0996 31.7458L11.6396 27.8959C13.015 24.4608 14.6723 21.1453 16.5945 17.9834V17.9834Z"/>
    </mask>
    <path d="M8.79457 31.6429C8.75122 31.7513 8.73909 31.8696 8.75956 31.9846C8.78002 32.0995 8.83226 32.2064 8.91035 32.2931L14.5354 38.5431C14.6085 38.6244 14.7017 38.685 14.8056 38.719C14.9095 38.753 15.0205 38.7592 15.1275 38.7369C15.2345 38.7146 15.3338 38.6646 15.4155 38.5919C15.4971 38.5192 15.5583 38.4264 15.5929 38.3227L18.2039 30.4892C18.6557 29.1338 19.1502 27.7952 19.6874 26.4736C20.2244 27.7962 20.7216 29.1416 21.1707 30.4892L23.7819 38.3227C23.8165 38.4264 23.8777 38.5192 23.9593 38.5919C24.041 38.6646 24.1403 38.7146 24.2473 38.7369C24.3543 38.7592 24.4653 38.753 24.5692 38.719C24.6731 38.685 24.7663 38.6244 24.8394 38.5431L30.4644 32.2931C30.5425 32.2064 30.5947 32.0995 30.6152 31.9846C30.6357 31.8696 30.6235 31.7513 30.5802 31.6429L28.8958 27.432C27.6336 24.2765 25.9136 20.8152 24.0443 17.6641C24.8297 16.3325 25.6614 15.0279 26.5393 13.7504L26.8194 13.3431C27.6715 12.1072 28.1268 10.6411 28.1249 9.13993C28.1216 7.53517 27.6012 5.97419 26.6411 4.68837C26.1393 4.01259 25.5188 3.43367 24.8099 2.97986C23.1291 1.91367 21.1571 1.39965 19.1697 1.50973C17.1824 1.61981 15.2792 2.34848 13.7264 3.59376C13.44 3.82374 13.1836 4.08884 12.9633 4.38282L12.7339 4.68868C11.7738 5.97434 11.2534 7.53515 11.2499 9.13978C11.2479 10.6409 11.7033 12.107 12.5554 13.3429L12.8354 13.7502C13.7073 15.0184 14.5451 16.3324 15.3288 17.6608C13.4544 20.7833 11.8327 24.0507 10.479 27.4317L8.79457 31.6429ZM27.7353 27.8962L29.2752 31.746L24.6284 36.9091L22.3567 30.0938C21.7688 28.3299 21.0996 26.5703 20.3679 24.8584C21.2551 22.8282 22.2414 20.8459 23.3268 18.9114C25.025 21.8414 26.5771 25.0009 27.7353 27.8962V27.8962ZM24.1398 4.03493C24.3559 4.17229 24.5619 4.32478 24.7564 4.49126L22.4522 7.56361C20.6513 7.0282 18.7327 7.03393 16.935 7.58009L14.6146 4.48634C15.9629 3.44009 17.6012 2.83532 19.3059 2.75453C21.0105 2.67375 22.6986 3.12088 24.1398 4.03493ZM19.6874 11.25L17.7414 8.6554C19.0227 8.34219 20.3601 8.33753 21.6436 8.64181L19.6874 11.25ZM13.8655 13.0422L13.5855 12.6349C12.8769 11.6072 12.4983 10.388 12.4999 9.13978C12.5027 7.80535 12.9353 6.50733 13.7338 5.43814L13.7499 5.41673L16.2098 8.69657L16.2108 8.69798L18.9082 12.2944C17.9132 13.6437 16.9611 15.0395 16.0672 16.4602C15.3671 15.3 14.6296 14.1537 13.8655 13.0422ZM16.5945 17.9834C16.5961 17.9806 16.5971 17.9778 16.5986 17.9751C17.7175 16.136 18.9396 14.3303 20.2314 12.6079L25.6249 5.4172C25.6302 5.42431 25.636 5.43103 25.6413 5.43814C26.4396 6.50737 26.8722 7.80539 26.8749 9.13978C26.8765 10.388 26.4978 11.6072 25.7893 12.6349L25.5093 13.0422C21.894 18.3002 19.0357 24.0402 17.018 30.0938L14.7464 36.9088L10.0996 31.7458L11.6396 27.8959C13.015 24.4608 14.6723 21.1453 16.5945 17.9834V17.9834Z" fill="#067D7B"/>
    <path d="M8.79457 31.6429L8.51603 31.5315L8.51602 31.5315L8.79457 31.6429ZM8.91035 32.2931L9.13334 32.0924L9.13332 32.0924L8.91035 32.2931ZM14.5354 38.5431L14.7583 38.3424L14.7583 38.3424L14.5354 38.5431ZM15.5929 38.3227L15.3082 38.2278L15.3082 38.2278L15.5929 38.3227ZM18.2039 30.4892L18.4886 30.5841L18.4886 30.5841L18.2039 30.4892ZM19.6874 26.4736L19.9653 26.3607L19.6875 25.6765L19.4095 26.3606L19.6874 26.4736ZM21.1707 30.4892L20.8861 30.5841L20.8861 30.5841L21.1707 30.4892ZM23.7819 38.3227L24.0665 38.2278L24.0665 38.2278L23.7819 38.3227ZM24.8394 38.5431L24.6164 38.3424L24.6164 38.3424L24.8394 38.5431ZM30.4644 32.2931L30.2414 32.0924L30.2414 32.0924L30.4644 32.2931ZM30.5802 31.6429L30.8587 31.5315L30.8587 31.5315L30.5802 31.6429ZM28.8958 27.432L29.1744 27.3205L29.1744 27.3205L28.8958 27.432ZM24.0443 17.6641L23.7859 17.5117L23.6957 17.6645L23.7862 17.8171L24.0443 17.6641ZM26.5393 13.7504L26.2921 13.5804L26.2921 13.5805L26.5393 13.7504ZM26.8194 13.3431L26.5724 13.1728L26.5722 13.1731L26.8194 13.3431ZM28.1249 9.13993L28.4249 9.13955V9.13931L28.1249 9.13993ZM26.6411 4.68837L26.4002 4.86722L26.4007 4.86787L26.6411 4.68837ZM24.8099 2.97986L24.9716 2.72719L24.9706 2.72653L24.8099 2.97986ZM13.7264 3.59376L13.5388 3.35973L13.5386 3.35982L13.7264 3.59376ZM12.9633 4.38282L13.2033 4.56281L13.2034 4.56271L12.9633 4.38282ZM12.7339 4.68868L12.4939 4.50869L12.4936 4.50917L12.7339 4.68868ZM11.2499 9.13978L10.9499 9.13912L10.9499 9.13939L11.2499 9.13978ZM12.5554 13.3429L12.8027 13.173L12.8024 13.1726L12.5554 13.3429ZM12.8354 13.7502L12.5882 13.9202L12.5882 13.9202L12.8354 13.7502ZM15.3288 17.6608L15.586 17.8152L15.6779 17.6621L15.5872 17.5084L15.3288 17.6608ZM10.479 27.4317L10.2005 27.3202L10.2005 27.3203L10.479 27.4317ZM29.2752 31.746L29.4982 31.9467L29.6231 31.8079L29.5537 31.6346L29.2752 31.746ZM24.6284 36.9091L24.3438 37.0039L24.5067 37.4927L24.8514 37.1098L24.6284 36.9091ZM22.3567 30.0938L22.0721 30.1886L22.0721 30.1886L22.3567 30.0938ZM20.3679 24.8584L20.093 24.7383L20.0411 24.8571L20.0921 24.9764L20.3679 24.8584ZM23.3268 18.9114L23.5864 18.761L23.3226 18.3059L23.0652 18.7646L23.3268 18.9114ZM24.1398 4.03493L24.3007 3.78176L24.3005 3.78159L24.1398 4.03493ZM24.7564 4.49126L24.9964 4.67126L25.1652 4.44624L24.9515 4.26335L24.7564 4.49126ZM22.4522 7.56361L22.3667 7.85117L22.5669 7.91068L22.6922 7.7436L22.4522 7.56361ZM16.935 7.58009L16.695 7.76009L16.8211 7.92823L17.0222 7.86714L16.935 7.58009ZM14.6146 4.48634L14.4307 4.24933L14.1976 4.43025L14.3746 4.66634L14.6146 4.48634ZM19.6874 11.25L19.4474 11.43L19.6874 11.75L19.9274 11.43L19.6874 11.25ZM17.7414 8.6554L17.6701 8.36398L17.2287 8.47188L17.5014 8.83541L17.7414 8.6554ZM21.6436 8.64181L21.8836 8.82181L22.1584 8.45552L21.7128 8.3499L21.6436 8.64181ZM13.8655 13.0422L13.6183 13.2121L13.6183 13.2122L13.8655 13.0422ZM13.5855 12.6349L13.8327 12.4649L13.8325 12.4646L13.5855 12.6349ZM12.4999 9.13978L12.1999 9.13915L12.1999 9.13939L12.4999 9.13978ZM13.7338 5.43814L13.494 5.25786L13.4934 5.25863L13.7338 5.43814ZM13.7499 5.41673L13.9899 5.23673L13.7502 4.91712L13.5101 5.23645L13.7499 5.41673ZM16.2098 8.69657L16.453 8.52088L16.4498 8.51657L16.2098 8.69657ZM16.2108 8.69798L15.9676 8.87367L15.9708 8.87798L16.2108 8.69798ZM18.9082 12.2944L19.1496 12.4724L19.282 12.2929L19.1482 12.1144L18.9082 12.2944ZM16.0672 16.4602L15.8104 16.6152L16.0619 17.0319L16.3211 16.6199L16.0672 16.4602ZM16.5986 17.9751L16.3422 17.8191L16.3382 17.8262L16.5986 17.9751ZM20.2314 12.6079L19.9915 12.4279L19.9914 12.4279L20.2314 12.6079ZM25.6249 5.4172L25.8652 5.23762L25.6253 4.91662L25.3849 5.23719L25.6249 5.4172ZM25.6413 5.43814L25.8817 5.25865L25.8816 5.25856L25.6413 5.43814ZM26.8749 9.13978L27.1749 9.13939V9.13917L26.8749 9.13978ZM25.7893 12.6349L25.5423 12.4646L25.5421 12.4649L25.7893 12.6349ZM25.5093 13.0422L25.2621 12.8722L25.2621 12.8722L25.5093 13.0422ZM17.018 30.0938L17.3026 30.1886L17.3026 30.1886L17.018 30.0938ZM14.7464 36.9088L14.5234 37.1095L14.868 37.4925L15.031 37.0037L14.7464 36.9088ZM10.0996 31.7458L9.82103 31.6344L9.75169 31.8077L9.87658 31.9465L10.0996 31.7458ZM11.6396 27.8959L11.3611 27.7844L11.361 27.7845L11.6396 27.8959ZM8.51602 31.5315C8.45187 31.6919 8.43392 31.8671 8.4642 32.0371L9.05491 31.932C9.04427 31.8722 9.05058 31.8107 9.07312 31.7543L8.51602 31.5315ZM8.4642 32.0371C8.49449 32.2072 8.5718 32.3654 8.68738 32.4938L9.13332 32.0924C9.09271 32.0473 9.06555 31.9917 9.05491 31.932L8.4642 32.0371ZM8.68736 32.4938L14.3124 38.7438L14.7583 38.3424L9.13334 32.0924L8.68736 32.4938ZM14.3124 38.7438C14.4206 38.8641 14.5585 38.9539 14.7123 39.0042L14.8988 38.4339C14.8448 38.4162 14.7964 38.3847 14.7583 38.3424L14.3124 38.7438ZM14.7123 39.0042C14.866 39.0545 15.0303 39.0636 15.1887 39.0306L15.0662 38.4432C15.0106 38.4548 14.9529 38.4516 14.8988 38.4339L14.7123 39.0042ZM15.1887 39.0306C15.3471 38.9975 15.4941 38.9236 15.6149 38.816L15.216 38.3678C15.1735 38.4056 15.1219 38.4316 15.0662 38.4432L15.1887 39.0306ZM15.6149 38.816C15.7358 38.7084 15.8263 38.571 15.8775 38.4175L15.3082 38.2278C15.2903 38.2817 15.2585 38.33 15.216 38.3678L15.6149 38.816ZM15.8775 38.4175L18.4886 30.5841L17.9193 30.3944L15.3082 38.2278L15.8775 38.4175ZM18.4886 30.5841C18.9383 29.2347 19.4305 27.9022 19.9653 26.5866L19.4095 26.3606C18.8699 27.6882 18.3731 29.0328 17.9193 30.3944L18.4886 30.5841ZM19.4094 26.5865C19.9441 27.9032 20.439 29.2426 20.8861 30.5841L21.4554 30.3944C21.0042 29.0406 20.5048 27.6892 19.9653 26.3607L19.4094 26.5865ZM20.8861 30.5841L23.4973 38.4175L24.0665 38.2278L21.4553 30.3944L20.8861 30.5841ZM23.4973 38.4175C23.5485 38.571 23.639 38.7084 23.7599 38.816L24.1588 38.3678C24.1163 38.33 24.0845 38.2817 24.0665 38.2278L23.4973 38.4175ZM23.7599 38.816C23.8807 38.9236 24.0277 38.9975 24.1861 39.0306L24.3085 38.4432C24.2529 38.4316 24.2012 38.4056 24.1588 38.3678L23.7599 38.816ZM24.1861 39.0306C24.3445 39.0636 24.5087 39.0545 24.6625 39.0042L24.4759 38.4339C24.4219 38.4516 24.3642 38.4548 24.3085 38.4432L24.1861 39.0306ZM24.6625 39.0042C24.8163 38.9539 24.9542 38.8641 25.0624 38.7438L24.6164 38.3424C24.5784 38.3847 24.5299 38.4162 24.4759 38.4339L24.6625 39.0042ZM25.0624 38.7438L30.6874 32.4938L30.2414 32.0924L24.6164 38.3424L25.0624 38.7438ZM30.6874 32.4938C30.803 32.3654 30.8803 32.2072 30.9106 32.0371L30.3199 31.932C30.3092 31.9917 30.2821 32.0473 30.2414 32.0924L30.6874 32.4938ZM30.9106 32.0371C30.9408 31.8671 30.9229 31.6919 30.8587 31.5315L30.3016 31.7543C30.3242 31.8107 30.3305 31.8722 30.3199 31.932L30.9106 32.0371ZM30.8587 31.5315L29.1744 27.3205L28.6173 27.5434L30.3017 31.7543L30.8587 31.5315ZM29.1744 27.3205C27.9059 24.1496 26.1789 20.6744 24.3023 17.511L23.7862 17.8171C25.6484 20.9561 27.3612 24.4034 28.6173 27.5434L29.1744 27.3205ZM24.3027 17.8165C25.0846 16.4908 25.9125 15.1921 26.7866 13.9203L26.2921 13.5805C25.4102 14.8637 24.5748 16.1741 23.7859 17.5117L24.3027 17.8165ZM26.7865 13.9204L27.0666 13.513L26.5722 13.1731L26.2921 13.5804L26.7865 13.9204ZM27.0664 13.5133C27.953 12.2273 28.4269 10.7016 28.4249 9.13955L27.8249 9.14032C27.8267 10.5805 27.3899 11.9871 26.5724 13.1728L27.0664 13.5133ZM28.4249 9.13931C28.4214 7.47006 27.8802 5.84635 26.8814 4.50887L26.4007 4.86787C27.3223 6.10202 27.8217 7.60028 27.8249 9.14055L28.4249 9.13931ZM26.8819 4.50952C26.3584 3.80455 25.7112 3.20061 24.9716 2.72719L24.6481 3.23252C25.3264 3.66673 25.9201 4.22063 26.4002 4.86722L26.8819 4.50952ZM24.9706 2.72653C23.237 1.62683 21.203 1.09665 19.1531 1.21019L19.1863 1.80927C21.1112 1.70265 23.0213 2.20051 24.6492 3.23319L24.9706 2.72653ZM19.1531 1.21019C17.1033 1.32373 15.1403 2.0753 13.5388 3.35973L13.9141 3.82779C15.4181 2.62165 17.2614 1.91589 19.1863 1.80927L19.1531 1.21019ZM13.5386 3.35982C13.2326 3.60555 12.9586 3.88881 12.7232 4.20293L13.2034 4.56271C13.4086 4.28887 13.6474 4.04192 13.9143 3.8277L13.5386 3.35982ZM12.7233 4.20283L12.4939 4.50869L12.974 4.86867L13.2033 4.56281L12.7233 4.20283ZM12.4936 4.50917C11.4948 5.84649 10.9535 7.47001 10.9499 9.13912L11.5499 9.14043C11.5532 7.60028 12.0527 6.10219 12.9743 4.8682L12.4936 4.50917ZM10.9499 9.13939C10.9479 10.7015 11.4217 12.2271 12.3084 13.5132L12.8024 13.1726C11.9849 11.9869 11.548 10.5803 11.5499 9.14017L10.9499 9.13939ZM12.3082 13.5128L12.5882 13.9202L13.0827 13.5803L12.8027 13.173L12.3082 13.5128ZM12.5882 13.9202C13.4562 15.1826 14.2902 16.4907 15.0704 17.8132L15.5872 17.5084C14.8 16.174 13.9584 14.8541 13.0826 13.5803L12.5882 13.9202ZM15.0716 17.5064C13.189 20.6427 11.5601 23.9244 10.2005 27.3202L10.7575 27.5432C12.1053 24.1771 13.7199 20.924 15.586 17.8152L15.0716 17.5064ZM10.2005 27.3203L8.51603 31.5315L9.07311 31.7543L10.7576 27.5431L10.2005 27.3203ZM27.4567 28.0076L28.9967 31.8574L29.5537 31.6346L28.0138 27.7848L27.4567 28.0076ZM29.0522 31.5453L24.4054 36.7084L24.8514 37.1098L29.4982 31.9467L29.0522 31.5453ZM24.913 36.8142L22.6413 29.9989L22.0721 30.1886L24.3438 37.0039L24.913 36.8142ZM22.6413 29.9989C22.0508 28.2271 21.3787 26.4599 20.6438 24.7405L20.0921 24.9764C20.8206 26.6808 21.4868 28.4326 22.0721 30.1886L22.6413 29.9989ZM20.6428 24.9786C21.526 22.9575 22.5079 20.984 23.5885 19.0582L23.0652 18.7646C21.9749 20.7078 20.9842 22.699 20.093 24.7383L20.6428 24.9786ZM23.0673 19.0619C24.7589 21.9805 26.3044 25.127 27.4567 28.0076L28.0138 27.7848C26.8497 24.8749 25.2912 21.7023 23.5864 18.761L23.0673 19.0619ZM23.9789 4.28811C24.183 4.41786 24.3776 4.56191 24.5614 4.71918L24.9515 4.26335C24.7462 4.08765 24.5288 3.92671 24.3007 3.78176L23.9789 4.28811ZM24.5164 4.31126L22.2122 7.38361L22.6922 7.7436L24.9964 4.67126L24.5164 4.31126ZM22.5377 7.27604C20.6804 6.72388 18.7017 6.72979 16.8478 7.29304L17.0222 7.86714C18.7636 7.33807 20.6222 7.33252 22.3667 7.85117L22.5377 7.27604ZM17.175 7.40009L14.8546 4.30634L14.3746 4.66634L16.695 7.76009L17.175 7.40009ZM14.7986 4.72335C16.0981 3.71496 17.677 3.13206 19.3201 3.0542L19.2917 2.45487C17.5253 2.53858 15.8278 3.16523 14.4307 4.24933L14.7986 4.72335ZM19.3201 3.0542C20.9631 2.97633 22.5901 3.40729 23.9791 4.28828L24.3005 3.78159C22.8072 2.83447 21.058 2.37116 19.2917 2.45487L19.3201 3.0542ZM19.9274 11.07L17.9814 8.4754L17.5014 8.83541L19.4474 11.43L19.9274 11.07ZM17.8126 8.94682C19.0478 8.64488 20.3371 8.64039 21.5744 8.93372L21.7128 8.3499C20.3831 8.03467 18.9976 8.03949 17.6701 8.36398L17.8126 8.94682ZM21.4036 8.4618L19.4474 11.07L19.9274 11.43L21.8836 8.82181L21.4036 8.4618ZM14.1127 12.8723L13.8327 12.4649L13.3383 12.8048L13.6183 13.2121L14.1127 12.8723ZM13.8325 12.4646C13.1585 11.4871 12.7983 10.3275 12.7999 9.14017L12.1999 9.13939C12.1982 10.4486 12.5954 11.7273 13.3385 12.8051L13.8325 12.4646ZM12.7999 9.1404C12.8025 7.87046 13.2143 6.63517 13.9742 5.61764L13.4934 5.25863C12.6564 6.3795 12.2028 7.74024 12.1999 9.13915L12.7999 9.1404ZM13.9736 5.61841L13.9897 5.59701L13.5101 5.23645L13.494 5.25786L13.9736 5.61841ZM13.5099 5.59673L15.9698 8.87658L16.4498 8.51657L13.9899 5.23673L13.5099 5.59673ZM15.9666 8.87224L15.9676 8.87365L16.454 8.52231L16.453 8.52091L15.9666 8.87224ZM15.9708 8.87798L18.6682 12.4744L19.1482 12.1144L16.4508 8.51798L15.9708 8.87798ZM18.6667 12.1163C17.6673 13.4716 16.7112 14.8735 15.8133 16.3004L16.3211 16.6199C17.2111 15.2056 18.159 13.8158 19.1496 12.4724L18.6667 12.1163ZM16.3241 16.3052C15.621 15.1401 14.8803 13.9888 14.1127 12.8722L13.6183 13.2122C14.379 14.3186 15.1132 15.4599 15.8104 16.6152L16.3241 16.3052ZM16.8517 18.1377C16.8573 18.1284 16.8615 18.1204 16.8643 18.1147C16.867 18.1094 16.869 18.1049 16.8694 18.1041C16.8698 18.1032 16.8695 18.1038 16.8694 18.1041C16.8691 18.1046 16.8686 18.1058 16.8678 18.1075C16.8662 18.1108 16.8632 18.1167 16.8591 18.1239L16.3382 17.8262C16.3333 17.8348 16.3296 17.8421 16.3274 17.8468C16.3262 17.8492 16.3253 17.8511 16.3248 17.8523C16.3245 17.8529 16.3242 17.8535 16.3241 17.8538C16.324 17.8539 16.3239 17.8541 16.3239 17.8542C16.3239 17.8543 16.3238 17.8543 16.3238 17.8543C16.3235 17.855 16.325 17.8518 16.3269 17.8479C16.3291 17.8436 16.3325 17.8369 16.3372 17.829L16.8517 18.1377ZM16.8549 18.131C17.9688 16.3002 19.1855 14.5026 20.4714 12.7879L19.9914 12.4279C18.6938 14.1581 17.4663 15.9718 16.3423 17.8192L16.8549 18.131ZM20.4714 12.7879L25.8649 5.59721L25.3849 5.23719L19.9915 12.4279L20.4714 12.7879ZM25.3846 5.59678C25.3908 5.60514 25.3968 5.6126 25.3991 5.61539C25.4024 5.61951 25.4019 5.61897 25.401 5.61771L25.8816 5.25856C25.8754 5.25019 25.8693 5.24274 25.8671 5.23995C25.8638 5.23582 25.8643 5.23636 25.8652 5.23762L25.3846 5.59678ZM25.4009 5.61762C26.1607 6.63519 26.5723 7.87047 26.5749 9.14038L27.1749 9.13917C27.1721 7.7403 26.7186 6.37956 25.8817 5.25865L25.4009 5.61762ZM26.5749 9.14017C26.5764 10.3275 26.2163 11.4871 25.5423 12.4646L26.0363 12.8051C26.7794 11.7273 27.1766 10.4486 27.1749 9.13939L26.5749 9.14017ZM25.5421 12.4649L25.2621 12.8722L25.7565 13.2122L26.0365 12.8048L25.5421 12.4649ZM25.2621 12.8722C21.6309 18.1534 18.76 23.9187 16.7334 29.9989L17.3026 30.1886C19.3114 24.1617 22.1572 18.447 25.7565 13.2122L25.2621 12.8722ZM16.7334 29.9989L14.4618 36.814L15.031 37.0037L17.3026 30.1886L16.7334 29.9989ZM14.9694 36.7081L10.3226 31.5451L9.87658 31.9465L14.5234 37.1095L14.9694 36.7081ZM10.3781 31.8572L11.9181 28.0074L11.361 27.7845L9.82103 31.6344L10.3781 31.8572ZM11.9181 28.0075C13.2874 24.5876 14.9372 21.287 16.8508 18.1392L16.3381 17.8275C14.4074 21.0036 12.7427 24.3339 11.3611 27.7844L11.9181 28.0075Z" fill="#067D7B" mask="url(#path-1-outside-1_383_1469)"/>
</svg>

