<svg width="54" height="54" viewBox="0 0 54 54" fill="none" xmlns="http://www.w3.org/2000/svg">
    <path d="M-0.000488281 2C-0.000488281 0.895429 0.894942 0 1.99951 0H51.9995C53.1041 0 53.9995 0.895431 53.9995 2V52C53.9995 53.1046 53.1041 54 51.9995 54H1.99951C0.894941 54 -0.000488281 53.1046 -0.000488281 52V2Z" fill="white"/>
    <path fill-rule="evenodd" clip-rule="evenodd" d="M30.0076 30.8442C26.8691 33.2879 22.3284 33.0672 19.4432 30.182C16.319 27.0578 16.319 21.9925 19.4432 18.8683C22.5674 15.7441 27.6328 15.7441 30.757 18.8683C33.6421 21.7535 33.8629 26.2941 31.4191 29.4326C31.4344 29.4462 31.4494 29.4603 31.4641 29.4749L35.7067 33.7175C36.0972 34.1081 36.0972 34.7412 35.7067 35.1317C35.3162 35.5223 34.683 35.5223 34.2925 35.1317L30.0498 30.8891C30.0352 30.8745 30.0211 30.8595 30.0076 30.8442ZM20.8575 28.7678C23.2006 31.1109 26.9996 31.1109 29.3427 28.7678C31.6859 26.4246 31.6859 22.6257 29.3427 20.2825C26.9996 17.9394 23.2006 17.9394 20.8575 20.2825C18.5143 22.6257 18.5143 26.4246 20.8575 28.7678Z" fill="#141414"/>
</svg>
