<svg width="40" height="40" viewBox="0 0 40 40" fill="none" xmlns="http://www.w3.org/2000/svg">
    <g clip-path="url(#clip0_383_1528)">
        <path d="M21.3857 13.7461C21.4249 13.6311 21.4641 13.5155 21.5034 13.3994C21.6195 13.0568 21.7371 12.7099 21.8605 12.363C21.8605 12.3527 21.8708 12.332 21.8811 12.3114M21.3857 13.7461L22.7894 10.4535M21.3857 13.7461C20.8386 15.3872 20.3226 16.9251 19.3833 18.2979L21.3857 13.7461ZM21.8811 12.3114C21.9348 12.195 22.0119 12.0552 22.1055 11.8855C22.1198 11.8596 22.1344 11.8329 22.1495 11.8056C22.294 11.5476 22.6862 10.8251 22.7894 10.4535M21.8811 12.3114L21.747 12.2443L21.7462 12.2457C21.7461 12.2459 21.746 12.2462 21.7459 12.2464M21.8811 12.3114L21.7449 12.2485C21.7453 12.2478 21.7456 12.2471 21.7459 12.2464M22.7894 10.4535L22.6449 10.4133C22.6369 10.442 22.627 10.4733 22.6153 10.5067C22.6423 10.5285 22.6695 10.5501 22.6969 10.5715L22.7894 10.4535ZM21.7459 12.2464C21.7413 12.2556 21.7346 12.2691 21.7291 12.282C21.726 12.2891 21.7221 12.2988 21.7187 12.3098C21.7176 12.3134 21.7161 12.3187 21.7147 12.3254C21.5925 12.6692 21.4759 13.0133 21.3611 13.352C21.3218 13.4679 21.2827 13.5832 21.2437 13.6977L21.2434 13.6986C20.6954 15.3426 20.1852 16.8599 19.2601 18.2123C18.0478 19.9278 16.6459 21.4294 15.52 22.2208C14.7696 22.7378 13.9359 23.1145 13.0472 23.5072L13.0456 23.5079C12.9639 23.5452 12.8816 23.5825 12.7989 23.62C12.0599 23.955 11.2837 24.3068 10.5497 24.7774L10.5495 24.7775C10.1103 25.0598 9.6926 25.3731 9.29634 25.7068M21.7459 12.2464L18.6918 2.19626C18.6402 1.74211 18.9601 1.32925 19.4143 1.27764C19.8684 1.22604 20.2813 1.546 20.3329 2.00015L20.4814 1.97894C20.4815 1.97946 20.4816 1.98026 20.4817 1.98135C20.4818 1.98212 20.4819 1.98304 20.4821 1.9841C20.495 2.07908 20.6637 3.32076 21.1828 4.80851C21.7152 6.33417 22.6079 8.09405 24.0562 9.15225C24.0733 9.1599 24.0855 9.16861 24.0922 9.17361C24.1026 9.1814 24.1119 9.19005 24.1178 9.19583M9.29634 25.7068C9.29664 25.7065 9.29694 25.7063 9.29723 25.706L9.39205 25.8223L9.29543 25.7075C9.29574 25.7073 9.29604 25.707 9.29634 25.7068ZM9.29634 25.7068C8.50516 26.3522 7.79772 26.9159 6.93325 27.0043M6.93325 27.0043C6.85356 27.0096 6.77697 27.0176 6.70436 27.0252L6.6941 27.0263C6.62368 27.0337 6.55737 27.0407 6.49133 27.0454L6.49133 27.0454L6.48888 27.0456L6.46179 27.048C5.53134 27.1297 4.52848 27.2179 3.46408 27.8396L3.46348 27.84C1.58862 28.9469 0.679393 30.7712 0.243172 32.6023C-0.192706 34.4319 -0.160827 36.287 -0.140208 37.4779L-0.14019 37.4787C-0.128061 38.0124 0.297883 38.4407 0.835495 38.4407L0.845816 38.4407L0.849225 38.4407C1.38532 38.4285 1.81122 37.9899 1.81122 37.4546L1.81125 37.4443L1.81118 37.4411C1.77511 35.7767 1.82995 34.1428 2.19721 32.7475C2.56364 31.3553 3.2373 30.214 4.43083 29.5127M6.93325 27.0043C6.93412 27.0042 6.935 27.0041 6.93587 27.0041L6.94585 27.1537L6.93076 27.0045C6.93159 27.0044 6.93242 27.0043 6.93325 27.0043ZM4.43083 29.5127C5.10944 29.1195 5.76768 29.0582 6.63716 28.9857M4.43083 29.5127C4.43068 29.5128 4.43052 29.5129 4.43037 29.513L4.35514 29.3832M4.43083 29.5127C4.43093 29.5126 4.43103 29.5126 4.43112 29.5125L4.35514 29.3832M6.63716 28.9857C6.71666 28.9804 6.79573 28.9725 6.87198 28.9649L6.87304 28.9648C6.95087 28.957 7.02581 28.9495 7.10033 28.9445L7.10033 28.9446L7.10462 28.9442C8.5244 28.8085 9.55398 27.9888 10.4417 27.282C10.4637 27.2646 10.4855 27.2472 10.5073 27.2298L10.5073 27.2299L10.5109 27.2268C10.8464 26.9422 11.2023 26.6778 11.5788 26.4335M6.63716 28.9857C6.63673 28.9858 6.63629 28.9858 6.63586 28.9858L6.62588 28.8362M6.63716 28.9857C6.63755 28.9857 6.63795 28.9857 6.63834 28.9856L6.62588 28.8362M11.5788 26.4335C12.2799 25.9865 13.0234 25.6501 13.8283 25.2992L13.8299 25.2985C13.863 25.2836 13.8963 25.2687 13.9296 25.2537C14.8161 24.8556 15.7518 24.4354 16.6204 23.8294L16.6208 23.829C18.5224 22.4917 20.2071 20.2432 20.8477 19.3338L20.8489 19.3322C21.9359 17.7435 22.5298 15.99 23.0865 14.3199C23.2293 13.8917 23.3822 13.4532 23.5356 13.0134M11.5788 26.4335C11.5786 26.4337 11.5785 26.4338 11.5783 26.4339L11.4976 26.3074M11.5788 26.4335C11.5789 26.4334 11.5791 26.4333 11.5793 26.4332L11.4976 26.3074M23.5356 13.0134C23.5508 12.9863 23.5673 12.9556 23.5851 12.9221C23.6236 12.8504 23.6686 12.7662 23.7222 12.679L23.7224 12.6791L23.7257 12.673L23.7303 12.6647C24.0213 12.1389 24.3774 11.4955 24.5358 10.8833C24.6952 10.2671 24.6641 9.63653 24.1178 9.19583M23.5356 13.0134C23.5332 13.0176 23.5309 13.0217 23.5286 13.0257L23.3984 12.9513M23.5356 13.0134C23.5371 13.0092 23.5385 13.005 23.54 13.0007L23.3984 12.9513M24.1178 9.19583C24.12 9.19796 24.1217 9.19971 24.1229 9.20086L24.1237 9.20173L24.0177 9.3078L24.1112 9.19055C24.1134 9.19231 24.1156 9.19407 24.1178 9.19583ZM23.3984 12.9513C23.2436 13.3951 23.0887 13.839 22.9442 14.2725C22.3869 15.9446 21.7985 17.6786 20.7251 19.2474M23.3984 12.9513C23.412 12.9276 23.4289 12.896 23.4484 12.8595C23.4883 12.7851 23.5391 12.6904 23.5945 12.6004L20.7251 19.2474M20.7251 19.2474C20.0852 20.1557 18.4131 22.3852 16.5346 23.7064C15.6777 24.3041 14.7536 24.7192 13.8642 25.1186C13.8322 25.133 13.8003 25.1474 13.7684 25.1617C12.9633 25.5126 12.2098 25.8532 11.4976 26.3074M20.7251 19.2474L10.4139 27.1125M11.4976 26.3074C11.1158 26.5551 10.7545 26.8235 10.4139 27.1125M10.4139 27.1125C10.3952 27.1273 10.3765 27.1422 10.3577 27.1571C9.46384 27.8686 8.46522 28.6635 7.09035 28.7949C7.01294 28.8 6.93553 28.8078 6.85811 28.8155C6.7807 28.8233 6.70329 28.831 6.62588 28.8362M10.4139 27.1125L4.35514 29.3832M6.62588 28.8362C5.75887 28.9084 5.06733 28.9703 4.35514 29.3832M4.35514 29.3832C1.87797 30.8385 1.58897 34.1105 1.66122 37.4443L4.35514 29.3832Z" fill="#067D7B" stroke="#067D7B" stroke-width="0.3"/>
        <path d="M38.229 11.9203L38.2295 11.9212C39.5858 14.4773 40.2604 17.766 40.1358 21.2038L40.1357 21.2042C39.9697 25.4079 38.8482 29.0896 36.8179 32.1194L36.8178 32.1195C34.7144 35.2539 31.7469 37.5435 27.9835 38.9368C27.0895 39.2837 24.8141 39.8952 22.014 40.0507L22.0129 40.0508C21.5771 40.0715 21.1515 40.0819 20.7259 40.0819C17.6716 40.0819 14.9226 39.469 12.5656 38.249C11.3238 37.6278 10.2048 36.6318 9.06276 35.128L9.05968 35.125L9.03904 35.1043L9.03119 35.0965L9.02457 35.0875C8.5914 34.503 8.31768 34.1775 8.06251 34.0269C7.94185 33.9557 7.82705 33.9253 7.69914 33.9275C7.56738 33.9298 7.41409 33.9669 7.21815 34.0438L7.19173 34.0541H7.18187C6.92914 34.1595 6.72819 34.3744 6.56937 34.6726C6.40524 34.9808 6.29275 35.3661 6.21676 35.7764C6.0648 36.5971 6.06445 37.4845 6.06445 37.9812C6.06445 38.5182 5.62571 38.9569 5.08872 38.9569C4.55173 38.9569 4.113 38.5182 4.113 37.9812V37.9766C4.113 37.2705 4.113 36.0682 4.40544 34.9312C4.69813 33.7932 5.29347 32.6853 6.51083 32.2262C7.59135 31.8019 8.4228 31.9608 9.08267 32.3732C9.72047 32.7718 10.1888 33.4027 10.5694 33.9153L10.5867 33.9386L10.5945 33.9492L10.6004 33.9609L10.6043 33.9687C11.5841 35.2424 12.4735 36.0458 13.4337 36.5258L13.5166 36.5673V36.5735C16.1564 37.9203 19.1116 38.2452 21.6551 38.1409C24.2217 38.0357 26.3554 37.4942 27.2995 37.1389L27.3002 37.1386C34.0077 34.654 37.8768 28.994 38.1948 21.1619C38.3076 18.0556 37.7022 15.1207 36.5094 12.8776C35.0756 10.2033 32.8971 8.65528 30.0165 8.28L30.0147 8.27976C29.8827 8.26089 29.739 8.26061 29.5714 8.26061H29.5686V8.26059L29.5508 8.26026C29.002 8.25014 28.3512 8.23813 27.7412 7.87895C27.4364 7.70307 27.0283 7.35505 26.5887 6.89794C26.1465 6.4381 25.6649 5.85989 25.2141 5.21632C24.3161 3.93421 23.5256 2.37121 23.4352 0.957029C23.399 0.420888 23.8015 -0.04291 24.3385 -0.0795219C24.8749 -0.116095 25.3391 0.286534 25.3757 0.823721M38.229 11.9203L25.226 0.833925M38.229 11.9203C36.504 8.72109 33.7381 6.78144 30.2413 6.32077L30.2315 6.31949H30.2217H30.2216H30.2216H30.2215H30.2214H30.2214H30.2213H30.2213H30.2212H30.2211H30.2211H30.221H30.2209H30.2209H30.2208H30.2208H30.2207H30.2206H30.2206H30.2205H30.2205H30.2204H30.2203H30.2203H30.2202H30.2202H30.2201H30.22H30.22H30.2199H30.2199H30.2198H30.2197H30.2197H30.2196H30.2196H30.2195H30.2194H30.2194H30.2193H30.2192H30.2192H30.2191H30.2191H30.219H30.2189H30.2189H30.2188H30.2188H30.2187H30.2186H30.2186H30.2185H30.2185H30.2184H30.2183H30.2183H30.2182H30.2182H30.2181H30.218H30.218H30.2179H30.2178H30.2178H30.2177H30.2177H30.2176H30.2175H30.2175H30.2174H30.2174H30.2173H30.2172H30.2172H30.2171H30.217H30.217H30.2169H30.2169H30.2168H30.2167H30.2167H30.2166H30.2165H30.2165H30.2164H30.2164H30.2163H30.2162H30.2162H30.2161H30.2161H30.216H30.2159H30.2159H30.2158H30.2157H30.2157H30.2156H30.2155H30.2155H30.2154H30.2154H30.2153H30.2152H30.2152H30.2151H30.215H30.215H30.2149H30.2149H30.2148H30.2147H30.2147H30.2146H30.2145H30.2145H30.2144H30.2143H30.2143H30.2142H30.2142H30.2141H30.214H30.214H30.2139H30.2138H30.2138H30.2137H30.2136H30.2136H30.2135H30.2134H30.2134H30.2133H30.2133H30.2132H30.2131H30.2131H30.213H30.2129H30.2129H30.2128H30.2127H30.2127H30.2126H30.2125H30.2125H30.2124H30.2123H30.2123H30.2122H30.2121H30.2121H30.212H30.2119H30.2119H30.2118H30.2118H30.2117H30.2116H30.2115H30.2115H30.2114H30.2114H30.2113H30.2112H30.2111H30.2111H30.211H30.2109H30.2109H30.2108H30.2107H30.2107H30.2106H30.2105H30.2105H30.2104H30.2103H30.2103H30.2102H30.2101H30.2101H30.21H30.2099H30.2099H30.2098H30.2097H30.2097H30.2096H30.2095H30.2094H30.2094H30.2093H30.2092H30.2092H30.2091H30.209H30.209H30.2089H30.2088H30.2088H30.2087H30.2086H30.2085H30.2085H30.2084H30.2083H30.2083H30.2082H30.2081H30.208H30.208H30.2079H30.2078H30.2078H30.2077H30.2076H30.2076H30.2075H30.2074H30.2073H30.2073H30.2072H30.2071H30.207H30.207H30.2069H30.2068H30.2068H30.2067H30.2066H30.2065H30.2065H30.2064H30.2063H30.2062H30.2062H30.2061H30.206H30.2059H30.2059H30.2058H30.2057H30.2057H30.2056H30.2055H30.2054H30.2054H30.2053H30.2052H30.2051H30.2051H30.205H30.2049H30.2048H30.2048H30.2047H30.2046H30.2045H30.2044H30.2044H30.2043H30.2042H30.2041H30.2041H30.204H30.2039H30.2038H30.2038H30.2037H30.2036H30.2035H30.2034H30.2034H30.2033H30.2032H30.2031H30.2031H30.203H30.2029H30.2028H30.2027H30.2027H30.2026H30.2025H30.2024H30.2023H30.2023H30.2022H30.2021H30.202H30.2019H30.2019H30.2018H30.2017H30.2016H30.2015H30.2015H30.2014H30.2013H30.2012H30.2011H30.201H30.201H30.2009H30.2008H30.2007H30.2006H30.2006H30.2005H30.2004H30.2003H30.2002H30.2001H30.2001H30.2H30.1999H30.1998H30.1997H30.1996H30.1995H30.1995H30.1994H30.1993H30.1992H30.1991H30.199H30.199H30.1989H30.1988H30.1987H30.1986H30.1985H30.1984H30.1984H30.1983H30.1982H30.1981H30.198H30.1979H30.1978H30.1977H30.1977H30.1976H30.1975H30.1974H30.1973H30.1972H30.1971H30.197H30.1969H30.1969H30.1968H30.1967H30.1966H30.1965H30.1964H30.1963H30.1962H30.1961H30.196H30.196H30.1959H30.1958H30.1957H30.1956H30.1955H30.1954H30.1953H30.1952H30.1951H30.195H30.1949H30.1948H30.1948H30.1947H30.1946H30.1945H30.1944H30.1943H30.1942H30.1941H30.194H30.1939H30.1938H30.1937H30.1936H30.1935H30.1934H30.1933H30.1932H30.1931H30.193H30.193H30.1929H30.1928H30.1927H30.1926H30.1925H30.1924H30.1923H30.1922H30.1921H30.192H30.1919H30.1918H30.1917H30.1916H30.1915H30.1914H30.1913H30.1912H30.1911H30.191H30.1909H30.1908H30.1907H30.1906H30.1905H30.1904H30.1903H30.1902H30.1901H30.19H30.1899H30.1898H30.1897H30.1896H30.1895H30.1894H30.1892H30.1891H30.189H30.1889H30.1888H30.1887H30.1886H30.1885H30.1884H30.1883H30.1882H30.1881H30.188H30.1879H30.1878M38.229 11.9203L30.1804 6.46949M25.3757 0.823721L25.226 0.833925M25.3757 0.823721C25.3757 0.823716 25.3757 0.82371 25.3757 0.823705L25.226 0.833925M25.3757 0.823721C25.4449 1.83746 26.1093 3.08302 26.8578 4.13637C27.2295 4.65942 27.617 5.12816 27.9515 5.4883C28.2791 5.841 28.5442 6.07664 28.6904 6.16466M25.226 0.833925C25.3706 2.94984 27.9716 5.93277 28.6322 6.30434M28.6904 6.16466H28.6892C28.685 6.16308 28.6806 6.16163 28.676 6.16034C28.661 6.15613 28.6462 6.15434 28.6322 6.15434V6.30434M28.6904 6.16466H28.6943L28.7151 6.17709C28.7082 6.17303 28.7007 6.16921 28.6924 6.1659C28.6917 6.16549 28.691 6.16508 28.6904 6.16466ZM28.6322 6.30434L28.6528 6.26765L28.7049 6.17496M28.6322 6.30434L28.7049 6.17496M28.7049 6.17496C28.7119 6.17779 28.7182 6.18103 28.7238 6.18443C28.7257 6.18552 28.7274 6.1866 28.729 6.18767C28.7356 6.19206 28.7406 6.19616 28.7437 6.19893C28.7471 6.20194 28.7497 6.20464 28.7486 6.20345L28.7485 6.20342C28.7481 6.20303 28.7443 6.19919 28.7398 6.19514C28.7371 6.19278 28.7337 6.18991 28.7295 6.1868C28.7255 6.18378 28.7208 6.18055 28.7155 6.17734L28.73 6.18604C28.8042 6.23057 28.9165 6.25895 29.0721 6.27514C29.2046 6.28891 29.353 6.29268 29.5158 6.29682C29.5415 6.29747 29.5676 6.29813 29.5941 6.29884M28.7049 6.17496L28.6528 6.31466C28.8449 6.4299 29.162 6.43792 29.5128 6.44679C29.5391 6.44746 29.5655 6.44813 29.5921 6.44884M29.5941 6.29884H29.5921V6.44884M29.5941 6.29884C29.5948 6.29886 29.5954 6.29888 29.5961 6.2989L29.5921 6.44884M29.5941 6.29884H29.5949C29.7769 6.29884 29.9767 6.29884 30.1878 6.31949M29.5921 6.44884C29.7778 6.44884 29.974 6.44884 30.1804 6.46949M30.1804 6.46949V6.31949H30.1805H30.1806H30.1808H30.1809H30.181H30.1811H30.1812H30.1813H30.1815H30.1816H30.1817H30.1818H30.1819H30.1821H30.1822H30.1823H30.1824H30.1825H30.1826H30.1828H30.1829H30.183H30.1831H30.1832H30.1833H30.1835H30.1836H30.1837H30.1838H30.1839H30.184H30.1841H30.1843H30.1844H30.1845H30.1846H30.1847H30.1848H30.1849H30.185H30.1852H30.1853H30.1854H30.1855H30.1856H30.1857H30.1858H30.1859H30.186H30.1862H30.1863H30.1864H30.1865H30.1866H30.1867H30.1868H30.1869H30.187H30.1871H30.1872H30.1873H30.1875H30.1876H30.1877H30.1878H30.1878M30.1804 6.46949L30.1953 6.32023C30.1928 6.31998 30.1903 6.31973 30.1878 6.31949" fill="#067D7B" stroke="#067D7B" stroke-width="0.3"/>
        <path d="M20.8932 34.9886C21.9399 34.9886 22.9859 34.8598 24.0068 34.6186L24.0069 34.6185C26.3136 34.0709 28.5269 32.8558 30.4033 31.1048L30.4043 31.1039C31.8237 29.7547 32.7609 28.3665 33.2635 26.8509C33.9057 25.0904 33.8334 23.1878 33.0639 21.6137C33.0073 21.4857 32.8829 21.2393 32.678 21.01C32.4713 20.7787 32.1745 20.5559 31.7761 20.5018L31.766 20.5004L15.5663 27.0801M20.8932 34.9886C20.893 34.9886 20.8929 34.9886 20.8928 34.9886V34.8386L20.8936 34.9886C20.8935 34.9886 20.8933 34.9886 20.8932 34.9886ZM20.8932 34.9886C19.4529 34.9966 18.0212 34.7469 16.6715 34.2637L16.6711 34.2635C15.5586 33.8608 14.7191 33.3649 14.1238 32.7377L14.1227 32.7364L14.1227 32.7364C13.2441 31.7891 12.8937 30.5931 13.1653 29.4486C13.4369 28.3036 14.3011 27.3929 15.5124 26.9401M15.5124 26.9401C15.512 26.9403 15.5115 26.9404 15.5111 26.9406L15.5663 27.0801M15.5124 26.9401C15.5129 26.9399 15.5133 26.9397 15.5138 26.9396L15.5663 27.0801M15.5124 26.9401C16.2787 26.6369 17.0739 26.5565 17.7396 26.5166M15.5663 27.0801C16.3099 26.7857 17.0858 26.7061 17.7486 26.6663M17.7396 26.5166C17.7395 26.5166 17.7395 26.5166 17.7394 26.5166L17.7486 26.6663M17.7396 26.5166C20.329 26.3572 22.7472 26.1984 25.131 25.2849L25.1317 25.2846C26.6367 24.7171 28.6867 23.6269 30.0117 21.6219M17.7396 26.5166L17.7486 26.6663M17.7486 26.6663C20.3351 26.5071 22.776 26.348 25.1847 25.4249L30.0117 21.6219M30.0117 21.6219C30.0109 21.6232 30.0102 21.6246 30.0094 21.6259L30.1393 21.7008L30.0142 21.6182C30.0133 21.6194 30.0125 21.6207 30.0117 21.6219ZM30.0117 21.6219C30.3101 21.1062 30.6404 20.8138 30.953 20.6567C31.2623 20.5011 31.5431 20.4836 31.7383 20.5004C31.7406 20.5006 31.743 20.5009 31.7453 20.5011L31.7316 20.6504L30.0117 21.6219ZM31.7594 26.3091L31.7542 26.3142L31.7429 26.3484C31.324 27.6089 30.5319 28.7902 29.2929 29.9629C27.6212 31.5299 25.6559 32.6064 23.6222 33.0933C21.4261 33.6121 19.2092 33.5092 17.21 32.7879C16.3315 32.4655 15.6853 32.0859 15.2877 31.6644C14.7658 31.1051 14.5621 30.4309 14.7099 29.8125C14.8566 29.1989 15.3411 28.6866 16.0633 28.4124C16.0747 28.41 16.0877 28.4061 16.1013 28.3993C16.108 28.396 16.114 28.3925 16.119 28.3891C16.6718 28.1744 17.2892 28.1126 17.838 28.0813L17.8387 28.0812C20.3977 27.9223 23.0795 27.7548 25.6905 26.7508C28.7964 25.587 30.4769 23.7874 31.3424 22.4678C31.3531 22.4546 31.3604 22.4424 31.3643 22.4356C31.3705 22.4249 31.3762 22.4136 31.3798 22.4065L31.3804 22.4054L31.3804 22.4054L31.3818 22.4025C31.4222 22.3186 31.4781 22.2387 31.5447 22.1652C31.5612 22.1924 31.5759 22.2205 31.5886 22.2494C31.5971 22.2774 31.611 22.2966 31.6174 22.305C31.6191 22.3073 31.6209 22.3095 31.6227 22.3117C32.1976 23.496 32.2537 24.9485 31.7594 26.3091Z" fill="#067D7B" stroke="#067D7B" stroke-width="0.3"/>
    </g>
    <defs>
        <clipPath id="clip0_383_1528">
            <rect width="40" height="40" fill="white"/>
        </clipPath>
    </defs>
</svg>
