<svg width="162" height="40" viewBox="0 0 162 40" fill="none" xmlns="http://www.w3.org/2000/svg">
    <path d="M42.5661 14.1768H58.9662V17.2537H52.5177V34.5506H48.9717V17.2537H42.5518V14.1768H42.5661ZM58.2656 19.7986H61.2969V22.6455H61.3541C61.4541 22.2429 61.64 21.8547 61.9117 21.4809C62.1834 21.107 62.5122 20.7476 62.8983 20.4456C63.2843 20.1293 63.7133 19.8849 64.1851 19.6836C64.657 19.4967 65.1431 19.396 65.6293 19.396C66.001 19.396 66.2727 19.4104 66.4157 19.4248C66.5587 19.4392 66.7016 19.4679 66.8589 19.4823V22.6167C66.6301 22.5736 66.4014 22.5448 66.1583 22.5161C65.9152 22.4873 65.6865 22.4729 65.4577 22.4729C64.9143 22.4729 64.3996 22.588 63.9135 22.8036C63.4273 23.0193 63.0127 23.35 62.6552 23.767C62.2978 24.1983 62.0118 24.7159 61.7973 25.3486C61.5828 25.9812 61.4827 26.7001 61.4827 27.5197V34.5362H58.2513V19.7986H58.2656ZM81.7149 34.5506H78.5406V32.4945H78.4835C78.0831 33.2422 77.4969 33.8317 76.7105 34.2774C75.9241 34.7231 75.1234 34.9532 74.3083 34.9532C72.3781 34.9532 70.9768 34.4787 70.1189 33.5154C69.261 32.552 68.8321 31.0998 68.8321 29.1588V19.7986H72.0635V28.8425C72.0635 30.1365 72.3066 31.0567 72.807 31.5887C73.2932 32.1207 73.9938 32.3939 74.8803 32.3939C75.5666 32.3939 76.1242 32.2932 76.5818 32.0775C77.0393 31.8619 77.4111 31.5887 77.6828 31.2292C77.9687 30.8842 78.1689 30.4528 78.2976 29.964C78.4263 29.4751 78.4835 28.9431 78.4835 28.368V19.813H81.7149V34.5506ZM87.2197 29.8202C87.3198 30.7691 87.6773 31.4305 88.2921 31.8187C88.9212 32.1926 89.6648 32.3939 90.5369 32.3939C90.8372 32.3939 91.1804 32.3651 91.5664 32.322C91.9525 32.2788 92.3242 32.1782 92.6531 32.0488C92.9963 31.9194 93.2679 31.7181 93.4967 31.4593C93.7112 31.2005 93.8113 30.8698 93.797 30.4528C93.7827 30.0359 93.6254 29.6908 93.3394 29.432C93.0535 29.1588 92.696 28.9575 92.2528 28.785C91.8095 28.6268 91.3091 28.483 90.7371 28.368C90.1652 28.253 89.5933 28.1236 89.007 27.9942C88.4065 27.8648 87.8203 27.6922 87.2626 27.5053C86.705 27.3184 86.2046 27.0596 85.7613 26.7289C85.3181 26.4126 84.9606 25.9956 84.7032 25.4924C84.4316 24.9891 84.3029 24.3709 84.3029 23.6232C84.3029 22.818 84.5031 22.1566 84.8891 21.6103C85.2752 21.0639 85.7756 20.6325 86.3618 20.3018C86.9624 19.9712 87.6201 19.7411 88.3493 19.5973C89.0785 19.4679 89.7791 19.396 90.4369 19.396C91.1947 19.396 91.9239 19.4823 92.6102 19.6405C93.2965 19.7986 93.9257 20.0574 94.4833 20.4313C95.0409 20.7907 95.4985 21.2652 95.8702 21.8403C96.242 22.4154 96.4708 23.12 96.5708 23.9395H93.1964C93.0392 23.1631 92.696 22.6311 92.1384 22.3723C91.5807 22.0991 90.9373 21.9697 90.2224 21.9697C89.9936 21.9697 89.7219 21.9841 89.4074 22.0272C89.0928 22.0704 88.8068 22.1423 88.5209 22.2429C88.2492 22.3435 88.0204 22.5017 87.8203 22.703C87.6344 22.9043 87.5343 23.1631 87.5343 23.4938C87.5343 23.8964 87.6773 24.2127 87.9489 24.4571C88.2206 24.7016 88.5781 24.9029 89.0213 25.0754C89.4646 25.2336 89.965 25.3773 90.5369 25.4924C91.1089 25.6074 91.6951 25.7368 92.2956 25.8662C92.8819 25.9956 93.4538 26.1681 94.0257 26.355C94.5977 26.542 95.0981 26.8008 95.5414 27.1315C95.9846 27.4622 96.3421 27.8648 96.6137 28.3536C96.8854 28.8425 97.0284 29.4607 97.0284 30.1796C97.0284 31.0567 96.8282 31.79 96.4279 32.4082C96.0275 33.0121 95.5128 33.5154 94.8836 33.8892C94.2545 34.263 93.5396 34.5506 92.7675 34.7231C91.9954 34.8957 91.2233 34.9819 90.4655 34.9819C89.5361 34.9819 88.6782 34.8813 87.8918 34.6656C87.1054 34.4499 86.419 34.1336 85.8471 33.7167C85.2752 33.2853 84.8176 32.7533 84.4888 32.1207C84.1599 31.488 83.9883 30.726 83.9597 29.8489H87.2197V29.8202ZM97.8863 19.7986H100.331V15.3701H103.563V19.7986H106.48V22.2285H103.563V30.1077C103.563 30.4528 103.577 30.7404 103.606 30.9992C103.634 31.2436 103.706 31.4593 103.806 31.6318C103.906 31.8044 104.063 31.9338 104.278 32.02C104.492 32.1063 104.764 32.1494 105.136 32.1494C105.364 32.1494 105.593 32.1494 105.822 32.1351C106.051 32.1207 106.279 32.0919 106.508 32.0344V34.5506C106.151 34.5937 105.793 34.6225 105.464 34.6656C105.121 34.7087 104.778 34.7231 104.421 34.7231C103.563 34.7231 102.876 34.6369 102.362 34.4787C101.847 34.3205 101.432 34.0761 101.146 33.7598C100.846 33.4435 100.66 33.0553 100.546 32.5808C100.446 32.1063 100.374 31.5599 100.36 30.9561V22.2573H97.9149V19.7986H97.8863ZM108.767 19.7986H111.827V21.7972H111.884C112.342 20.9345 112.971 20.3306 113.786 19.9568C114.601 19.5829 115.473 19.396 116.431 19.396C117.589 19.396 118.59 19.5973 119.448 20.0143C120.306 20.4169 121.021 20.9776 121.593 21.6965C122.165 22.4154 122.579 23.2494 122.865 24.1983C123.151 25.1473 123.294 26.1681 123.294 27.2465C123.294 28.2386 123.166 29.2019 122.908 30.1221C122.651 31.0567 122.265 31.8763 121.75 32.5952C121.235 33.3141 120.578 33.8748 119.777 34.3062C118.976 34.7375 118.047 34.9532 116.96 34.9532C116.488 34.9532 116.017 34.91 115.545 34.8238C115.073 34.7375 114.615 34.5937 114.186 34.4068C113.757 34.2199 113.343 33.9755 112.985 33.6735C112.614 33.3716 112.313 33.0265 112.056 32.6383H111.999V39.9999H108.767V19.7986ZM120.063 27.189C120.063 26.5276 119.977 25.8806 119.806 25.2479C119.634 24.6153 119.377 24.0689 119.034 23.5801C118.69 23.0912 118.261 22.703 117.761 22.4154C117.246 22.1279 116.66 21.9697 116.002 21.9697C114.644 21.9697 113.614 22.4442 112.928 23.3931C112.242 24.3421 111.899 25.6074 111.899 27.189C111.899 27.9366 111.984 28.6268 112.17 29.2594C112.356 29.8921 112.614 30.4384 112.985 30.8985C113.343 31.3586 113.772 31.7181 114.272 31.9769C114.773 32.2501 115.359 32.3795 116.017 32.3795C116.76 32.3795 117.375 32.2213 117.89 31.9194C118.404 31.6174 118.819 31.2149 119.148 30.7404C119.477 30.2515 119.72 29.7052 119.863 29.0869C119.992 28.4686 120.063 27.836 120.063 27.189ZM125.768 14.1768H128.999V17.2537H125.768V14.1768ZM125.768 19.7986H128.999V34.5506H125.768V19.7986ZM131.888 14.1768H135.119V34.5506H131.888V14.1768ZM145.028 34.9532C143.855 34.9532 142.812 34.7519 141.897 34.3637C140.981 33.9755 140.209 33.4291 139.566 32.7533C138.937 32.0632 138.451 31.2436 138.122 30.2947C137.793 29.3457 137.621 28.2961 137.621 27.1602C137.621 26.0387 137.793 25.0035 138.122 24.0545C138.451 23.1056 138.937 22.286 139.566 21.5959C140.195 20.9057 140.981 20.3737 141.897 19.9855C142.812 19.5973 143.855 19.396 145.028 19.396C146.2 19.396 147.244 19.5973 148.159 19.9855C149.074 20.3737 149.846 20.9201 150.49 21.5959C151.119 22.286 151.605 23.1056 151.934 24.0545C152.263 25.0035 152.434 26.0387 152.434 27.1602C152.434 28.2961 152.263 29.3457 151.934 30.2947C151.605 31.2436 151.119 32.0632 150.49 32.7533C149.861 33.4435 149.074 33.9755 148.159 34.3637C147.244 34.7519 146.2 34.9532 145.028 34.9532ZM145.028 32.3795C145.743 32.3795 146.372 32.2213 146.901 31.9194C147.43 31.6174 147.859 31.2149 148.202 30.726C148.545 30.2371 148.788 29.6764 148.96 29.0581C149.117 28.4399 149.203 27.8072 149.203 27.1602C149.203 26.5276 149.117 25.9093 148.96 25.2767C148.803 24.644 148.545 24.0977 148.202 23.6088C147.859 23.12 147.43 22.7318 146.901 22.4298C146.372 22.1279 145.743 21.9697 145.028 21.9697C144.313 21.9697 143.684 22.1279 143.155 22.4298C142.626 22.7318 142.197 23.1343 141.854 23.6088C141.51 24.0977 141.267 24.644 141.096 25.2767C140.939 25.9093 140.853 26.5276 140.853 27.1602C140.853 27.8072 140.939 28.4399 141.096 29.0581C141.253 29.6764 141.51 30.2371 141.854 30.726C142.197 31.2149 142.626 31.6174 143.155 31.9194C143.684 32.2357 144.313 32.3795 145.028 32.3795ZM153.378 19.7986H155.823V15.3701H159.055V19.7986H161.971V22.2285H159.055V30.1077C159.055 30.4528 159.069 30.7404 159.097 30.9992C159.126 31.2436 159.198 31.4593 159.298 31.6318C159.398 31.8044 159.555 31.9338 159.769 32.02C159.984 32.1063 160.256 32.1494 160.627 32.1494C160.856 32.1494 161.085 32.1494 161.314 32.1351C161.542 32.1207 161.771 32.0919 162 32.0344V34.5506C161.643 34.5937 161.285 34.6225 160.956 34.6656C160.613 34.7087 160.27 34.7231 159.912 34.7231C159.055 34.7231 158.368 34.6369 157.853 34.4787C157.339 34.3205 156.924 34.0761 156.638 33.7598C156.338 33.4435 156.152 33.0553 156.038 32.5808C155.938 32.1063 155.866 31.5599 155.852 30.9561V22.2573H153.407V19.7986H153.378Z" fill="#000230"/>
    <path d="M38.7914 14.1768H23.9783L19.4028 0L14.8131 14.1768L0 14.1625L11.9963 22.9331L7.40653 37.0956L19.4028 28.3393L31.3848 37.0956L26.8094 22.9331L38.7914 14.1768Z" fill="#00B67A"/>
    <path d="M27.8389 26.1394L26.8094 22.9331L19.4029 28.3393L27.8389 26.1394Z" fill="#005128"/>
</svg>
