<svg width="60" height="60" viewBox="0 0 60 60" fill="none" xmlns="http://www.w3.org/2000/svg">
    <path d="M51.5274 11.5522C49.212 9.18374 46.0132 8 41.9294 8C40.7993 8 39.6459 8.20528 38.4704 8.61565C37.2944 9.02631 36.2004 9.58035 35.1896 10.2774C34.1775 10.9742 33.3076 11.6286 32.5779 12.2395C31.8491 12.8506 31.1562 13.5001 30.5 14.1874C29.8436 13.5001 29.1509 12.8506 28.422 12.2395C27.6926 11.6286 26.8224 10.9746 25.8104 10.2774C24.7987 9.58005 23.7048 9.02641 22.5291 8.61565C21.3535 8.20538 20.2003 8 19.0702 8C14.9867 8 11.7877 9.18404 9.47264 11.5522C7.15761 13.9202 6 17.2047 6 21.4061C6 22.6856 6.21453 24.0038 6.64273 25.359C7.07094 26.7149 7.5589 27.8705 8.10567 28.8251C8.65234 29.7797 9.27229 30.7106 9.96501 31.6178C10.6577 32.5249 11.164 33.1501 11.4826 33.4939C11.8016 33.8376 12.0523 34.0861 12.2346 34.239L29.2968 51.4839C29.6251 51.8276 30.0261 52 30.5 52C30.9738 52 31.3751 51.8276 31.7032 51.4839L48.7383 34.2957C52.9129 29.9232 55 25.6263 55 21.4057C55.0001 17.204 53.8426 13.9198 51.5274 11.5522ZM46.3593 31.6035L30.5 47.6163L14.6137 31.5746C11.2047 28.0042 9.50051 24.614 9.50051 21.4057C9.50051 19.859 9.69647 18.4934 10.0882 17.3097C10.4802 16.1257 10.9815 15.1849 11.5921 14.4879C12.2029 13.7907 12.9456 13.223 13.8206 12.7834C14.696 12.3442 15.5527 12.0482 16.3911 11.8955C17.2295 11.7429 18.1226 11.6666 19.0707 11.6666C20.0184 11.6666 21.0395 11.9098 22.1332 12.3969C23.2267 12.8838 24.2339 13.495 25.1544 14.2301C26.075 14.9658 26.8634 15.6531 27.52 16.2927C28.1761 16.9328 28.7228 17.5197 29.1604 18.0544C29.4883 18.4747 29.9353 18.6848 30.5001 18.6848C31.0652 18.6848 31.5117 18.4747 31.84 18.0544C32.2775 17.5197 32.8246 16.9325 33.4807 16.2927C34.1369 15.6531 34.9254 14.9661 35.8457 14.2301C36.7664 13.495 37.7736 12.8838 38.8677 12.3969C39.961 11.9099 40.9823 11.6666 41.9302 11.6666C42.8781 11.6666 43.7709 11.7429 44.6097 11.8955C45.4483 12.0481 46.305 12.3442 47.1802 12.7834C48.0553 13.2229 48.798 13.791 49.4086 14.4879C50.0192 15.1849 50.5207 16.1257 50.9127 17.3097C51.304 18.4934 51.5 19.859 51.5 21.4057C51.4998 24.614 49.7866 28.0136 46.3593 31.6035Z" fill="#067D7B"/>
</svg>